G04*
G04 #@! TF.GenerationSoftware,Altium Limited,Altium Designer,19.1.8 (144)*
G04*
G04 Layer_Color=32768*
%FSLAX25Y25*%
%MOIN*%
G70*
G01*
G75*
%ADD11C,0.00394*%
%ADD34C,0.00197*%
D11*
X567785Y210610D02*
Y415335D01*
X634715D01*
Y210610D02*
Y415335D01*
X567785Y210610D02*
X634715D01*
X496535Y210472D02*
Y415197D01*
X563465D01*
Y210472D02*
Y415197D01*
X496535Y210472D02*
X563465D01*
X639035Y210610D02*
Y415335D01*
X705965D01*
Y210610D02*
Y415335D01*
X639035Y210610D02*
X705965D01*
X146535D02*
X213465D01*
Y415335D01*
X146535D02*
X213465D01*
X146535Y210610D02*
Y415335D01*
X216535Y210610D02*
Y415335D01*
X283465D01*
Y210610D02*
Y415335D01*
X216535Y210610D02*
X283465D01*
X286535D02*
X353465D01*
Y415335D01*
X286535D02*
X353465D01*
X286535Y210610D02*
Y415335D01*
X356535Y210610D02*
Y415335D01*
X423465D01*
Y210610D02*
Y415335D01*
X356535Y210610D02*
X423465D01*
X426535D02*
X493465D01*
Y415335D01*
X426535D02*
X493465D01*
X426535Y210610D02*
Y415335D01*
D34*
X324813Y115837D02*
Y150679D01*
X504734D01*
Y115837D02*
Y150679D01*
X324813Y115837D02*
X504734D01*
X524183D02*
Y150679D01*
X704104D01*
Y115837D02*
Y150679D01*
X524183Y115837D02*
X704104D01*
X144813Y115049D02*
X304262D01*
Y152451D01*
X144813D02*
X304262D01*
X144813Y115049D02*
Y152451D01*
M02*
