M48
;Layer_Color=9474304
;FILE_FORMAT=2:5
INCH,LZ
;TYPE=PLATED
T1F00S00C0.02500
T2F00S00C0.03150
T3F00S00C0.04331
T4F00S00C0.05906
T5F00S00C0.06890
T6F00S00C0.12000
T7F00S00C0.12598
%
T01
X033Y02875
X04025Y025875
X04375Y027125
X042375Y02125
X024875Y028875
X019Y02625
X022Y03325
X0215Y041375
X0285Y04025
T02
X02875Y02
X02975
X03075
T03
X06525Y02425
X06925
Y02975
X06525
X062125
X058125
X055Y0297362
X051
X048Y02975
Y02425
X051Y0242362
X055
X058125Y02425
X062125
X044
X041
X037
X034
Y02975
X037
X041
X044
X03
X027
X023
X02
X016
Y02425
X02
X023
X027
X03
Y03175
X027
X023
X02
X016
Y03625
Y03825
X02
Y03625
X023
Y03825
X027
Y03625
X03
Y03825
X034
Y03625
X037
Y03825
X041
Y03625
X044
Y03825
Y03175
X041
X037
X034
X048
X051Y0317362
X055
X058125Y03175
X062125
Y03625
Y03825
X058125
Y03625
X055Y0362362
Y0382362
X051
Y0362362
X048Y03625
Y03825
X06525
Y03625
X06925
Y03825
Y03175
X06525
T04
X033564Y013375
X0355325
X037501
X0394695
X041438
X0434065
X045375
X0473435
X049312
X053501
X0554695
X057438
X0594065
X061375
X0633435
X065312
X0672805
X069249
T05
X015564Y013375
X0175325
X019501
X0214695
X023438
X0254065
X027375
X0293435
T06
X070725Y0194843
X0136
X0136266Y04425
X0707516
T07
X06725Y0226358
X060125
X053Y022622
X046Y0226358
X039
X032
X025
X018
Y0340138
Y0399587
X025
Y0340138
X032
Y0399587
X039
Y0340138
X046
Y0399587
X053Y0399449
Y034
X060125Y0340138
Y0399587
X06725
Y0340138
M30
