M48
;Layer_Color=9474304
;FILE_FORMAT=2:5
INCH,LZ
;TYPE=PLATED
T1F00S00C0.02500
T2F00S00C0.03150
T3F00S00C0.04331
T4F00S00C0.04724
T5F00S00C0.06890
T6F00S00C0.12000
T7F00S00C0.12598
%
T01
X033Y02875
X04025Y025875
X04375Y027125
X042375Y02125
X024875Y028875
X019Y02625
X022Y03325
X0215Y041375
X0285Y04025
T02
X02875Y02
X02975
X03075
T03
X048Y02425
X051
X055
Y02975
X051
X048
X044
X041
X037
X034
Y02425
X037
X041
X044
X03
X027
X023
X02
X016
Y02975
X02
X023
X027
X03
Y03175
X027
X023
X02
X016
Y03625
Y03825
X02
Y03625
X023
Y03825
X027
Y03625
X03
Y03825
X034
Y03625
X037
Y03825
X041
Y03625
X044
Y03825
Y03175
X041
X037
X034
X048
X051
X055
Y03625
Y03825
X051
Y03625
X048
Y03825
T04
X0331565Y013375
X035125
X0370935
X039062
X0410305
X042999
X0465
X0484685
X050437
X0524055
X054374
X0563425
T05
X015564Y013375
X0175325
X019501
X0214695
X023438
X0254065
X027375
X0293435
T06
X056625Y0195
X013625
X0136266Y04425
X0566266
T07
X053Y0226358
X046
X039
X032
X025
X018
Y0340138
Y0399587
X025
Y0340138
X032
Y0399587
X039
Y0340138
X046
Y0399587
X053
Y0340138
M30
