G04*
G04 #@! TF.GenerationSoftware,Altium Limited,Altium Designer,19.1.8 (144)*
G04*
G04 Layer_Physical_Order=1*
G04 Layer_Color=255*
%FSLAX25Y25*%
%MOIN*%
G70*
G01*
G75*
%ADD23C,0.02500*%
%ADD24C,0.07087*%
%ADD25R,0.07087X0.07087*%
%ADD26C,0.06496*%
%ADD27C,0.18898*%
%ADD28C,0.05512*%
%ADD29C,0.10335*%
%ADD30R,0.10335X0.10335*%
%ADD31C,0.16000*%
%ADD32C,0.05000*%
G36*
X583471Y453750D02*
X555000D01*
Y430000D01*
X583471D01*
X583471Y206250D01*
X555000D01*
Y182500D01*
X583471D01*
X583471Y112779D01*
X121529D01*
X121529Y182500D01*
X148750D01*
Y206250D01*
X121529D01*
X121529Y430000D01*
X148750D01*
Y453750D01*
X121529D01*
Y458471D01*
X583471D01*
Y453750D01*
D02*
G37*
%LPC*%
G36*
X530000Y410068D02*
X528360Y409939D01*
X526761Y409555D01*
X525242Y408925D01*
X523839Y408066D01*
X522589Y406998D01*
X521521Y405747D01*
X520661Y404345D01*
X520032Y402825D01*
X519648Y401226D01*
X519519Y399587D01*
X519648Y397947D01*
X520032Y396348D01*
X520661Y394828D01*
X521521Y393426D01*
X522589Y392175D01*
X523839Y391107D01*
X525242Y390248D01*
X526761Y389618D01*
X528360Y389234D01*
X530000Y389106D01*
X531640Y389234D01*
X533239Y389618D01*
X534758Y390248D01*
X536161Y391107D01*
X537411Y392175D01*
X538479Y393426D01*
X539339Y394828D01*
X539968Y396348D01*
X540352Y397947D01*
X540481Y399587D01*
X540352Y401226D01*
X539968Y402825D01*
X539339Y404345D01*
X538479Y405747D01*
X537411Y406998D01*
X536161Y408066D01*
X534758Y408925D01*
X533239Y409555D01*
X531640Y409939D01*
X530000Y410068D01*
D02*
G37*
G36*
X460000D02*
X458360Y409939D01*
X456761Y409555D01*
X455242Y408925D01*
X453839Y408066D01*
X452589Y406998D01*
X451521Y405747D01*
X450661Y404345D01*
X450032Y402825D01*
X449648Y401226D01*
X449519Y399587D01*
X449648Y397947D01*
X450032Y396348D01*
X450661Y394828D01*
X451521Y393426D01*
X452589Y392175D01*
X453839Y391107D01*
X455242Y390248D01*
X456761Y389618D01*
X458360Y389234D01*
X460000Y389106D01*
X461640Y389234D01*
X463239Y389618D01*
X464758Y390248D01*
X466161Y391107D01*
X467411Y392175D01*
X468479Y393426D01*
X469339Y394828D01*
X469968Y396348D01*
X470352Y397947D01*
X470481Y399587D01*
X470352Y401226D01*
X469968Y402825D01*
X469339Y404345D01*
X468479Y405747D01*
X467411Y406998D01*
X466161Y408066D01*
X464758Y408925D01*
X463239Y409555D01*
X461640Y409939D01*
X460000Y410068D01*
D02*
G37*
G36*
X390000D02*
X388360Y409939D01*
X386761Y409555D01*
X385242Y408925D01*
X383839Y408066D01*
X382589Y406998D01*
X381521Y405747D01*
X380661Y404345D01*
X380032Y402825D01*
X379648Y401226D01*
X379519Y399587D01*
X379648Y397947D01*
X380032Y396348D01*
X380661Y394828D01*
X381521Y393426D01*
X382589Y392175D01*
X383839Y391107D01*
X385242Y390248D01*
X386761Y389618D01*
X388360Y389234D01*
X390000Y389106D01*
X391640Y389234D01*
X393239Y389618D01*
X394758Y390248D01*
X396161Y391107D01*
X397411Y392175D01*
X398479Y393426D01*
X399339Y394828D01*
X399968Y396348D01*
X400352Y397947D01*
X400481Y399587D01*
X400352Y401226D01*
X399968Y402825D01*
X399339Y404345D01*
X398479Y405747D01*
X397411Y406998D01*
X396161Y408066D01*
X394758Y408925D01*
X393239Y409555D01*
X391640Y409939D01*
X390000Y410068D01*
D02*
G37*
G36*
X320000D02*
X318360Y409939D01*
X316761Y409555D01*
X315242Y408925D01*
X313839Y408066D01*
X312589Y406998D01*
X311521Y405747D01*
X310661Y404345D01*
X310032Y402825D01*
X309648Y401226D01*
X309519Y399587D01*
X309648Y397947D01*
X310032Y396348D01*
X310661Y394828D01*
X311521Y393426D01*
X312589Y392175D01*
X313839Y391107D01*
X315242Y390248D01*
X316761Y389618D01*
X318360Y389234D01*
X320000Y389106D01*
X321640Y389234D01*
X323239Y389618D01*
X324758Y390248D01*
X326161Y391107D01*
X327411Y392175D01*
X328479Y393426D01*
X329339Y394828D01*
X329968Y396348D01*
X330352Y397947D01*
X330481Y399587D01*
X330352Y401226D01*
X329968Y402825D01*
X329339Y404345D01*
X328479Y405747D01*
X327411Y406998D01*
X326161Y408066D01*
X324758Y408925D01*
X323239Y409555D01*
X321640Y409939D01*
X320000Y410068D01*
D02*
G37*
G36*
X250000D02*
X248360Y409939D01*
X246761Y409555D01*
X245242Y408925D01*
X243839Y408066D01*
X242589Y406998D01*
X241521Y405747D01*
X240661Y404345D01*
X240032Y402825D01*
X239648Y401226D01*
X239519Y399587D01*
X239648Y397947D01*
X240032Y396348D01*
X240661Y394828D01*
X241521Y393426D01*
X242589Y392175D01*
X243839Y391107D01*
X245242Y390248D01*
X246761Y389618D01*
X248360Y389234D01*
X250000Y389106D01*
X251640Y389234D01*
X253239Y389618D01*
X254758Y390248D01*
X256161Y391107D01*
X257411Y392175D01*
X258479Y393426D01*
X259339Y394828D01*
X259968Y396348D01*
X260352Y397947D01*
X260481Y399587D01*
X260352Y401226D01*
X259968Y402825D01*
X259339Y404345D01*
X258479Y405747D01*
X257411Y406998D01*
X256161Y408066D01*
X254758Y408925D01*
X253239Y409555D01*
X251640Y409939D01*
X250000Y410068D01*
D02*
G37*
G36*
X180000D02*
X178360Y409939D01*
X176761Y409555D01*
X175242Y408925D01*
X173839Y408066D01*
X172589Y406998D01*
X171521Y405747D01*
X170661Y404345D01*
X170032Y402825D01*
X169648Y401226D01*
X169519Y399587D01*
X169648Y397947D01*
X170032Y396348D01*
X170661Y394828D01*
X171521Y393426D01*
X172589Y392175D01*
X173839Y391107D01*
X175242Y390248D01*
X176761Y389618D01*
X178360Y389234D01*
X180000Y389106D01*
X181640Y389234D01*
X183239Y389618D01*
X184758Y390248D01*
X186161Y391107D01*
X187411Y392175D01*
X188479Y393426D01*
X189339Y394828D01*
X189968Y396348D01*
X190352Y397947D01*
X190481Y399587D01*
X190352Y401226D01*
X189968Y402825D01*
X189339Y404345D01*
X188479Y405747D01*
X187411Y406998D01*
X186161Y408066D01*
X184758Y408925D01*
X183239Y409555D01*
X181640Y409939D01*
X180000Y410068D01*
D02*
G37*
G36*
X550000Y386785D02*
X548891Y386639D01*
X547858Y386211D01*
X546970Y385530D01*
X546289Y384642D01*
X545861Y383609D01*
X545715Y382500D01*
X545861Y381391D01*
X546289Y380358D01*
X546970Y379470D01*
X547858Y378789D01*
X548891Y378361D01*
X550000Y378215D01*
X551109Y378361D01*
X552142Y378789D01*
X553030Y379470D01*
X553711Y380358D01*
X554139Y381391D01*
X554285Y382500D01*
X554139Y383609D01*
X553711Y384642D01*
X553030Y385530D01*
X552142Y386211D01*
X551109Y386639D01*
X550000Y386785D01*
D02*
G37*
G36*
X510000D02*
X508891Y386639D01*
X507858Y386211D01*
X506970Y385530D01*
X506289Y384642D01*
X505861Y383609D01*
X505715Y382500D01*
X505861Y381391D01*
X506289Y380358D01*
X506970Y379470D01*
X507858Y378789D01*
X508891Y378361D01*
X510000Y378215D01*
X511109Y378361D01*
X512142Y378789D01*
X513030Y379470D01*
X513711Y380358D01*
X514139Y381391D01*
X514285Y382500D01*
X514139Y383609D01*
X513711Y384642D01*
X513030Y385530D01*
X512142Y386211D01*
X511109Y386639D01*
X510000Y386785D01*
D02*
G37*
G36*
X480000D02*
X478891Y386639D01*
X477858Y386211D01*
X476970Y385530D01*
X476289Y384642D01*
X475861Y383609D01*
X475715Y382500D01*
X475861Y381391D01*
X476289Y380358D01*
X476970Y379470D01*
X477858Y378789D01*
X478891Y378361D01*
X480000Y378215D01*
X481109Y378361D01*
X482142Y378789D01*
X483030Y379470D01*
X483711Y380358D01*
X484139Y381391D01*
X484285Y382500D01*
X484139Y383609D01*
X483711Y384642D01*
X483030Y385530D01*
X482142Y386211D01*
X481109Y386639D01*
X480000Y386785D01*
D02*
G37*
G36*
X440000D02*
X438891Y386639D01*
X437858Y386211D01*
X436970Y385530D01*
X436289Y384642D01*
X435861Y383609D01*
X435715Y382500D01*
X435861Y381391D01*
X436289Y380358D01*
X436970Y379470D01*
X437858Y378789D01*
X438891Y378361D01*
X440000Y378215D01*
X441109Y378361D01*
X442142Y378789D01*
X443030Y379470D01*
X443711Y380358D01*
X444139Y381391D01*
X444285Y382500D01*
X444139Y383609D01*
X443711Y384642D01*
X443030Y385530D01*
X442142Y386211D01*
X441109Y386639D01*
X440000Y386785D01*
D02*
G37*
G36*
X410000D02*
X408891Y386639D01*
X407858Y386211D01*
X406970Y385530D01*
X406289Y384642D01*
X405861Y383609D01*
X405715Y382500D01*
X405861Y381391D01*
X406289Y380358D01*
X406970Y379470D01*
X407858Y378789D01*
X408891Y378361D01*
X410000Y378215D01*
X411109Y378361D01*
X412142Y378789D01*
X413030Y379470D01*
X413711Y380358D01*
X414139Y381391D01*
X414285Y382500D01*
X414139Y383609D01*
X413711Y384642D01*
X413030Y385530D01*
X412142Y386211D01*
X411109Y386639D01*
X410000Y386785D01*
D02*
G37*
G36*
X370000D02*
X368891Y386639D01*
X367858Y386211D01*
X366970Y385530D01*
X366289Y384642D01*
X365861Y383609D01*
X365715Y382500D01*
X365861Y381391D01*
X366289Y380358D01*
X366970Y379470D01*
X367858Y378789D01*
X368891Y378361D01*
X370000Y378215D01*
X371109Y378361D01*
X372142Y378789D01*
X373030Y379470D01*
X373711Y380358D01*
X374139Y381391D01*
X374285Y382500D01*
X374139Y383609D01*
X373711Y384642D01*
X373030Y385530D01*
X372142Y386211D01*
X371109Y386639D01*
X370000Y386785D01*
D02*
G37*
G36*
X340000D02*
X338891Y386639D01*
X337858Y386211D01*
X336970Y385530D01*
X336289Y384642D01*
X335861Y383609D01*
X335715Y382500D01*
X335861Y381391D01*
X336289Y380358D01*
X336970Y379470D01*
X337858Y378789D01*
X338891Y378361D01*
X340000Y378215D01*
X341109Y378361D01*
X342142Y378789D01*
X343030Y379470D01*
X343711Y380358D01*
X344139Y381391D01*
X344285Y382500D01*
X344139Y383609D01*
X343711Y384642D01*
X343030Y385530D01*
X342142Y386211D01*
X341109Y386639D01*
X340000Y386785D01*
D02*
G37*
G36*
X300000D02*
X298891Y386639D01*
X297858Y386211D01*
X296970Y385530D01*
X296289Y384642D01*
X295861Y383609D01*
X295715Y382500D01*
X295861Y381391D01*
X296289Y380358D01*
X296970Y379470D01*
X297858Y378789D01*
X298891Y378361D01*
X300000Y378215D01*
X301109Y378361D01*
X302142Y378789D01*
X303030Y379470D01*
X303711Y380358D01*
X304139Y381391D01*
X304285Y382500D01*
X304139Y383609D01*
X303711Y384642D01*
X303030Y385530D01*
X302142Y386211D01*
X301109Y386639D01*
X300000Y386785D01*
D02*
G37*
G36*
X270000D02*
X268891Y386639D01*
X267858Y386211D01*
X266970Y385530D01*
X266289Y384642D01*
X265861Y383609D01*
X265715Y382500D01*
X265861Y381391D01*
X266289Y380358D01*
X266970Y379470D01*
X267858Y378789D01*
X268891Y378361D01*
X270000Y378215D01*
X271109Y378361D01*
X272142Y378789D01*
X273030Y379470D01*
X273711Y380358D01*
X274139Y381391D01*
X274285Y382500D01*
X274139Y383609D01*
X273711Y384642D01*
X273030Y385530D01*
X272142Y386211D01*
X271109Y386639D01*
X270000Y386785D01*
D02*
G37*
G36*
X230000D02*
X228891Y386639D01*
X227858Y386211D01*
X226970Y385530D01*
X226289Y384642D01*
X225861Y383609D01*
X225715Y382500D01*
X225861Y381391D01*
X226289Y380358D01*
X226970Y379470D01*
X227858Y378789D01*
X228891Y378361D01*
X230000Y378215D01*
X231109Y378361D01*
X232142Y378789D01*
X233030Y379470D01*
X233711Y380358D01*
X234139Y381391D01*
X234285Y382500D01*
X234139Y383609D01*
X233711Y384642D01*
X233030Y385530D01*
X232142Y386211D01*
X231109Y386639D01*
X230000Y386785D01*
D02*
G37*
G36*
X200000D02*
X198891Y386639D01*
X197858Y386211D01*
X196970Y385530D01*
X196289Y384642D01*
X195861Y383609D01*
X195715Y382500D01*
X195861Y381391D01*
X196289Y380358D01*
X196970Y379470D01*
X197858Y378789D01*
X198891Y378361D01*
X200000Y378215D01*
X201109Y378361D01*
X202142Y378789D01*
X203030Y379470D01*
X203711Y380358D01*
X204139Y381391D01*
X204285Y382500D01*
X204139Y383609D01*
X203711Y384642D01*
X203030Y385530D01*
X202142Y386211D01*
X201109Y386639D01*
X200000Y386785D01*
D02*
G37*
G36*
X160000D02*
X158891Y386639D01*
X157858Y386211D01*
X156970Y385530D01*
X156289Y384642D01*
X155861Y383609D01*
X155715Y382500D01*
X155861Y381391D01*
X156289Y380358D01*
X156970Y379470D01*
X157858Y378789D01*
X158891Y378361D01*
X160000Y378215D01*
X161109Y378361D01*
X162142Y378789D01*
X163030Y379470D01*
X163711Y380358D01*
X164139Y381391D01*
X164285Y382500D01*
X164139Y383609D01*
X163711Y384642D01*
X163030Y385530D01*
X162142Y386211D01*
X161109Y386639D01*
X160000Y386785D01*
D02*
G37*
G36*
X550000Y366785D02*
X548891Y366639D01*
X547858Y366211D01*
X546970Y365530D01*
X546289Y364642D01*
X545861Y363609D01*
X545715Y362500D01*
X545861Y361391D01*
X546289Y360358D01*
X546970Y359470D01*
X547858Y358789D01*
X548891Y358361D01*
X550000Y358215D01*
X551109Y358361D01*
X552142Y358789D01*
X553030Y359470D01*
X553711Y360358D01*
X554139Y361391D01*
X554285Y362500D01*
X554139Y363609D01*
X553711Y364642D01*
X553030Y365530D01*
X552142Y366211D01*
X551109Y366639D01*
X550000Y366785D01*
D02*
G37*
G36*
X510000D02*
X508891Y366639D01*
X507858Y366211D01*
X506970Y365530D01*
X506289Y364642D01*
X505861Y363609D01*
X505715Y362500D01*
X505861Y361391D01*
X506289Y360358D01*
X506970Y359470D01*
X507858Y358789D01*
X508891Y358361D01*
X510000Y358215D01*
X511109Y358361D01*
X512142Y358789D01*
X513030Y359470D01*
X513711Y360358D01*
X514139Y361391D01*
X514285Y362500D01*
X514139Y363609D01*
X513711Y364642D01*
X513030Y365530D01*
X512142Y366211D01*
X511109Y366639D01*
X510000Y366785D01*
D02*
G37*
G36*
X480000D02*
X478891Y366639D01*
X477858Y366211D01*
X476970Y365530D01*
X476289Y364642D01*
X475861Y363609D01*
X475715Y362500D01*
X475861Y361391D01*
X476289Y360358D01*
X476970Y359470D01*
X477858Y358789D01*
X478891Y358361D01*
X480000Y358215D01*
X481109Y358361D01*
X482142Y358789D01*
X483030Y359470D01*
X483711Y360358D01*
X484139Y361391D01*
X484285Y362500D01*
X484139Y363609D01*
X483711Y364642D01*
X483030Y365530D01*
X482142Y366211D01*
X481109Y366639D01*
X480000Y366785D01*
D02*
G37*
G36*
X440000D02*
X438891Y366639D01*
X437858Y366211D01*
X436970Y365530D01*
X436289Y364642D01*
X435861Y363609D01*
X435715Y362500D01*
X435861Y361391D01*
X436289Y360358D01*
X436970Y359470D01*
X437858Y358789D01*
X438891Y358361D01*
X440000Y358215D01*
X441109Y358361D01*
X442142Y358789D01*
X443030Y359470D01*
X443711Y360358D01*
X444139Y361391D01*
X444285Y362500D01*
X444139Y363609D01*
X443711Y364642D01*
X443030Y365530D01*
X442142Y366211D01*
X441109Y366639D01*
X440000Y366785D01*
D02*
G37*
G36*
X410000D02*
X408891Y366639D01*
X407858Y366211D01*
X406970Y365530D01*
X406289Y364642D01*
X405861Y363609D01*
X405715Y362500D01*
X405861Y361391D01*
X406289Y360358D01*
X406970Y359470D01*
X407858Y358789D01*
X408891Y358361D01*
X410000Y358215D01*
X411109Y358361D01*
X412142Y358789D01*
X413030Y359470D01*
X413711Y360358D01*
X414139Y361391D01*
X414285Y362500D01*
X414139Y363609D01*
X413711Y364642D01*
X413030Y365530D01*
X412142Y366211D01*
X411109Y366639D01*
X410000Y366785D01*
D02*
G37*
G36*
X370000D02*
X368891Y366639D01*
X367858Y366211D01*
X366970Y365530D01*
X366289Y364642D01*
X365861Y363609D01*
X365715Y362500D01*
X365861Y361391D01*
X366289Y360358D01*
X366970Y359470D01*
X367858Y358789D01*
X368891Y358361D01*
X370000Y358215D01*
X371109Y358361D01*
X372142Y358789D01*
X373030Y359470D01*
X373711Y360358D01*
X374139Y361391D01*
X374285Y362500D01*
X374139Y363609D01*
X373711Y364642D01*
X373030Y365530D01*
X372142Y366211D01*
X371109Y366639D01*
X370000Y366785D01*
D02*
G37*
G36*
X340000D02*
X338891Y366639D01*
X337858Y366211D01*
X336970Y365530D01*
X336289Y364642D01*
X335861Y363609D01*
X335715Y362500D01*
X335861Y361391D01*
X336289Y360358D01*
X336970Y359470D01*
X337858Y358789D01*
X338891Y358361D01*
X340000Y358215D01*
X341109Y358361D01*
X342142Y358789D01*
X343030Y359470D01*
X343711Y360358D01*
X344139Y361391D01*
X344285Y362500D01*
X344139Y363609D01*
X343711Y364642D01*
X343030Y365530D01*
X342142Y366211D01*
X341109Y366639D01*
X340000Y366785D01*
D02*
G37*
G36*
X300000D02*
X298891Y366639D01*
X297858Y366211D01*
X296970Y365530D01*
X296289Y364642D01*
X295861Y363609D01*
X295715Y362500D01*
X295861Y361391D01*
X296289Y360358D01*
X296970Y359470D01*
X297858Y358789D01*
X298891Y358361D01*
X300000Y358215D01*
X301109Y358361D01*
X302142Y358789D01*
X303030Y359470D01*
X303711Y360358D01*
X304139Y361391D01*
X304285Y362500D01*
X304139Y363609D01*
X303711Y364642D01*
X303030Y365530D01*
X302142Y366211D01*
X301109Y366639D01*
X300000Y366785D01*
D02*
G37*
G36*
X270000D02*
X268891Y366639D01*
X267858Y366211D01*
X266970Y365530D01*
X266289Y364642D01*
X265861Y363609D01*
X265715Y362500D01*
X265861Y361391D01*
X266289Y360358D01*
X266970Y359470D01*
X267858Y358789D01*
X268891Y358361D01*
X270000Y358215D01*
X271109Y358361D01*
X272142Y358789D01*
X273030Y359470D01*
X273711Y360358D01*
X274139Y361391D01*
X274285Y362500D01*
X274139Y363609D01*
X273711Y364642D01*
X273030Y365530D01*
X272142Y366211D01*
X271109Y366639D01*
X270000Y366785D01*
D02*
G37*
G36*
X230000D02*
X228891Y366639D01*
X227858Y366211D01*
X226970Y365530D01*
X226289Y364642D01*
X225861Y363609D01*
X225715Y362500D01*
X225861Y361391D01*
X226289Y360358D01*
X226970Y359470D01*
X227858Y358789D01*
X228891Y358361D01*
X230000Y358215D01*
X231109Y358361D01*
X232142Y358789D01*
X233030Y359470D01*
X233711Y360358D01*
X234139Y361391D01*
X234285Y362500D01*
X234139Y363609D01*
X233711Y364642D01*
X233030Y365530D01*
X232142Y366211D01*
X231109Y366639D01*
X230000Y366785D01*
D02*
G37*
G36*
X160000D02*
X158891Y366639D01*
X157858Y366211D01*
X156970Y365530D01*
X156289Y364642D01*
X155861Y363609D01*
X155715Y362500D01*
X155861Y361391D01*
X156289Y360358D01*
X156970Y359470D01*
X157858Y358789D01*
X158891Y358361D01*
X160000Y358215D01*
X161109Y358361D01*
X162142Y358789D01*
X163030Y359470D01*
X163711Y360358D01*
X164139Y361391D01*
X164285Y362500D01*
X164139Y363609D01*
X163711Y364642D01*
X163030Y365530D01*
X162142Y366211D01*
X161109Y366639D01*
X160000Y366785D01*
D02*
G37*
G36*
X215000Y417280D02*
X214086Y417160D01*
X213235Y416807D01*
X212504Y416246D01*
X211943Y415515D01*
X211590Y414664D01*
X211470Y413750D01*
X211590Y412836D01*
X211943Y411985D01*
X212504Y411254D01*
X212706Y411099D01*
Y405000D01*
Y353692D01*
X212244Y353500D01*
X204164Y361581D01*
X204285Y362500D01*
X204139Y363609D01*
X203711Y364642D01*
X203030Y365530D01*
X202142Y366211D01*
X201109Y366639D01*
X200000Y366785D01*
X198891Y366639D01*
X197858Y366211D01*
X196970Y365530D01*
X196289Y364642D01*
X195861Y363609D01*
X195715Y362500D01*
X195861Y361391D01*
X196289Y360358D01*
X196970Y359470D01*
X197858Y358789D01*
X198891Y358361D01*
X200000Y358215D01*
X200919Y358336D01*
X208956Y350300D01*
Y218450D01*
X154018Y163512D01*
X153520Y162768D01*
X153346Y161890D01*
Y139917D01*
X149472D01*
Y127583D01*
X161807D01*
Y139917D01*
X157934D01*
Y160940D01*
X172569Y175575D01*
X173031Y175383D01*
Y139499D01*
X172953Y139475D01*
X171882Y138903D01*
X170943Y138132D01*
X170172Y137193D01*
X169599Y136122D01*
X169247Y134959D01*
X169128Y133750D01*
X169247Y132541D01*
X169599Y131378D01*
X170172Y130307D01*
X170943Y129368D01*
X171882Y128597D01*
X172953Y128025D01*
X174116Y127672D01*
X175325Y127553D01*
X176534Y127672D01*
X177696Y128025D01*
X178768Y128597D01*
X179707Y129368D01*
X180477Y130307D01*
X181050Y131378D01*
X181403Y132541D01*
X181522Y133750D01*
X181403Y134959D01*
X181050Y136122D01*
X180477Y137193D01*
X179707Y138132D01*
X178768Y138903D01*
X177696Y139475D01*
X177619Y139499D01*
Y175625D01*
X216622Y214628D01*
X217120Y215372D01*
X217206Y215807D01*
X217706Y215757D01*
Y210950D01*
X204628Y197872D01*
X204131Y197128D01*
X203956Y196250D01*
Y145940D01*
X197453Y139437D01*
X197381Y139475D01*
X196219Y139828D01*
X195010Y139947D01*
X193801Y139828D01*
X192638Y139475D01*
X191567Y138903D01*
X190628Y138132D01*
X189857Y137193D01*
X189284Y136122D01*
X188932Y134959D01*
X188813Y133750D01*
X188932Y132541D01*
X189284Y131378D01*
X189857Y130307D01*
X190628Y129368D01*
X191567Y128597D01*
X192638Y128025D01*
X193801Y127672D01*
X195010Y127553D01*
X196219Y127672D01*
X197381Y128025D01*
X198453Y128597D01*
X199392Y129368D01*
X200163Y130307D01*
X200735Y131378D01*
X201088Y132541D01*
X201207Y133750D01*
X201088Y134959D01*
X200735Y136122D01*
X200697Y136193D01*
X207872Y143368D01*
X208369Y144112D01*
X208544Y144990D01*
Y195300D01*
X221622Y208378D01*
X222119Y209122D01*
X222294Y210000D01*
Y329849D01*
X222496Y330004D01*
X223057Y330735D01*
X223410Y331586D01*
X223530Y332500D01*
X223410Y333414D01*
X223057Y334265D01*
X222496Y334996D01*
X221765Y335557D01*
X220914Y335910D01*
X220000Y336030D01*
X219086Y335910D01*
X218235Y335557D01*
X217794Y335219D01*
X217294Y335466D01*
Y405000D01*
Y411099D01*
X217496Y411254D01*
X218057Y411985D01*
X218410Y412836D01*
X218530Y413750D01*
X218410Y414664D01*
X218057Y415515D01*
X217496Y416246D01*
X216765Y416807D01*
X215914Y417160D01*
X215000Y417280D01*
D02*
G37*
G36*
X530000Y350619D02*
X528360Y350490D01*
X526761Y350106D01*
X525242Y349477D01*
X523839Y348617D01*
X522589Y347549D01*
X521521Y346298D01*
X520661Y344896D01*
X520032Y343377D01*
X519648Y341777D01*
X519519Y340138D01*
X519648Y338498D01*
X520032Y336899D01*
X520661Y335380D01*
X521521Y333977D01*
X522589Y332727D01*
X523839Y331658D01*
X525242Y330799D01*
X526761Y330170D01*
X528360Y329786D01*
X530000Y329657D01*
X531640Y329786D01*
X533239Y330170D01*
X534758Y330799D01*
X536161Y331658D01*
X537411Y332727D01*
X538479Y333977D01*
X539339Y335380D01*
X539968Y336899D01*
X540352Y338498D01*
X540481Y340138D01*
X540352Y341777D01*
X539968Y343377D01*
X539339Y344896D01*
X538479Y346298D01*
X537411Y347549D01*
X536161Y348617D01*
X534758Y349477D01*
X533239Y350106D01*
X531640Y350490D01*
X530000Y350619D01*
D02*
G37*
G36*
X460000D02*
X458360Y350490D01*
X456761Y350106D01*
X455242Y349477D01*
X453839Y348617D01*
X452589Y347549D01*
X451521Y346298D01*
X450661Y344896D01*
X450032Y343377D01*
X449648Y341777D01*
X449519Y340138D01*
X449648Y338498D01*
X450032Y336899D01*
X450661Y335380D01*
X451521Y333977D01*
X452589Y332727D01*
X453839Y331658D01*
X455242Y330799D01*
X456761Y330170D01*
X458360Y329786D01*
X460000Y329657D01*
X461640Y329786D01*
X463239Y330170D01*
X464758Y330799D01*
X466161Y331658D01*
X467411Y332727D01*
X468479Y333977D01*
X469339Y335380D01*
X469968Y336899D01*
X470352Y338498D01*
X470481Y340138D01*
X470352Y341777D01*
X469968Y343377D01*
X469339Y344896D01*
X468479Y346298D01*
X467411Y347549D01*
X466161Y348617D01*
X464758Y349477D01*
X463239Y350106D01*
X461640Y350490D01*
X460000Y350619D01*
D02*
G37*
G36*
X390000D02*
X388360Y350490D01*
X386761Y350106D01*
X385242Y349477D01*
X383839Y348617D01*
X382589Y347549D01*
X381521Y346298D01*
X380661Y344896D01*
X380032Y343377D01*
X379648Y341777D01*
X379519Y340138D01*
X379648Y338498D01*
X380032Y336899D01*
X380661Y335380D01*
X381521Y333977D01*
X382589Y332727D01*
X383839Y331658D01*
X385242Y330799D01*
X386761Y330170D01*
X388360Y329786D01*
X390000Y329657D01*
X391640Y329786D01*
X393239Y330170D01*
X394758Y330799D01*
X396161Y331658D01*
X397411Y332727D01*
X398479Y333977D01*
X399339Y335380D01*
X399968Y336899D01*
X400352Y338498D01*
X400481Y340138D01*
X400352Y341777D01*
X399968Y343377D01*
X399339Y344896D01*
X398479Y346298D01*
X397411Y347549D01*
X396161Y348617D01*
X394758Y349477D01*
X393239Y350106D01*
X391640Y350490D01*
X390000Y350619D01*
D02*
G37*
G36*
X320000D02*
X318360Y350490D01*
X316761Y350106D01*
X315242Y349477D01*
X313839Y348617D01*
X312589Y347549D01*
X311521Y346298D01*
X310661Y344896D01*
X310032Y343377D01*
X309648Y341777D01*
X309519Y340138D01*
X309648Y338498D01*
X310032Y336899D01*
X310661Y335380D01*
X311521Y333977D01*
X312589Y332727D01*
X313839Y331658D01*
X315242Y330799D01*
X316761Y330170D01*
X318360Y329786D01*
X320000Y329657D01*
X321640Y329786D01*
X323239Y330170D01*
X324758Y330799D01*
X326161Y331658D01*
X327411Y332727D01*
X328479Y333977D01*
X329339Y335380D01*
X329968Y336899D01*
X330352Y338498D01*
X330481Y340138D01*
X330352Y341777D01*
X329968Y343377D01*
X329339Y344896D01*
X328479Y346298D01*
X327411Y347549D01*
X326161Y348617D01*
X324758Y349477D01*
X323239Y350106D01*
X321640Y350490D01*
X320000Y350619D01*
D02*
G37*
G36*
X250000D02*
X248360Y350490D01*
X246761Y350106D01*
X245242Y349477D01*
X243839Y348617D01*
X242589Y347549D01*
X241521Y346298D01*
X240661Y344896D01*
X240032Y343377D01*
X239648Y341777D01*
X239519Y340138D01*
X239648Y338498D01*
X240032Y336899D01*
X240661Y335380D01*
X241521Y333977D01*
X242589Y332727D01*
X243839Y331658D01*
X245242Y330799D01*
X246761Y330170D01*
X248360Y329786D01*
X250000Y329657D01*
X251640Y329786D01*
X253239Y330170D01*
X254758Y330799D01*
X256161Y331658D01*
X257411Y332727D01*
X258479Y333977D01*
X259339Y335380D01*
X259968Y336899D01*
X260352Y338498D01*
X260481Y340138D01*
X260352Y341777D01*
X259968Y343377D01*
X259339Y344896D01*
X258479Y346298D01*
X257411Y347549D01*
X256161Y348617D01*
X254758Y349477D01*
X253239Y350106D01*
X251640Y350490D01*
X250000Y350619D01*
D02*
G37*
G36*
X180000D02*
X178360Y350490D01*
X176761Y350106D01*
X175242Y349477D01*
X173839Y348617D01*
X172589Y347549D01*
X171521Y346298D01*
X170661Y344896D01*
X170032Y343377D01*
X169648Y341777D01*
X169519Y340138D01*
X169648Y338498D01*
X170032Y336899D01*
X170661Y335380D01*
X171521Y333977D01*
X172589Y332727D01*
X173839Y331658D01*
X175242Y330799D01*
X176761Y330170D01*
X178360Y329786D01*
X180000Y329657D01*
X181640Y329786D01*
X183239Y330170D01*
X184758Y330799D01*
X186161Y331658D01*
X187411Y332727D01*
X188479Y333977D01*
X189339Y335380D01*
X189968Y336899D01*
X190352Y338498D01*
X190481Y340138D01*
X190352Y341777D01*
X189968Y343377D01*
X189339Y344896D01*
X188479Y346298D01*
X187411Y347549D01*
X186161Y348617D01*
X184758Y349477D01*
X183239Y350106D01*
X181640Y350490D01*
X180000Y350619D01*
D02*
G37*
G36*
X550000Y321785D02*
X548891Y321639D01*
X547858Y321211D01*
X546970Y320530D01*
X546289Y319642D01*
X545861Y318609D01*
X545715Y317500D01*
X545861Y316391D01*
X546289Y315358D01*
X546970Y314470D01*
X547858Y313789D01*
X548891Y313361D01*
X550000Y313215D01*
X551109Y313361D01*
X552142Y313789D01*
X553030Y314470D01*
X553711Y315358D01*
X554139Y316391D01*
X554285Y317500D01*
X554139Y318609D01*
X553711Y319642D01*
X553030Y320530D01*
X552142Y321211D01*
X551109Y321639D01*
X550000Y321785D01*
D02*
G37*
G36*
X480000D02*
X478891Y321639D01*
X477858Y321211D01*
X476970Y320530D01*
X476289Y319642D01*
X475861Y318609D01*
X475715Y317500D01*
X475861Y316391D01*
X476289Y315358D01*
X476970Y314470D01*
X477858Y313789D01*
X478891Y313361D01*
X480000Y313215D01*
X481109Y313361D01*
X482142Y313789D01*
X483030Y314470D01*
X483711Y315358D01*
X484139Y316391D01*
X484285Y317500D01*
X484139Y318609D01*
X483711Y319642D01*
X483030Y320530D01*
X482142Y321211D01*
X481109Y321639D01*
X480000Y321785D01*
D02*
G37*
G36*
X410000D02*
X408891Y321639D01*
X407858Y321211D01*
X406970Y320530D01*
X406289Y319642D01*
X405861Y318609D01*
X405715Y317500D01*
X405861Y316391D01*
X406289Y315358D01*
X406970Y314470D01*
X407858Y313789D01*
X408891Y313361D01*
X410000Y313215D01*
X411109Y313361D01*
X412142Y313789D01*
X413030Y314470D01*
X413711Y315358D01*
X414139Y316391D01*
X414285Y317500D01*
X414139Y318609D01*
X413711Y319642D01*
X413030Y320530D01*
X412142Y321211D01*
X411109Y321639D01*
X410000Y321785D01*
D02*
G37*
G36*
X340000D02*
X338891Y321639D01*
X337858Y321211D01*
X336970Y320530D01*
X336289Y319642D01*
X335861Y318609D01*
X335715Y317500D01*
X335861Y316391D01*
X336289Y315358D01*
X336970Y314470D01*
X337858Y313789D01*
X338891Y313361D01*
X340000Y313215D01*
X341109Y313361D01*
X342142Y313789D01*
X343030Y314470D01*
X343711Y315358D01*
X344139Y316391D01*
X344285Y317500D01*
X344139Y318609D01*
X343711Y319642D01*
X343030Y320530D01*
X342142Y321211D01*
X341109Y321639D01*
X340000Y321785D01*
D02*
G37*
G36*
X270000D02*
X268891Y321639D01*
X267858Y321211D01*
X266970Y320530D01*
X266289Y319642D01*
X265861Y318609D01*
X265715Y317500D01*
X265861Y316391D01*
X266289Y315358D01*
X266970Y314470D01*
X267858Y313789D01*
X268891Y313361D01*
X270000Y313215D01*
X271109Y313361D01*
X272142Y313789D01*
X273030Y314470D01*
X273711Y315358D01*
X274139Y316391D01*
X274285Y317500D01*
X274139Y318609D01*
X273711Y319642D01*
X273030Y320530D01*
X272142Y321211D01*
X271109Y321639D01*
X270000Y321785D01*
D02*
G37*
G36*
X200000D02*
X198891Y321639D01*
X197858Y321211D01*
X196970Y320530D01*
X196289Y319642D01*
X195861Y318609D01*
X195715Y317500D01*
X195861Y316391D01*
X196289Y315358D01*
X196970Y314470D01*
X197858Y313789D01*
X198891Y313361D01*
X200000Y313215D01*
X201109Y313361D01*
X202142Y313789D01*
X203030Y314470D01*
X203711Y315358D01*
X204139Y316391D01*
X204285Y317500D01*
X204139Y318609D01*
X203711Y319642D01*
X203030Y320530D01*
X202142Y321211D01*
X201109Y321639D01*
X200000Y321785D01*
D02*
G37*
G36*
X550000Y301785D02*
X548891Y301639D01*
X547858Y301211D01*
X546970Y300530D01*
X546289Y299642D01*
X545861Y298609D01*
X545715Y297500D01*
X545861Y296391D01*
X546289Y295358D01*
X546970Y294470D01*
X547858Y293789D01*
X548891Y293361D01*
X550000Y293215D01*
X551109Y293361D01*
X552142Y293789D01*
X553030Y294470D01*
X553711Y295358D01*
X554139Y296391D01*
X554285Y297500D01*
X554139Y298609D01*
X553711Y299642D01*
X553030Y300530D01*
X552142Y301211D01*
X551109Y301639D01*
X550000Y301785D01*
D02*
G37*
G36*
X510000D02*
X508891Y301639D01*
X507858Y301211D01*
X506970Y300530D01*
X506289Y299642D01*
X505861Y298609D01*
X505715Y297500D01*
X505861Y296391D01*
X506289Y295358D01*
X506970Y294470D01*
X507858Y293789D01*
X508891Y293361D01*
X510000Y293215D01*
X511109Y293361D01*
X512142Y293789D01*
X513030Y294470D01*
X513711Y295358D01*
X514139Y296391D01*
X514285Y297500D01*
X514139Y298609D01*
X513711Y299642D01*
X513030Y300530D01*
X512142Y301211D01*
X511109Y301639D01*
X510000Y301785D01*
D02*
G37*
G36*
X480000D02*
X478891Y301639D01*
X477858Y301211D01*
X476970Y300530D01*
X476289Y299642D01*
X475861Y298609D01*
X475715Y297500D01*
X475861Y296391D01*
X476289Y295358D01*
X476970Y294470D01*
X477858Y293789D01*
X478891Y293361D01*
X480000Y293215D01*
X481109Y293361D01*
X482142Y293789D01*
X483030Y294470D01*
X483711Y295358D01*
X484139Y296391D01*
X484285Y297500D01*
X484139Y298609D01*
X483711Y299642D01*
X483030Y300530D01*
X482142Y301211D01*
X481109Y301639D01*
X480000Y301785D01*
D02*
G37*
G36*
X440000D02*
X438891Y301639D01*
X437858Y301211D01*
X436970Y300530D01*
X436289Y299642D01*
X435861Y298609D01*
X435715Y297500D01*
X435861Y296391D01*
X436289Y295358D01*
X436970Y294470D01*
X437858Y293789D01*
X438891Y293361D01*
X440000Y293215D01*
X441109Y293361D01*
X442142Y293789D01*
X443030Y294470D01*
X443711Y295358D01*
X444139Y296391D01*
X444285Y297500D01*
X444139Y298609D01*
X443711Y299642D01*
X443030Y300530D01*
X442142Y301211D01*
X441109Y301639D01*
X440000Y301785D01*
D02*
G37*
G36*
X410000D02*
X408891Y301639D01*
X407858Y301211D01*
X406970Y300530D01*
X406289Y299642D01*
X405861Y298609D01*
X405715Y297500D01*
X405861Y296391D01*
X406289Y295358D01*
X406970Y294470D01*
X407858Y293789D01*
X408891Y293361D01*
X410000Y293215D01*
X411109Y293361D01*
X412142Y293789D01*
X413030Y294470D01*
X413711Y295358D01*
X414139Y296391D01*
X414285Y297500D01*
X414139Y298609D01*
X413711Y299642D01*
X413030Y300530D01*
X412142Y301211D01*
X411109Y301639D01*
X410000Y301785D01*
D02*
G37*
G36*
X370000D02*
X368891Y301639D01*
X367858Y301211D01*
X366970Y300530D01*
X366289Y299642D01*
X365861Y298609D01*
X365715Y297500D01*
X365861Y296391D01*
X366289Y295358D01*
X366970Y294470D01*
X367858Y293789D01*
X368891Y293361D01*
X370000Y293215D01*
X371109Y293361D01*
X372142Y293789D01*
X373030Y294470D01*
X373711Y295358D01*
X374139Y296391D01*
X374285Y297500D01*
X374139Y298609D01*
X373711Y299642D01*
X373030Y300530D01*
X372142Y301211D01*
X371109Y301639D01*
X370000Y301785D01*
D02*
G37*
G36*
X340000D02*
X338891Y301639D01*
X337858Y301211D01*
X336970Y300530D01*
X336289Y299642D01*
X335861Y298609D01*
X335715Y297500D01*
X335861Y296391D01*
X336289Y295358D01*
X336970Y294470D01*
X337858Y293789D01*
X338891Y293361D01*
X340000Y293215D01*
X341109Y293361D01*
X342142Y293789D01*
X343030Y294470D01*
X343711Y295358D01*
X344139Y296391D01*
X344285Y297500D01*
X344139Y298609D01*
X343711Y299642D01*
X343030Y300530D01*
X342142Y301211D01*
X341109Y301639D01*
X340000Y301785D01*
D02*
G37*
G36*
X300000D02*
X298891Y301639D01*
X297858Y301211D01*
X296970Y300530D01*
X296289Y299642D01*
X295861Y298609D01*
X295715Y297500D01*
X295836Y296581D01*
X289628Y290372D01*
X289130Y289628D01*
X288956Y288750D01*
Y228750D01*
X289130Y227872D01*
X289628Y227128D01*
X295206Y221550D01*
Y202974D01*
X294821Y202679D01*
X294219Y201894D01*
X293841Y200980D01*
X293712Y200000D01*
X293841Y199020D01*
X294219Y198106D01*
X294821Y197321D01*
X295606Y196719D01*
X296519Y196341D01*
X297500Y196212D01*
X298481Y196341D01*
X299394Y196719D01*
X300179Y197321D01*
X300781Y198106D01*
X301159Y199020D01*
X301288Y200000D01*
X301159Y200980D01*
X300781Y201894D01*
X300179Y202679D01*
X299794Y202974D01*
Y222500D01*
X299620Y223378D01*
X299122Y224122D01*
X293544Y229700D01*
Y287800D01*
X299081Y293336D01*
X300000Y293215D01*
X301109Y293361D01*
X302142Y293789D01*
X303030Y294470D01*
X303711Y295358D01*
X304139Y296391D01*
X304285Y297500D01*
X304139Y298609D01*
X303711Y299642D01*
X303030Y300530D01*
X302142Y301211D01*
X301109Y301639D01*
X300000Y301785D01*
D02*
G37*
G36*
X270000D02*
X268891Y301639D01*
X267858Y301211D01*
X266970Y300530D01*
X266289Y299642D01*
X265861Y298609D01*
X265715Y297500D01*
X265861Y296391D01*
X266289Y295358D01*
X266970Y294470D01*
X267858Y293789D01*
X268891Y293361D01*
X270000Y293215D01*
X271109Y293361D01*
X272142Y293789D01*
X273030Y294470D01*
X273711Y295358D01*
X274139Y296391D01*
X274285Y297500D01*
X274139Y298609D01*
X273711Y299642D01*
X273030Y300530D01*
X272142Y301211D01*
X271109Y301639D01*
X270000Y301785D01*
D02*
G37*
G36*
X230000D02*
X228891Y301639D01*
X227858Y301211D01*
X226970Y300530D01*
X226289Y299642D01*
X225861Y298609D01*
X225715Y297500D01*
X225861Y296391D01*
X226289Y295358D01*
X226970Y294470D01*
X227858Y293789D01*
X228891Y293361D01*
X230000Y293215D01*
X231109Y293361D01*
X232142Y293789D01*
X233030Y294470D01*
X233711Y295358D01*
X234139Y296391D01*
X234285Y297500D01*
X234139Y298609D01*
X233711Y299642D01*
X233030Y300530D01*
X232142Y301211D01*
X231109Y301639D01*
X230000Y301785D01*
D02*
G37*
G36*
X200000D02*
X198891Y301639D01*
X197858Y301211D01*
X196970Y300530D01*
X196289Y299642D01*
X195861Y298609D01*
X195715Y297500D01*
X195861Y296391D01*
X196289Y295358D01*
X196970Y294470D01*
X197858Y293789D01*
X198891Y293361D01*
X200000Y293215D01*
X201109Y293361D01*
X202142Y293789D01*
X203030Y294470D01*
X203711Y295358D01*
X204139Y296391D01*
X204285Y297500D01*
X204139Y298609D01*
X203711Y299642D01*
X203030Y300530D01*
X202142Y301211D01*
X201109Y301639D01*
X200000Y301785D01*
D02*
G37*
G36*
X160000D02*
X158891Y301639D01*
X157858Y301211D01*
X156970Y300530D01*
X156289Y299642D01*
X155861Y298609D01*
X155715Y297500D01*
X155861Y296391D01*
X156289Y295358D01*
X156970Y294470D01*
X157858Y293789D01*
X158891Y293361D01*
X160000Y293215D01*
X161109Y293361D01*
X162142Y293789D01*
X163030Y294470D01*
X163711Y295358D01*
X164139Y296391D01*
X164285Y297500D01*
X164139Y298609D01*
X163711Y299642D01*
X163030Y300530D01*
X162142Y301211D01*
X161109Y301639D01*
X160000Y301785D01*
D02*
G37*
G36*
X230000Y321785D02*
X228891Y321639D01*
X227858Y321211D01*
X226970Y320530D01*
X226289Y319642D01*
X225861Y318609D01*
X225715Y317500D01*
X225861Y316391D01*
X226289Y315358D01*
X226970Y314470D01*
X227858Y313789D01*
X228891Y313361D01*
X230000Y313215D01*
X230919Y313336D01*
X246456Y297800D01*
Y291401D01*
X246254Y291246D01*
X245693Y290515D01*
X245340Y289664D01*
X245220Y288750D01*
X245340Y287836D01*
X245693Y286985D01*
X246254Y286254D01*
X246985Y285693D01*
X247836Y285340D01*
X248750Y285220D01*
X249664Y285340D01*
X250515Y285693D01*
X251246Y286254D01*
X251807Y286985D01*
X252160Y287836D01*
X252280Y288750D01*
X252160Y289664D01*
X251807Y290515D01*
X251246Y291246D01*
X251044Y291401D01*
Y298750D01*
X250869Y299628D01*
X250372Y300372D01*
X234164Y316581D01*
X234285Y317500D01*
X234139Y318609D01*
X233711Y319642D01*
X233030Y320530D01*
X232142Y321211D01*
X231109Y321639D01*
X230000Y321785D01*
D02*
G37*
G36*
X300000D02*
X298891Y321639D01*
X297858Y321211D01*
X296970Y320530D01*
X296289Y319642D01*
X295861Y318609D01*
X295715Y317500D01*
X295861Y316391D01*
X296289Y315358D01*
X296970Y314470D01*
X297858Y313789D01*
X298891Y313361D01*
X300000Y313215D01*
X300919Y313336D01*
X326503Y287753D01*
X326470Y287500D01*
X326590Y286586D01*
X326943Y285735D01*
X327504Y285004D01*
X328235Y284443D01*
X329086Y284090D01*
X330000Y283970D01*
X330914Y284090D01*
X331765Y284443D01*
X332496Y285004D01*
X333057Y285735D01*
X333410Y286586D01*
X333530Y287500D01*
X333410Y288414D01*
X333057Y289265D01*
X332496Y289996D01*
X331765Y290557D01*
X330914Y290910D01*
X330000Y291030D01*
X329747Y290997D01*
X304164Y316581D01*
X304285Y317500D01*
X304139Y318609D01*
X303711Y319642D01*
X303030Y320530D01*
X302142Y321211D01*
X301109Y321639D01*
X300000Y321785D01*
D02*
G37*
G36*
X160000D02*
X158891Y321639D01*
X157858Y321211D01*
X156970Y320530D01*
X156289Y319642D01*
X155861Y318609D01*
X155715Y317500D01*
X155861Y316391D01*
X156289Y315358D01*
X156970Y314470D01*
X157858Y313789D01*
X158891Y313361D01*
X160000Y313215D01*
X160919Y313336D01*
X172706Y301550D01*
Y277500D01*
X172880Y276622D01*
X173378Y275878D01*
X186503Y262753D01*
X186470Y262500D01*
X186590Y261586D01*
X186943Y260735D01*
X187504Y260004D01*
X188235Y259443D01*
X189086Y259090D01*
X190000Y258970D01*
X190914Y259090D01*
X191765Y259443D01*
X192496Y260004D01*
X193057Y260735D01*
X193410Y261586D01*
X193530Y262500D01*
X193410Y263414D01*
X193057Y264265D01*
X192496Y264996D01*
X191765Y265557D01*
X190914Y265910D01*
X190000Y266030D01*
X189747Y265997D01*
X177294Y278450D01*
Y302500D01*
X177120Y303378D01*
X176622Y304122D01*
X164164Y316581D01*
X164285Y317500D01*
X164139Y318609D01*
X163711Y319642D01*
X163030Y320530D01*
X162142Y321211D01*
X161109Y321639D01*
X160000Y321785D01*
D02*
G37*
G36*
X402500Y262280D02*
X401586Y262160D01*
X400735Y261807D01*
X400004Y261246D01*
X399443Y260515D01*
X399090Y259664D01*
X398970Y258750D01*
X399090Y257836D01*
X399443Y256985D01*
X400004Y256254D01*
X400735Y255693D01*
X401586Y255340D01*
X402500Y255220D01*
X402753Y255253D01*
X410825Y247180D01*
X410592Y246707D01*
X410000Y246785D01*
X408891Y246639D01*
X407858Y246211D01*
X406970Y245530D01*
X406289Y244642D01*
X405861Y243609D01*
X405715Y242500D01*
X405861Y241391D01*
X406289Y240358D01*
X406970Y239470D01*
X407706Y238906D01*
Y154080D01*
X391803Y138177D01*
X390620Y138332D01*
X389434Y138176D01*
X388329Y137719D01*
X387380Y136990D01*
X386651Y136041D01*
X386194Y134936D01*
X386038Y133750D01*
X386194Y132564D01*
X386651Y131459D01*
X387380Y130510D01*
X388329Y129781D01*
X389434Y129324D01*
X390620Y129167D01*
X391806Y129324D01*
X392911Y129781D01*
X393860Y130510D01*
X394589Y131459D01*
X395046Y132564D01*
X395203Y133750D01*
X395047Y134932D01*
X411622Y151508D01*
X412119Y152252D01*
X412294Y153130D01*
Y238906D01*
X413030Y239470D01*
X413711Y240358D01*
X414139Y241391D01*
X414285Y242500D01*
X414207Y243092D01*
X414680Y243325D01*
X482391Y175615D01*
Y137716D01*
X481445Y136990D01*
X480717Y136041D01*
X480259Y134936D01*
X480102Y133750D01*
X480259Y132564D01*
X480717Y131459D01*
X481445Y130510D01*
X482394Y129781D01*
X483499Y129324D01*
X484685Y129167D01*
X485871Y129324D01*
X486976Y129781D01*
X487925Y130510D01*
X488654Y131459D01*
X489111Y132564D01*
X489267Y133750D01*
X489111Y134936D01*
X488654Y136041D01*
X487925Y136990D01*
X486979Y137716D01*
Y176565D01*
X486804Y177443D01*
X486307Y178187D01*
X405997Y258497D01*
X406030Y258750D01*
X405910Y259664D01*
X405557Y260515D01*
X404996Y261246D01*
X404265Y261807D01*
X403414Y262160D01*
X402500Y262280D01*
D02*
G37*
G36*
X370000Y321785D02*
X368891Y321639D01*
X367858Y321211D01*
X366970Y320530D01*
X366289Y319642D01*
X365861Y318609D01*
X365715Y317500D01*
X365861Y316391D01*
X366289Y315358D01*
X366970Y314470D01*
X367858Y313789D01*
X368891Y313361D01*
X370000Y313215D01*
X370919Y313336D01*
X405878Y278378D01*
X406622Y277881D01*
X407500Y277706D01*
X451550D01*
X483313Y245942D01*
X482983Y245566D01*
X482699Y245784D01*
X482142Y246211D01*
X481109Y246639D01*
X480000Y246785D01*
X478891Y246639D01*
X477858Y246211D01*
X476970Y245530D01*
X476289Y244642D01*
X475861Y243609D01*
X475715Y242500D01*
X475861Y241391D01*
X476289Y240358D01*
X476970Y239470D01*
X477858Y238789D01*
X478891Y238361D01*
X480000Y238215D01*
X481109Y238361D01*
X482142Y238789D01*
X483030Y239470D01*
X483711Y240358D01*
X484139Y241391D01*
X484285Y242500D01*
X484139Y243609D01*
X483711Y244642D01*
X483284Y245199D01*
X483066Y245483D01*
X483442Y245813D01*
X521761Y207495D01*
Y137716D01*
X520815Y136990D01*
X520087Y136041D01*
X519629Y134936D01*
X519473Y133750D01*
X519629Y132564D01*
X520087Y131459D01*
X520815Y130510D01*
X521764Y129781D01*
X522869Y129324D01*
X524055Y129167D01*
X525241Y129324D01*
X526346Y129781D01*
X527295Y130510D01*
X528024Y131459D01*
X528481Y132564D01*
X528638Y133750D01*
X528481Y134936D01*
X528024Y136041D01*
X527295Y136990D01*
X526349Y137716D01*
Y208445D01*
X526175Y209323D01*
X525677Y210067D01*
X454122Y281622D01*
X453378Y282119D01*
X452500Y282294D01*
X408450D01*
X374164Y316581D01*
X374285Y317500D01*
X374139Y318609D01*
X373711Y319642D01*
X373030Y320530D01*
X372142Y321211D01*
X371109Y321639D01*
X370000Y321785D01*
D02*
G37*
G36*
X550000Y246785D02*
X548891Y246639D01*
X547858Y246211D01*
X546970Y245530D01*
X546289Y244642D01*
X545861Y243609D01*
X545715Y242500D01*
X545861Y241391D01*
X546289Y240358D01*
X546970Y239470D01*
X547858Y238789D01*
X548891Y238361D01*
X550000Y238215D01*
X551109Y238361D01*
X552142Y238789D01*
X553030Y239470D01*
X553711Y240358D01*
X554139Y241391D01*
X554285Y242500D01*
X554139Y243609D01*
X553711Y244642D01*
X553030Y245530D01*
X552142Y246211D01*
X551109Y246639D01*
X550000Y246785D01*
D02*
G37*
G36*
X510000D02*
X508891Y246639D01*
X507858Y246211D01*
X506970Y245530D01*
X506289Y244642D01*
X505861Y243609D01*
X505715Y242500D01*
X505861Y241391D01*
X506289Y240358D01*
X506970Y239470D01*
X507858Y238789D01*
X508891Y238361D01*
X510000Y238215D01*
X511109Y238361D01*
X512142Y238789D01*
X513030Y239470D01*
X513711Y240358D01*
X514139Y241391D01*
X514285Y242500D01*
X514139Y243609D01*
X513711Y244642D01*
X513030Y245530D01*
X512142Y246211D01*
X511109Y246639D01*
X510000Y246785D01*
D02*
G37*
G36*
X440000D02*
X438891Y246639D01*
X437858Y246211D01*
X436970Y245530D01*
X436289Y244642D01*
X435861Y243609D01*
X435715Y242500D01*
X435861Y241391D01*
X436289Y240358D01*
X436970Y239470D01*
X437858Y238789D01*
X438891Y238361D01*
X440000Y238215D01*
X441109Y238361D01*
X442142Y238789D01*
X443030Y239470D01*
X443711Y240358D01*
X444139Y241391D01*
X444285Y242500D01*
X444139Y243609D01*
X443711Y244642D01*
X443030Y245530D01*
X442142Y246211D01*
X441109Y246639D01*
X440000Y246785D01*
D02*
G37*
G36*
X370000D02*
X368891Y246639D01*
X367858Y246211D01*
X366970Y245530D01*
X366289Y244642D01*
X365861Y243609D01*
X365715Y242500D01*
X365861Y241391D01*
X366289Y240358D01*
X366970Y239470D01*
X367858Y238789D01*
X368891Y238361D01*
X370000Y238215D01*
X371109Y238361D01*
X372142Y238789D01*
X373030Y239470D01*
X373711Y240358D01*
X374139Y241391D01*
X374285Y242500D01*
X374139Y243609D01*
X373711Y244642D01*
X373030Y245530D01*
X372142Y246211D01*
X371109Y246639D01*
X370000Y246785D01*
D02*
G37*
G36*
X300000D02*
X298891Y246639D01*
X297858Y246211D01*
X296970Y245530D01*
X296289Y244642D01*
X295861Y243609D01*
X295715Y242500D01*
X295861Y241391D01*
X296289Y240358D01*
X296970Y239470D01*
X297858Y238789D01*
X298891Y238361D01*
X300000Y238215D01*
X301109Y238361D01*
X302142Y238789D01*
X303030Y239470D01*
X303711Y240358D01*
X304139Y241391D01*
X304285Y242500D01*
X304139Y243609D01*
X303711Y244642D01*
X303030Y245530D01*
X302142Y246211D01*
X301109Y246639D01*
X300000Y246785D01*
D02*
G37*
G36*
X270000D02*
X268891Y246639D01*
X267858Y246211D01*
X266970Y245530D01*
X266289Y244642D01*
X265861Y243609D01*
X265715Y242500D01*
X265861Y241391D01*
X266289Y240358D01*
X266970Y239470D01*
X267858Y238789D01*
X268891Y238361D01*
X270000Y238215D01*
X271109Y238361D01*
X272142Y238789D01*
X273030Y239470D01*
X273711Y240358D01*
X274139Y241391D01*
X274285Y242500D01*
X274139Y243609D01*
X273711Y244642D01*
X273030Y245530D01*
X272142Y246211D01*
X271109Y246639D01*
X270000Y246785D01*
D02*
G37*
G36*
X230000D02*
X228891Y246639D01*
X227858Y246211D01*
X226970Y245530D01*
X226289Y244642D01*
X225861Y243609D01*
X225715Y242500D01*
X225861Y241391D01*
X226289Y240358D01*
X226970Y239470D01*
X227858Y238789D01*
X228891Y238361D01*
X230000Y238215D01*
X231109Y238361D01*
X232142Y238789D01*
X233030Y239470D01*
X233711Y240358D01*
X234139Y241391D01*
X234285Y242500D01*
X234139Y243609D01*
X233711Y244642D01*
X233030Y245530D01*
X232142Y246211D01*
X231109Y246639D01*
X230000Y246785D01*
D02*
G37*
G36*
X200000D02*
X198891Y246639D01*
X197858Y246211D01*
X196970Y245530D01*
X196289Y244642D01*
X195861Y243609D01*
X195715Y242500D01*
X195861Y241391D01*
X196289Y240358D01*
X196970Y239470D01*
X197858Y238789D01*
X198891Y238361D01*
X200000Y238215D01*
X201109Y238361D01*
X202142Y238789D01*
X203030Y239470D01*
X203711Y240358D01*
X204139Y241391D01*
X204285Y242500D01*
X204139Y243609D01*
X203711Y244642D01*
X203030Y245530D01*
X202142Y246211D01*
X201109Y246639D01*
X200000Y246785D01*
D02*
G37*
G36*
X160000D02*
X158891Y246639D01*
X157858Y246211D01*
X156970Y245530D01*
X156289Y244642D01*
X155861Y243609D01*
X155715Y242500D01*
X155861Y241391D01*
X156289Y240358D01*
X156970Y239470D01*
X157858Y238789D01*
X158891Y238361D01*
X160000Y238215D01*
X161109Y238361D01*
X162142Y238789D01*
X163030Y239470D01*
X163711Y240358D01*
X164139Y241391D01*
X164285Y242500D01*
X164139Y243609D01*
X163711Y244642D01*
X163030Y245530D01*
X162142Y246211D01*
X161109Y246639D01*
X160000Y246785D01*
D02*
G37*
G36*
X530000Y236839D02*
X528360Y236710D01*
X526761Y236326D01*
X525242Y235697D01*
X523839Y234838D01*
X522589Y233769D01*
X521521Y232519D01*
X520661Y231117D01*
X520032Y229597D01*
X519648Y227998D01*
X519519Y226358D01*
X519648Y224719D01*
X520032Y223119D01*
X520661Y221600D01*
X521521Y220198D01*
X522589Y218947D01*
X523839Y217879D01*
X525242Y217020D01*
X526761Y216390D01*
X528360Y216006D01*
X530000Y215877D01*
X531640Y216006D01*
X533239Y216390D01*
X534758Y217020D01*
X536161Y217879D01*
X537411Y218947D01*
X538479Y220198D01*
X539339Y221600D01*
X539968Y223119D01*
X540352Y224719D01*
X540481Y226358D01*
X540352Y227998D01*
X539968Y229597D01*
X539339Y231117D01*
X538479Y232519D01*
X537411Y233769D01*
X536161Y234838D01*
X534758Y235697D01*
X533239Y236326D01*
X531640Y236710D01*
X530000Y236839D01*
D02*
G37*
G36*
X460000D02*
X458360Y236710D01*
X456761Y236326D01*
X455242Y235697D01*
X453839Y234838D01*
X452589Y233769D01*
X451521Y232519D01*
X450661Y231117D01*
X450032Y229597D01*
X449648Y227998D01*
X449519Y226358D01*
X449648Y224719D01*
X450032Y223119D01*
X450661Y221600D01*
X451521Y220198D01*
X452589Y218947D01*
X453839Y217879D01*
X455242Y217020D01*
X456761Y216390D01*
X458360Y216006D01*
X460000Y215877D01*
X461640Y216006D01*
X463239Y216390D01*
X464758Y217020D01*
X466161Y217879D01*
X467411Y218947D01*
X468479Y220198D01*
X469339Y221600D01*
X469968Y223119D01*
X470352Y224719D01*
X470481Y226358D01*
X470352Y227998D01*
X469968Y229597D01*
X469339Y231117D01*
X468479Y232519D01*
X467411Y233769D01*
X466161Y234838D01*
X464758Y235697D01*
X463239Y236326D01*
X461640Y236710D01*
X460000Y236839D01*
D02*
G37*
G36*
X390000D02*
X388360Y236710D01*
X386761Y236326D01*
X385242Y235697D01*
X383839Y234838D01*
X382589Y233769D01*
X381521Y232519D01*
X380661Y231117D01*
X380032Y229597D01*
X379648Y227998D01*
X379519Y226358D01*
X379648Y224719D01*
X380032Y223119D01*
X380661Y221600D01*
X381521Y220198D01*
X382589Y218947D01*
X383839Y217879D01*
X385242Y217020D01*
X386761Y216390D01*
X388360Y216006D01*
X390000Y215877D01*
X391640Y216006D01*
X393239Y216390D01*
X394758Y217020D01*
X396161Y217879D01*
X397411Y218947D01*
X398479Y220198D01*
X399339Y221600D01*
X399968Y223119D01*
X400352Y224719D01*
X400481Y226358D01*
X400352Y227998D01*
X399968Y229597D01*
X399339Y231117D01*
X398479Y232519D01*
X397411Y233769D01*
X396161Y234838D01*
X394758Y235697D01*
X393239Y236326D01*
X391640Y236710D01*
X390000Y236839D01*
D02*
G37*
G36*
X320000D02*
X318360Y236710D01*
X316761Y236326D01*
X315242Y235697D01*
X313839Y234838D01*
X312589Y233769D01*
X311521Y232519D01*
X310661Y231117D01*
X310032Y229597D01*
X309648Y227998D01*
X309519Y226358D01*
X309648Y224719D01*
X310032Y223119D01*
X310661Y221600D01*
X311521Y220198D01*
X312589Y218947D01*
X313839Y217879D01*
X315242Y217020D01*
X316761Y216390D01*
X318360Y216006D01*
X320000Y215877D01*
X321640Y216006D01*
X323239Y216390D01*
X324758Y217020D01*
X326161Y217879D01*
X327411Y218947D01*
X328479Y220198D01*
X329339Y221600D01*
X329968Y223119D01*
X330352Y224719D01*
X330481Y226358D01*
X330352Y227998D01*
X329968Y229597D01*
X329339Y231117D01*
X328479Y232519D01*
X327411Y233769D01*
X326161Y234838D01*
X324758Y235697D01*
X323239Y236326D01*
X321640Y236710D01*
X320000Y236839D01*
D02*
G37*
G36*
X250000D02*
X248360Y236710D01*
X246761Y236326D01*
X245242Y235697D01*
X243839Y234838D01*
X242589Y233769D01*
X241521Y232519D01*
X240661Y231117D01*
X240032Y229597D01*
X239648Y227998D01*
X239519Y226358D01*
X239648Y224719D01*
X240032Y223119D01*
X240661Y221600D01*
X241521Y220198D01*
X242589Y218947D01*
X243839Y217879D01*
X245242Y217020D01*
X246761Y216390D01*
X248360Y216006D01*
X250000Y215877D01*
X251640Y216006D01*
X253239Y216390D01*
X254758Y217020D01*
X256161Y217879D01*
X257411Y218947D01*
X258479Y220198D01*
X259339Y221600D01*
X259968Y223119D01*
X260352Y224719D01*
X260481Y226358D01*
X260352Y227998D01*
X259968Y229597D01*
X259339Y231117D01*
X258479Y232519D01*
X257411Y233769D01*
X256161Y234838D01*
X254758Y235697D01*
X253239Y236326D01*
X251640Y236710D01*
X250000Y236839D01*
D02*
G37*
G36*
X180000D02*
X178360Y236710D01*
X176761Y236326D01*
X175242Y235697D01*
X173839Y234838D01*
X172589Y233769D01*
X171521Y232519D01*
X170661Y231117D01*
X170032Y229597D01*
X169648Y227998D01*
X169519Y226358D01*
X169648Y224719D01*
X170032Y223119D01*
X170661Y221600D01*
X171521Y220198D01*
X172589Y218947D01*
X173839Y217879D01*
X175242Y217020D01*
X176761Y216390D01*
X178360Y216006D01*
X180000Y215877D01*
X181640Y216006D01*
X183239Y216390D01*
X184758Y217020D01*
X186161Y217879D01*
X187411Y218947D01*
X188479Y220198D01*
X189339Y221600D01*
X189968Y223119D01*
X190352Y224719D01*
X190481Y226358D01*
X190352Y227998D01*
X189968Y229597D01*
X189339Y231117D01*
X188479Y232519D01*
X187411Y233769D01*
X186161Y234838D01*
X184758Y235697D01*
X183239Y236326D01*
X181640Y236710D01*
X180000Y236839D01*
D02*
G37*
G36*
X307500Y203788D02*
X306520Y203659D01*
X305606Y203281D01*
X304821Y202679D01*
X304219Y201894D01*
X303841Y200980D01*
X303712Y200000D01*
X303841Y199020D01*
X304219Y198106D01*
X304821Y197321D01*
X305606Y196719D01*
X306520Y196341D01*
X307500Y196212D01*
X308481Y196341D01*
X309394Y196719D01*
X310179Y197321D01*
X310781Y198106D01*
X311159Y199020D01*
X311288Y200000D01*
X311159Y200980D01*
X310781Y201894D01*
X310179Y202679D01*
X309394Y203281D01*
X308481Y203659D01*
X307500Y203788D01*
D02*
G37*
G36*
X287500D02*
X286520Y203659D01*
X285606Y203281D01*
X284821Y202679D01*
X284526Y202294D01*
X281250D01*
X280372Y202119D01*
X279628Y201622D01*
X252443Y174437D01*
X251945Y173693D01*
X251771Y172815D01*
Y139499D01*
X251693Y139475D01*
X250622Y138903D01*
X249683Y138132D01*
X248912Y137193D01*
X248340Y136122D01*
X247987Y134959D01*
X247868Y133750D01*
X247987Y132541D01*
X248340Y131378D01*
X248912Y130307D01*
X249683Y129368D01*
X250622Y128597D01*
X251693Y128025D01*
X252856Y127672D01*
X254065Y127553D01*
X255274Y127672D01*
X256436Y128025D01*
X257508Y128597D01*
X258447Y129368D01*
X259218Y130307D01*
X259790Y131378D01*
X260143Y132541D01*
X260262Y133750D01*
X260143Y134959D01*
X259790Y136122D01*
X259218Y137193D01*
X258447Y138132D01*
X257508Y138903D01*
X256436Y139475D01*
X256359Y139499D01*
Y171865D01*
X282200Y197706D01*
X284526D01*
X284821Y197321D01*
X285606Y196719D01*
X286520Y196341D01*
X287500Y196212D01*
X288480Y196341D01*
X289394Y196719D01*
X290179Y197321D01*
X290781Y198106D01*
X291159Y199020D01*
X291288Y200000D01*
X291159Y200980D01*
X290781Y201894D01*
X290179Y202679D01*
X289394Y203281D01*
X288480Y203659D01*
X287500Y203788D01*
D02*
G37*
G36*
X423750Y216030D02*
X422836Y215910D01*
X421985Y215557D01*
X421254Y214996D01*
X420693Y214265D01*
X420340Y213414D01*
X420220Y212500D01*
X420340Y211586D01*
X420693Y210735D01*
X421254Y210004D01*
X421985Y209443D01*
X422836Y209090D01*
X423750Y208970D01*
X424003Y209003D01*
X462706Y170300D01*
Y138293D01*
X460457D01*
Y129207D01*
X469543D01*
Y138293D01*
X467294D01*
Y171250D01*
X467119Y172128D01*
X466622Y172872D01*
X427247Y212247D01*
X427280Y212500D01*
X427160Y213414D01*
X426807Y214265D01*
X426246Y214996D01*
X425515Y215557D01*
X424664Y215910D01*
X423750Y216030D01*
D02*
G37*
G36*
X336108Y138293D02*
X327022D01*
Y129207D01*
X336108D01*
Y138293D01*
D02*
G37*
G36*
X510000Y321785D02*
X508891Y321639D01*
X507858Y321211D01*
X506970Y320530D01*
X506289Y319642D01*
X505861Y318609D01*
X505715Y317500D01*
X505861Y316391D01*
X506289Y315358D01*
X506970Y314470D01*
X507858Y313789D01*
X508891Y313361D01*
X510000Y313215D01*
X510919Y313336D01*
X555206Y269050D01*
Y220950D01*
X548378Y214122D01*
X547881Y213378D01*
X547706Y212500D01*
Y181818D01*
X547881Y180940D01*
X548378Y180196D01*
X561131Y167443D01*
Y137716D01*
X560185Y136990D01*
X559457Y136041D01*
X558999Y134936D01*
X558843Y133750D01*
X558999Y132564D01*
X559457Y131459D01*
X560185Y130510D01*
X561134Y129781D01*
X562239Y129324D01*
X563425Y129167D01*
X564611Y129324D01*
X565716Y129781D01*
X566666Y130510D01*
X567394Y131459D01*
X567852Y132564D01*
X568008Y133750D01*
X567852Y134936D01*
X567394Y136041D01*
X566666Y136990D01*
X565719Y137716D01*
Y168393D01*
X565545Y169271D01*
X565047Y170015D01*
X552294Y182768D01*
Y211550D01*
X559122Y218378D01*
X559619Y219122D01*
X559794Y220000D01*
Y270000D01*
X559619Y270878D01*
X559122Y271622D01*
X514164Y316581D01*
X514285Y317500D01*
X514139Y318609D01*
X513711Y319642D01*
X513030Y320530D01*
X512142Y321211D01*
X511109Y321639D01*
X510000Y321785D01*
D02*
G37*
G36*
X440000D02*
X438891Y321639D01*
X437858Y321211D01*
X436970Y320530D01*
X436289Y319642D01*
X435861Y318609D01*
X435715Y317500D01*
X435861Y316391D01*
X436289Y315358D01*
X436970Y314470D01*
X437858Y313789D01*
X438891Y313361D01*
X440000Y313215D01*
X440919Y313336D01*
X488378Y265878D01*
X489122Y265381D01*
X490000Y265206D01*
X510300D01*
X541446Y234060D01*
Y137716D01*
X540500Y136990D01*
X539772Y136041D01*
X539314Y134936D01*
X539158Y133750D01*
X539314Y132564D01*
X539772Y131459D01*
X540500Y130510D01*
X541449Y129781D01*
X542554Y129324D01*
X543740Y129167D01*
X544926Y129324D01*
X546031Y129781D01*
X546980Y130510D01*
X547709Y131459D01*
X548167Y132564D01*
X548323Y133750D01*
X548167Y134936D01*
X547709Y136041D01*
X546980Y136990D01*
X546034Y137716D01*
Y235010D01*
X545860Y235888D01*
X545362Y236632D01*
X512872Y269122D01*
X512128Y269619D01*
X511250Y269794D01*
X490950D01*
X444164Y316581D01*
X444285Y317500D01*
X444139Y318609D01*
X443711Y319642D01*
X443030Y320530D01*
X442142Y321211D01*
X441109Y321639D01*
X440000Y321785D01*
D02*
G37*
G36*
X437500Y274780D02*
X436586Y274660D01*
X435735Y274307D01*
X435004Y273746D01*
X434443Y273015D01*
X434090Y272164D01*
X433970Y271250D01*
X434090Y270336D01*
X434443Y269485D01*
X435004Y268754D01*
X435735Y268193D01*
X436586Y267840D01*
X437500Y267720D01*
X437753Y267753D01*
X502076Y203430D01*
Y137716D01*
X501130Y136990D01*
X500401Y136041D01*
X499944Y134936D01*
X499788Y133750D01*
X499944Y132564D01*
X500401Y131459D01*
X501130Y130510D01*
X502079Y129781D01*
X503184Y129324D01*
X504370Y129167D01*
X505556Y129324D01*
X506661Y129781D01*
X507610Y130510D01*
X508339Y131459D01*
X508796Y132564D01*
X508953Y133750D01*
X508796Y134936D01*
X508339Y136041D01*
X507610Y136990D01*
X506664Y137716D01*
Y204380D01*
X506490Y205258D01*
X505992Y206002D01*
X440997Y270997D01*
X441030Y271250D01*
X440910Y272164D01*
X440557Y273015D01*
X439996Y273746D01*
X439265Y274307D01*
X438414Y274660D01*
X437500Y274780D01*
D02*
G37*
G36*
X429990Y138332D02*
X428804Y138176D01*
X427699Y137719D01*
X426750Y136990D01*
X426022Y136041D01*
X425564Y134936D01*
X425408Y133750D01*
X425564Y132564D01*
X426022Y131459D01*
X426750Y130510D01*
X427699Y129781D01*
X428804Y129324D01*
X429990Y129167D01*
X431176Y129324D01*
X432281Y129781D01*
X433230Y130510D01*
X433959Y131459D01*
X434416Y132564D01*
X434573Y133750D01*
X434416Y134936D01*
X433959Y136041D01*
X433230Y136990D01*
X432281Y137719D01*
X431176Y138176D01*
X429990Y138332D01*
D02*
G37*
G36*
X410305D02*
X409119Y138176D01*
X408014Y137719D01*
X407065Y136990D01*
X406337Y136041D01*
X405879Y134936D01*
X405723Y133750D01*
X405879Y132564D01*
X406337Y131459D01*
X407065Y130510D01*
X408014Y129781D01*
X409119Y129324D01*
X410305Y129167D01*
X411491Y129324D01*
X412596Y129781D01*
X413545Y130510D01*
X414274Y131459D01*
X414732Y132564D01*
X414888Y133750D01*
X414732Y134936D01*
X414274Y136041D01*
X413545Y136990D01*
X412596Y137719D01*
X411491Y138176D01*
X410305Y138332D01*
D02*
G37*
G36*
X340000Y246785D02*
X338891Y246639D01*
X337858Y246211D01*
X336970Y245530D01*
X336289Y244642D01*
X335861Y243609D01*
X335715Y242500D01*
X335861Y241391D01*
X336289Y240358D01*
X336970Y239470D01*
X337706Y238906D01*
Y209390D01*
X337880Y208512D01*
X338378Y207768D01*
X368956Y177190D01*
Y137848D01*
X368644Y137719D01*
X367695Y136990D01*
X366967Y136041D01*
X366509Y134936D01*
X366353Y133750D01*
X366509Y132564D01*
X366967Y131459D01*
X367695Y130510D01*
X368644Y129781D01*
X369749Y129324D01*
X370935Y129167D01*
X372121Y129324D01*
X373226Y129781D01*
X374175Y130510D01*
X374904Y131459D01*
X375361Y132564D01*
X375518Y133750D01*
X375361Y134936D01*
X374904Y136041D01*
X374175Y136990D01*
X373544Y137475D01*
Y178140D01*
X373370Y179018D01*
X372872Y179762D01*
X342294Y210340D01*
Y238906D01*
X343030Y239470D01*
X343711Y240358D01*
X344139Y241391D01*
X344285Y242500D01*
X344139Y243609D01*
X343711Y244642D01*
X343030Y245530D01*
X342142Y246211D01*
X341109Y246639D01*
X340000Y246785D01*
D02*
G37*
G36*
X351250Y138332D02*
X350064Y138176D01*
X348959Y137719D01*
X348010Y136990D01*
X347281Y136041D01*
X346824Y134936D01*
X346668Y133750D01*
X346824Y132564D01*
X347281Y131459D01*
X348010Y130510D01*
X348959Y129781D01*
X350064Y129324D01*
X351250Y129167D01*
X352436Y129324D01*
X353541Y129781D01*
X354490Y130510D01*
X355219Y131459D01*
X355676Y132564D01*
X355833Y133750D01*
X355676Y134936D01*
X355219Y136041D01*
X354490Y136990D01*
X353541Y137719D01*
X352436Y138176D01*
X351250Y138332D01*
D02*
G37*
G36*
X293435Y139947D02*
X292226Y139828D01*
X291063Y139475D01*
X289992Y138903D01*
X289053Y138132D01*
X288282Y137193D01*
X287710Y136122D01*
X287357Y134959D01*
X287238Y133750D01*
X287357Y132541D01*
X287710Y131378D01*
X288282Y130307D01*
X289053Y129368D01*
X289992Y128597D01*
X291063Y128025D01*
X292226Y127672D01*
X293435Y127553D01*
X294644Y127672D01*
X295807Y128025D01*
X296878Y128597D01*
X297817Y129368D01*
X298588Y130307D01*
X299161Y131378D01*
X299513Y132541D01*
X299632Y133750D01*
X299513Y134959D01*
X299161Y136122D01*
X298588Y137193D01*
X297817Y138132D01*
X296878Y138903D01*
X295807Y139475D01*
X294644Y139828D01*
X293435Y139947D01*
D02*
G37*
G36*
X273750D02*
X272541Y139828D01*
X271378Y139475D01*
X270307Y138903D01*
X269368Y138132D01*
X268597Y137193D01*
X268025Y136122D01*
X267672Y134959D01*
X267553Y133750D01*
X267672Y132541D01*
X268025Y131378D01*
X268597Y130307D01*
X269368Y129368D01*
X270307Y128597D01*
X271378Y128025D01*
X272541Y127672D01*
X273750Y127553D01*
X274959Y127672D01*
X276121Y128025D01*
X277193Y128597D01*
X278132Y129368D01*
X278903Y130307D01*
X279475Y131378D01*
X279828Y132541D01*
X279947Y133750D01*
X279828Y134959D01*
X279475Y136122D01*
X278903Y137193D01*
X278132Y138132D01*
X277193Y138903D01*
X276121Y139475D01*
X274959Y139828D01*
X273750Y139947D01*
D02*
G37*
G36*
X234380D02*
X233171Y139828D01*
X232008Y139475D01*
X230937Y138903D01*
X229998Y138132D01*
X229227Y137193D01*
X228655Y136122D01*
X228302Y134959D01*
X228183Y133750D01*
X228302Y132541D01*
X228655Y131378D01*
X229227Y130307D01*
X229998Y129368D01*
X230937Y128597D01*
X232008Y128025D01*
X233171Y127672D01*
X234380Y127553D01*
X235589Y127672D01*
X236752Y128025D01*
X237823Y128597D01*
X238762Y129368D01*
X239533Y130307D01*
X240105Y131378D01*
X240458Y132541D01*
X240577Y133750D01*
X240458Y134959D01*
X240105Y136122D01*
X239533Y137193D01*
X238762Y138132D01*
X237823Y138903D01*
X236752Y139475D01*
X235589Y139828D01*
X234380Y139947D01*
D02*
G37*
G36*
X285000Y406030D02*
X284086Y405910D01*
X283235Y405557D01*
X282504Y404996D01*
X281943Y404265D01*
X281590Y403414D01*
X281470Y402500D01*
X281590Y401586D01*
X281943Y400735D01*
X282504Y400004D01*
X282706Y399849D01*
Y222493D01*
X213073Y152860D01*
X212575Y152116D01*
X212401Y151238D01*
Y139499D01*
X212323Y139475D01*
X211252Y138903D01*
X210313Y138132D01*
X209542Y137193D01*
X208969Y136122D01*
X208617Y134959D01*
X208498Y133750D01*
X208617Y132541D01*
X208969Y131378D01*
X209542Y130307D01*
X210313Y129368D01*
X211252Y128597D01*
X212323Y128025D01*
X213486Y127672D01*
X214695Y127553D01*
X215904Y127672D01*
X217066Y128025D01*
X218138Y128597D01*
X219077Y129368D01*
X219848Y130307D01*
X220420Y131378D01*
X220773Y132541D01*
X220892Y133750D01*
X220773Y134959D01*
X220420Y136122D01*
X219848Y137193D01*
X219077Y138132D01*
X218138Y138903D01*
X217066Y139475D01*
X216989Y139499D01*
Y150287D01*
X286622Y219921D01*
X287120Y220665D01*
X287294Y221543D01*
Y399849D01*
X287496Y400004D01*
X288057Y400735D01*
X288410Y401586D01*
X288530Y402500D01*
X288410Y403414D01*
X288057Y404265D01*
X287496Y404996D01*
X286765Y405557D01*
X285914Y405910D01*
X285000Y406030D01*
D02*
G37*
%LPD*%
D23*
X510000Y317500D02*
X557500Y270000D01*
Y220000D02*
Y270000D01*
X550000Y212500D02*
X557500Y220000D01*
X550000Y181818D02*
Y212500D01*
Y181818D02*
X563425Y168393D01*
Y133750D02*
Y168393D01*
X490000Y267500D02*
X511250D01*
X543740Y235010D01*
Y133750D02*
Y235010D01*
X440000Y317500D02*
X490000Y267500D01*
X423750Y212500D02*
X465000Y171250D01*
Y133750D02*
Y171250D01*
X402500Y258750D02*
X484685Y176565D01*
Y133750D02*
Y176565D01*
X437500Y271250D02*
X504370Y204380D01*
Y133750D02*
Y204380D01*
X407500Y280000D02*
X452500D01*
X524055Y208445D01*
X370000Y317500D02*
X407500Y280000D01*
X524055Y133750D02*
Y208445D01*
X390620Y133750D02*
X410000Y153130D01*
Y242500D01*
X297500Y200000D02*
Y222500D01*
X206250Y196250D02*
X220000Y210000D01*
X206250Y144990D02*
Y196250D01*
X195010Y133750D02*
X206250Y144990D01*
X214695Y133750D02*
Y151238D01*
X285000Y221543D01*
X220000Y210000D02*
Y332500D01*
X285000Y221543D02*
Y402500D01*
X371250Y133750D02*
Y178140D01*
X340000Y209390D02*
Y242500D01*
X215000Y405000D02*
X215000Y216250D01*
X175325Y176575D02*
X215000Y216250D01*
X281250Y200000D02*
X287500D01*
X254065Y172815D02*
X281250Y200000D01*
X211250Y217500D02*
Y351250D01*
X155640Y161890D02*
X211250Y217500D01*
X340000Y209390D02*
X371250Y178140D01*
X291250Y288750D02*
X300000Y297500D01*
X291250Y228750D02*
Y288750D01*
Y228750D02*
X297500Y222500D01*
X254065Y133750D02*
Y172815D01*
X200000Y362500D02*
X211250Y351250D01*
X175325Y133750D02*
Y176575D01*
X155640Y133750D02*
Y161890D01*
X248750Y288750D02*
Y298750D01*
X230000Y317500D02*
X248750Y298750D01*
X215000Y413750D02*
X215000Y413750D01*
X215000Y405000D02*
Y413750D01*
X300000Y317500D02*
X330000Y287500D01*
X160000Y317500D02*
X175000Y302500D01*
Y277500D02*
Y302500D01*
Y277500D02*
X190000Y262500D01*
D24*
X563425Y133750D02*
D03*
X543740D02*
D03*
X524055D02*
D03*
X504370D02*
D03*
X484685D02*
D03*
X429990D02*
D03*
X410305D02*
D03*
X390620D02*
D03*
X370935D02*
D03*
X351250D02*
D03*
D25*
X465000D02*
D03*
X331565D02*
D03*
D26*
X550000Y242500D02*
D03*
Y297500D02*
D03*
Y317500D02*
D03*
Y362500D02*
D03*
Y382500D02*
D03*
X510000D02*
D03*
Y362500D02*
D03*
Y317500D02*
D03*
Y297500D02*
D03*
Y242500D02*
D03*
X160000D02*
D03*
Y297500D02*
D03*
Y317500D02*
D03*
Y362500D02*
D03*
Y382500D02*
D03*
X200000D02*
D03*
Y362500D02*
D03*
Y317500D02*
D03*
Y297500D02*
D03*
Y242500D02*
D03*
X270000D02*
D03*
Y297500D02*
D03*
Y317500D02*
D03*
Y362500D02*
D03*
Y382500D02*
D03*
X230000D02*
D03*
Y362500D02*
D03*
Y317500D02*
D03*
Y297500D02*
D03*
Y242500D02*
D03*
X300000D02*
D03*
Y297500D02*
D03*
Y317500D02*
D03*
Y362500D02*
D03*
Y382500D02*
D03*
X340000D02*
D03*
Y362500D02*
D03*
Y317500D02*
D03*
Y297500D02*
D03*
Y242500D02*
D03*
X410000D02*
D03*
Y297500D02*
D03*
Y317500D02*
D03*
Y362500D02*
D03*
Y382500D02*
D03*
X370000D02*
D03*
Y362500D02*
D03*
Y317500D02*
D03*
Y297500D02*
D03*
Y242500D02*
D03*
X440000D02*
D03*
Y297500D02*
D03*
Y317500D02*
D03*
Y362500D02*
D03*
Y382500D02*
D03*
X480000D02*
D03*
Y362500D02*
D03*
Y317500D02*
D03*
Y297500D02*
D03*
Y242500D02*
D03*
D27*
X530000Y226358D02*
D03*
Y340138D02*
D03*
Y399587D02*
D03*
X180000D02*
D03*
Y340138D02*
D03*
Y226358D02*
D03*
X250000D02*
D03*
Y340138D02*
D03*
Y399587D02*
D03*
X320000D02*
D03*
Y340138D02*
D03*
Y226358D02*
D03*
X390000D02*
D03*
Y340138D02*
D03*
Y399587D02*
D03*
X460000D02*
D03*
Y340138D02*
D03*
Y226358D02*
D03*
D28*
X307500Y200000D02*
D03*
X287500D02*
D03*
X297500D02*
D03*
D29*
X293435Y133750D02*
D03*
X273750D02*
D03*
X254065D02*
D03*
X234380D02*
D03*
X214695D02*
D03*
X195010D02*
D03*
X175325D02*
D03*
D30*
X155640D02*
D03*
D31*
X566250Y195000D02*
D03*
X136250D02*
D03*
X136266Y442500D02*
D03*
X566266D02*
D03*
D32*
X402500Y258750D02*
D03*
X423750Y212500D02*
D03*
X330000Y287500D02*
D03*
X437500Y271250D02*
D03*
X285000Y402500D02*
D03*
X215000Y413750D02*
D03*
X248750Y288750D02*
D03*
X190000Y262500D02*
D03*
X220000Y332500D02*
D03*
M02*
