G04*
G04 #@! TF.GenerationSoftware,Altium Limited,Altium Designer,19.1.8 (144)*
G04*
G04 Layer_Color=16711935*
%FSLAX25Y25*%
%MOIN*%
G70*
G01*
G75*
%ADD10C,0.00787*%
%ADD11C,0.00394*%
D10*
X500472Y214547D02*
Y411398D01*
X559528D01*
Y214547D02*
Y411398D01*
X500472Y214547D02*
X559528D01*
X150472D02*
X209528D01*
Y411398D01*
X150472D02*
X209528D01*
X150472Y214547D02*
Y411398D01*
X220472Y214547D02*
Y411398D01*
X279528D01*
Y214547D02*
Y411398D01*
X220472Y214547D02*
X279528D01*
X290472D02*
X349528D01*
Y411398D01*
X290472D02*
X349528D01*
X290472Y214547D02*
Y411398D01*
X360472Y214547D02*
Y411398D01*
X419528D01*
Y214547D02*
Y411398D01*
X360472Y214547D02*
X419528D01*
X430472D02*
X489528D01*
Y411398D01*
X430472D02*
X489528D01*
X430472Y214547D02*
Y411398D01*
D11*
X454764Y116821D02*
X573661D01*
Y149892D01*
X454764D02*
X573661D01*
X454764Y116821D02*
Y149892D01*
X321329Y116821D02*
X440226D01*
Y149892D01*
X321329D02*
X440226D01*
X321329Y116821D02*
Y149892D01*
X145797Y116033D02*
X303278D01*
Y151467D01*
X145797D02*
X303278D01*
X145797Y116033D02*
Y151467D01*
M02*
