G04*
G04 #@! TF.GenerationSoftware,Altium Limited,Altium Designer,19.1.8 (144)*
G04*
G04 Layer_Color=8388736*
%FSLAX25Y25*%
%MOIN*%
G70*
G01*
G75*
%ADD14C,0.07887*%
%ADD15R,0.07887X0.07887*%
%ADD16C,0.07296*%
%ADD17C,0.19698*%
%ADD18C,0.06312*%
%ADD19C,0.11135*%
%ADD20R,0.11135X0.11135*%
%ADD21C,0.16800*%
%ADD22C,0.05800*%
D14*
X563425Y133750D02*
D03*
X543740D02*
D03*
X524055D02*
D03*
X504370D02*
D03*
X484685D02*
D03*
X429990D02*
D03*
X410305D02*
D03*
X390620D02*
D03*
X370935D02*
D03*
X351250D02*
D03*
D15*
X465000D02*
D03*
X331565D02*
D03*
D16*
X550000Y242500D02*
D03*
Y297500D02*
D03*
Y317500D02*
D03*
Y362500D02*
D03*
Y382500D02*
D03*
X510000D02*
D03*
Y362500D02*
D03*
Y317500D02*
D03*
Y297500D02*
D03*
Y242500D02*
D03*
X160000D02*
D03*
Y297500D02*
D03*
Y317500D02*
D03*
Y362500D02*
D03*
Y382500D02*
D03*
X200000D02*
D03*
Y362500D02*
D03*
Y317500D02*
D03*
Y297500D02*
D03*
Y242500D02*
D03*
X270000D02*
D03*
Y297500D02*
D03*
Y317500D02*
D03*
Y362500D02*
D03*
Y382500D02*
D03*
X230000D02*
D03*
Y362500D02*
D03*
Y317500D02*
D03*
Y297500D02*
D03*
Y242500D02*
D03*
X300000D02*
D03*
Y297500D02*
D03*
Y317500D02*
D03*
Y362500D02*
D03*
Y382500D02*
D03*
X340000D02*
D03*
Y362500D02*
D03*
Y317500D02*
D03*
Y297500D02*
D03*
Y242500D02*
D03*
X410000D02*
D03*
Y297500D02*
D03*
Y317500D02*
D03*
Y362500D02*
D03*
Y382500D02*
D03*
X370000D02*
D03*
Y362500D02*
D03*
Y317500D02*
D03*
Y297500D02*
D03*
Y242500D02*
D03*
X440000D02*
D03*
Y297500D02*
D03*
Y317500D02*
D03*
Y362500D02*
D03*
Y382500D02*
D03*
X480000D02*
D03*
Y362500D02*
D03*
Y317500D02*
D03*
Y297500D02*
D03*
Y242500D02*
D03*
D17*
X530000Y226358D02*
D03*
Y340138D02*
D03*
Y399587D02*
D03*
X180000D02*
D03*
Y340138D02*
D03*
Y226358D02*
D03*
X250000D02*
D03*
Y340138D02*
D03*
Y399587D02*
D03*
X320000D02*
D03*
Y340138D02*
D03*
Y226358D02*
D03*
X390000D02*
D03*
Y340138D02*
D03*
Y399587D02*
D03*
X460000D02*
D03*
Y340138D02*
D03*
Y226358D02*
D03*
D18*
X307500Y200000D02*
D03*
X287500D02*
D03*
X297500D02*
D03*
D19*
X293435Y133750D02*
D03*
X273750D02*
D03*
X254065D02*
D03*
X234380D02*
D03*
X214695D02*
D03*
X195010D02*
D03*
X175325D02*
D03*
D20*
X155640D02*
D03*
D21*
X566250Y195000D02*
D03*
X136250D02*
D03*
X136266Y442500D02*
D03*
X566266D02*
D03*
D22*
X402500Y258750D02*
D03*
X423750Y212500D02*
D03*
X330000Y287500D02*
D03*
X437500Y271250D02*
D03*
X285000Y402500D02*
D03*
X215000Y413750D02*
D03*
X248750Y288750D02*
D03*
X190000Y262500D02*
D03*
X220000Y332500D02*
D03*
M02*
