G04*
G04 #@! TF.GenerationSoftware,Altium Limited,Altium Designer,19.1.8 (144)*
G04*
G04 Layer_Color=255*
%FSLAX25Y25*%
%MOIN*%
G70*
G01*
G75*
%ADD24C,0.07087*%
%ADD25R,0.07087X0.07087*%
%ADD26C,0.06496*%
%ADD27C,0.18898*%
%ADD28C,0.05512*%
%ADD29C,0.10335*%
%ADD30R,0.10335X0.10335*%
D24*
X563425Y133750D02*
D03*
X543740D02*
D03*
X524055D02*
D03*
X504370D02*
D03*
X484685D02*
D03*
X429990D02*
D03*
X410305D02*
D03*
X390620D02*
D03*
X370935D02*
D03*
X351250D02*
D03*
D25*
X465000D02*
D03*
X331565D02*
D03*
D26*
X550000Y242500D02*
D03*
Y297500D02*
D03*
Y317500D02*
D03*
Y362500D02*
D03*
Y382500D02*
D03*
X510000D02*
D03*
Y362500D02*
D03*
Y317500D02*
D03*
Y297500D02*
D03*
Y242500D02*
D03*
X160000D02*
D03*
Y297500D02*
D03*
Y317500D02*
D03*
Y362500D02*
D03*
Y382500D02*
D03*
X200000D02*
D03*
Y362500D02*
D03*
Y317500D02*
D03*
Y297500D02*
D03*
Y242500D02*
D03*
X270000D02*
D03*
Y297500D02*
D03*
Y317500D02*
D03*
Y362500D02*
D03*
Y382500D02*
D03*
X230000D02*
D03*
Y362500D02*
D03*
Y317500D02*
D03*
Y297500D02*
D03*
Y242500D02*
D03*
X300000D02*
D03*
Y297500D02*
D03*
Y317500D02*
D03*
Y362500D02*
D03*
Y382500D02*
D03*
X340000D02*
D03*
Y362500D02*
D03*
Y317500D02*
D03*
Y297500D02*
D03*
Y242500D02*
D03*
X410000D02*
D03*
Y297500D02*
D03*
Y317500D02*
D03*
Y362500D02*
D03*
Y382500D02*
D03*
X370000D02*
D03*
Y362500D02*
D03*
Y317500D02*
D03*
Y297500D02*
D03*
Y242500D02*
D03*
X440000D02*
D03*
Y297500D02*
D03*
Y317500D02*
D03*
Y362500D02*
D03*
Y382500D02*
D03*
X480000D02*
D03*
Y362500D02*
D03*
Y317500D02*
D03*
Y297500D02*
D03*
Y242500D02*
D03*
D27*
X530000Y226358D02*
D03*
Y340138D02*
D03*
Y399587D02*
D03*
X180000D02*
D03*
Y340138D02*
D03*
Y226358D02*
D03*
X250000D02*
D03*
Y340138D02*
D03*
Y399587D02*
D03*
X320000D02*
D03*
Y340138D02*
D03*
Y226358D02*
D03*
X390000D02*
D03*
Y340138D02*
D03*
Y399587D02*
D03*
X460000D02*
D03*
Y340138D02*
D03*
Y226358D02*
D03*
D28*
X307500Y200000D02*
D03*
X287500D02*
D03*
X297500D02*
D03*
D29*
X293435Y133750D02*
D03*
X273750D02*
D03*
X254065D02*
D03*
X234380D02*
D03*
X214695D02*
D03*
X195010D02*
D03*
X175325D02*
D03*
D30*
X155640D02*
D03*
M02*
