M48
;Layer_Color=9474304
;FILE_FORMAT=2:5
INCH,LZ
;TYPE=PLATED
T1F00S00C0.02500
T2F00S00C0.03150
T3F00S00C0.04331
T4F00S00C0.05906
T5F00S00C0.06890
T6F00S00C0.12000
T7F00S00C0.12598
%
T01
X068125Y022125
X0675Y027
X061Y022875
X0555Y0235
X05575Y025875
X055875Y02125
X034Y027375
X022375Y029125
X0165Y0265
X0195Y0335
X019Y041625
X026Y0405
T02
X02875Y02
X02975
X03075
T03
X0625Y0245
X0665
X0695
X0735
Y03
X0695
X0665
X0625
X0595
X0555
X0525
X0485
Y0245
X0525
X0555
X0595
X0455
X0415
X0385
X0345
X0315
Y03
X0345
X0385
X0415
X0455
X0275
X0245
X0205
X0175
Y0245
X0205
X0245
X0275
X0135
Y03
Y032
Y0365
Y0385
X0175
Y0365
X0205
Y0385
X0245
Y0365
X0275
Y0385
Y032
X0245
X0205
X0175
X0315
X0345
X0385
X0415
X0455
Y0365
Y0385
X0415
Y0365
X0385
Y0385
X0345
Y0365
X0315
Y0385
X0485
Y0365
X0525
Y0385
X0555
Y0365
X0595
Y0385
Y032
X0555
X0525
X0485
X0625
X0665
X0695
X0735
Y0365
Y0385
X0695
Y0365
X0665
Y0385
X0625
Y0365
T04
X034438Y013375
X0364065
X038375
X0403435
X042312
X0442805
X046249
X0482175
X050186
X0550325
X057001
X0589695
X060938
X0629065
X064875
X0668435
X068812
X0707805
T05
X016189Y013375
X0181575
X020126
X0220945
X024063
X0260315
X028
X0299685
T06
X073375Y0195
X0135
X0135016Y04425
X0733766
T07
X0645Y0228858
X0715
X0575
X0505
X0435
X0365
X0295
X0225
X0155
Y0342638
Y0402087
X0225
Y0342638
X0295
Y0402087
X0365
Y0342638
X0435
Y0402087
X0505
Y0342638
X0575
Y0402087
X0645
Y0342638
X0715
Y0402087
M30
