G04*
G04 #@! TF.GenerationSoftware,Altium Limited,Altium Designer,19.1.8 (144)*
G04*
G04 Layer_Physical_Order=1*
G04 Layer_Color=255*
%FSLAX25Y25*%
%MOIN*%
G70*
G01*
G75*
%ADD23C,0.02500*%
%ADD24C,0.08858*%
%ADD25R,0.08858X0.08858*%
%ADD26C,0.18898*%
%ADD27C,0.06496*%
%ADD28C,0.05512*%
%ADD29C,0.10335*%
%ADD30R,0.10335X0.10335*%
%ADD31C,0.16000*%
%ADD32C,0.05000*%
G36*
X748471Y453750D02*
X721250D01*
Y430000D01*
X748471D01*
Y206250D01*
X721250D01*
Y182500D01*
X748471D01*
Y112779D01*
X121529D01*
Y182500D01*
X148750D01*
Y206250D01*
X121529D01*
Y430000D01*
X148750D01*
Y453750D01*
X121529D01*
Y458471D01*
X748471D01*
Y453750D01*
D02*
G37*
%LPC*%
G36*
X715000Y412568D02*
X713360Y412439D01*
X711761Y412055D01*
X710242Y411425D01*
X708839Y410566D01*
X707589Y409498D01*
X706521Y408247D01*
X705661Y406845D01*
X705032Y405326D01*
X704648Y403726D01*
X704519Y402087D01*
X704648Y400447D01*
X705032Y398848D01*
X705661Y397328D01*
X706521Y395926D01*
X707589Y394675D01*
X708839Y393607D01*
X710242Y392748D01*
X711761Y392119D01*
X713360Y391735D01*
X715000Y391605D01*
X716640Y391735D01*
X718239Y392119D01*
X719758Y392748D01*
X721161Y393607D01*
X722411Y394675D01*
X723479Y395926D01*
X724339Y397328D01*
X724968Y398848D01*
X725352Y400447D01*
X725481Y402087D01*
X725352Y403726D01*
X724968Y405326D01*
X724339Y406845D01*
X723479Y408247D01*
X722411Y409498D01*
X721161Y410566D01*
X719758Y411425D01*
X718239Y412055D01*
X716640Y412439D01*
X715000Y412568D01*
D02*
G37*
G36*
X645000D02*
X643360Y412439D01*
X641761Y412055D01*
X640242Y411425D01*
X638839Y410566D01*
X637589Y409498D01*
X636521Y408247D01*
X635661Y406845D01*
X635032Y405326D01*
X634648Y403726D01*
X634519Y402087D01*
X634648Y400447D01*
X635032Y398848D01*
X635661Y397328D01*
X636521Y395926D01*
X637589Y394675D01*
X638839Y393607D01*
X640242Y392748D01*
X641761Y392119D01*
X643360Y391735D01*
X645000Y391605D01*
X646640Y391735D01*
X648239Y392119D01*
X649758Y392748D01*
X651161Y393607D01*
X652411Y394675D01*
X653479Y395926D01*
X654339Y397328D01*
X654968Y398848D01*
X655352Y400447D01*
X655481Y402087D01*
X655352Y403726D01*
X654968Y405326D01*
X654339Y406845D01*
X653479Y408247D01*
X652411Y409498D01*
X651161Y410566D01*
X649758Y411425D01*
X648239Y412055D01*
X646640Y412439D01*
X645000Y412568D01*
D02*
G37*
G36*
X575000D02*
X573360Y412439D01*
X571761Y412055D01*
X570242Y411425D01*
X568839Y410566D01*
X567589Y409498D01*
X566521Y408247D01*
X565661Y406845D01*
X565032Y405326D01*
X564648Y403726D01*
X564519Y402087D01*
X564648Y400447D01*
X565032Y398848D01*
X565661Y397328D01*
X566521Y395926D01*
X567589Y394675D01*
X568839Y393607D01*
X570242Y392748D01*
X571761Y392119D01*
X573360Y391735D01*
X575000Y391605D01*
X576640Y391735D01*
X578239Y392119D01*
X579758Y392748D01*
X581161Y393607D01*
X582411Y394675D01*
X583479Y395926D01*
X584339Y397328D01*
X584968Y398848D01*
X585352Y400447D01*
X585481Y402087D01*
X585352Y403726D01*
X584968Y405326D01*
X584339Y406845D01*
X583479Y408247D01*
X582411Y409498D01*
X581161Y410566D01*
X579758Y411425D01*
X578239Y412055D01*
X576640Y412439D01*
X575000Y412568D01*
D02*
G37*
G36*
X505000D02*
X503360Y412439D01*
X501761Y412055D01*
X500242Y411425D01*
X498839Y410566D01*
X497589Y409498D01*
X496521Y408247D01*
X495661Y406845D01*
X495032Y405326D01*
X494648Y403726D01*
X494519Y402087D01*
X494648Y400447D01*
X495032Y398848D01*
X495661Y397328D01*
X496521Y395926D01*
X497589Y394675D01*
X498839Y393607D01*
X500242Y392748D01*
X501761Y392119D01*
X503360Y391735D01*
X505000Y391605D01*
X506640Y391735D01*
X508239Y392119D01*
X509758Y392748D01*
X511161Y393607D01*
X512411Y394675D01*
X513479Y395926D01*
X514339Y397328D01*
X514968Y398848D01*
X515352Y400447D01*
X515481Y402087D01*
X515352Y403726D01*
X514968Y405326D01*
X514339Y406845D01*
X513479Y408247D01*
X512411Y409498D01*
X511161Y410566D01*
X509758Y411425D01*
X508239Y412055D01*
X506640Y412439D01*
X505000Y412568D01*
D02*
G37*
G36*
X435000D02*
X433360Y412439D01*
X431761Y412055D01*
X430242Y411425D01*
X428839Y410566D01*
X427589Y409498D01*
X426521Y408247D01*
X425661Y406845D01*
X425032Y405326D01*
X424648Y403726D01*
X424519Y402087D01*
X424648Y400447D01*
X425032Y398848D01*
X425661Y397328D01*
X426521Y395926D01*
X427589Y394675D01*
X428839Y393607D01*
X430242Y392748D01*
X431761Y392119D01*
X433360Y391735D01*
X435000Y391605D01*
X436640Y391735D01*
X438239Y392119D01*
X439758Y392748D01*
X441161Y393607D01*
X442411Y394675D01*
X443479Y395926D01*
X444339Y397328D01*
X444968Y398848D01*
X445352Y400447D01*
X445481Y402087D01*
X445352Y403726D01*
X444968Y405326D01*
X444339Y406845D01*
X443479Y408247D01*
X442411Y409498D01*
X441161Y410566D01*
X439758Y411425D01*
X438239Y412055D01*
X436640Y412439D01*
X435000Y412568D01*
D02*
G37*
G36*
X365000D02*
X363360Y412439D01*
X361761Y412055D01*
X360242Y411425D01*
X358839Y410566D01*
X357589Y409498D01*
X356521Y408247D01*
X355661Y406845D01*
X355032Y405326D01*
X354648Y403726D01*
X354519Y402087D01*
X354648Y400447D01*
X355032Y398848D01*
X355661Y397328D01*
X356521Y395926D01*
X357589Y394675D01*
X358839Y393607D01*
X360242Y392748D01*
X361761Y392119D01*
X363360Y391735D01*
X365000Y391605D01*
X366640Y391735D01*
X368239Y392119D01*
X369758Y392748D01*
X371161Y393607D01*
X372411Y394675D01*
X373479Y395926D01*
X374339Y397328D01*
X374968Y398848D01*
X375352Y400447D01*
X375481Y402087D01*
X375352Y403726D01*
X374968Y405326D01*
X374339Y406845D01*
X373479Y408247D01*
X372411Y409498D01*
X371161Y410566D01*
X369758Y411425D01*
X368239Y412055D01*
X366640Y412439D01*
X365000Y412568D01*
D02*
G37*
G36*
X295000D02*
X293360Y412439D01*
X291761Y412055D01*
X290242Y411425D01*
X288839Y410566D01*
X287589Y409498D01*
X286521Y408247D01*
X285661Y406845D01*
X285032Y405326D01*
X284648Y403726D01*
X284519Y402087D01*
X284648Y400447D01*
X285032Y398848D01*
X285661Y397328D01*
X286521Y395926D01*
X287589Y394675D01*
X288839Y393607D01*
X290242Y392748D01*
X291761Y392119D01*
X293360Y391735D01*
X295000Y391605D01*
X296640Y391735D01*
X298239Y392119D01*
X299758Y392748D01*
X301161Y393607D01*
X302411Y394675D01*
X303479Y395926D01*
X304339Y397328D01*
X304968Y398848D01*
X305352Y400447D01*
X305481Y402087D01*
X305352Y403726D01*
X304968Y405326D01*
X304339Y406845D01*
X303479Y408247D01*
X302411Y409498D01*
X301161Y410566D01*
X299758Y411425D01*
X298239Y412055D01*
X296640Y412439D01*
X295000Y412568D01*
D02*
G37*
G36*
X225000D02*
X223360Y412439D01*
X221761Y412055D01*
X220242Y411425D01*
X218839Y410566D01*
X217589Y409498D01*
X216521Y408247D01*
X215661Y406845D01*
X215032Y405326D01*
X214648Y403726D01*
X214519Y402087D01*
X214648Y400447D01*
X215032Y398848D01*
X215661Y397328D01*
X216521Y395926D01*
X217589Y394675D01*
X218839Y393607D01*
X220242Y392748D01*
X221761Y392119D01*
X223360Y391735D01*
X225000Y391605D01*
X226640Y391735D01*
X228239Y392119D01*
X229758Y392748D01*
X231161Y393607D01*
X232411Y394675D01*
X233479Y395926D01*
X234339Y397328D01*
X234968Y398848D01*
X235352Y400447D01*
X235481Y402087D01*
X235352Y403726D01*
X234968Y405326D01*
X234339Y406845D01*
X233479Y408247D01*
X232411Y409498D01*
X231161Y410566D01*
X229758Y411425D01*
X228239Y412055D01*
X226640Y412439D01*
X225000Y412568D01*
D02*
G37*
G36*
X155000D02*
X153360Y412439D01*
X151761Y412055D01*
X150242Y411425D01*
X148839Y410566D01*
X147589Y409498D01*
X146521Y408247D01*
X145661Y406845D01*
X145032Y405326D01*
X144648Y403726D01*
X144519Y402087D01*
X144648Y400447D01*
X145032Y398848D01*
X145661Y397328D01*
X146521Y395926D01*
X147589Y394675D01*
X148839Y393607D01*
X150242Y392748D01*
X151761Y392119D01*
X153360Y391735D01*
X155000Y391605D01*
X156640Y391735D01*
X158239Y392119D01*
X159758Y392748D01*
X161161Y393607D01*
X162411Y394675D01*
X163479Y395926D01*
X164339Y397328D01*
X164968Y398848D01*
X165352Y400447D01*
X165481Y402087D01*
X165352Y403726D01*
X164968Y405326D01*
X164339Y406845D01*
X163479Y408247D01*
X162411Y409498D01*
X161161Y410566D01*
X159758Y411425D01*
X158239Y412055D01*
X156640Y412439D01*
X155000Y412568D01*
D02*
G37*
G36*
X735000Y389285D02*
X733891Y389139D01*
X732858Y388711D01*
X731970Y388030D01*
X731289Y387142D01*
X730861Y386109D01*
X730715Y385000D01*
X730861Y383891D01*
X731289Y382858D01*
X731970Y381970D01*
X732858Y381289D01*
X733891Y380861D01*
X735000Y380715D01*
X736109Y380861D01*
X737142Y381289D01*
X738030Y381970D01*
X738711Y382858D01*
X739139Y383891D01*
X739285Y385000D01*
X739139Y386109D01*
X738711Y387142D01*
X738030Y388030D01*
X737142Y388711D01*
X736109Y389139D01*
X735000Y389285D01*
D02*
G37*
G36*
X695000D02*
X693891Y389139D01*
X692858Y388711D01*
X691970Y388030D01*
X691289Y387142D01*
X690861Y386109D01*
X690715Y385000D01*
X690861Y383891D01*
X691289Y382858D01*
X691970Y381970D01*
X692858Y381289D01*
X693891Y380861D01*
X695000Y380715D01*
X696109Y380861D01*
X697142Y381289D01*
X698030Y381970D01*
X698711Y382858D01*
X699139Y383891D01*
X699285Y385000D01*
X699139Y386109D01*
X698711Y387142D01*
X698030Y388030D01*
X697142Y388711D01*
X696109Y389139D01*
X695000Y389285D01*
D02*
G37*
G36*
X665000D02*
X663891Y389139D01*
X662858Y388711D01*
X661970Y388030D01*
X661289Y387142D01*
X660861Y386109D01*
X660715Y385000D01*
X660861Y383891D01*
X661289Y382858D01*
X661970Y381970D01*
X662858Y381289D01*
X663891Y380861D01*
X665000Y380715D01*
X666109Y380861D01*
X667142Y381289D01*
X668030Y381970D01*
X668711Y382858D01*
X669139Y383891D01*
X669285Y385000D01*
X669139Y386109D01*
X668711Y387142D01*
X668030Y388030D01*
X667142Y388711D01*
X666109Y389139D01*
X665000Y389285D01*
D02*
G37*
G36*
X625000D02*
X623891Y389139D01*
X622858Y388711D01*
X621970Y388030D01*
X621289Y387142D01*
X620861Y386109D01*
X620715Y385000D01*
X620861Y383891D01*
X621289Y382858D01*
X621970Y381970D01*
X622858Y381289D01*
X623891Y380861D01*
X625000Y380715D01*
X626109Y380861D01*
X627142Y381289D01*
X628030Y381970D01*
X628711Y382858D01*
X629139Y383891D01*
X629285Y385000D01*
X629139Y386109D01*
X628711Y387142D01*
X628030Y388030D01*
X627142Y388711D01*
X626109Y389139D01*
X625000Y389285D01*
D02*
G37*
G36*
X595000D02*
X593891Y389139D01*
X592858Y388711D01*
X591970Y388030D01*
X591289Y387142D01*
X590861Y386109D01*
X590715Y385000D01*
X590861Y383891D01*
X591289Y382858D01*
X591970Y381970D01*
X592858Y381289D01*
X593891Y380861D01*
X595000Y380715D01*
X596109Y380861D01*
X597142Y381289D01*
X598030Y381970D01*
X598711Y382858D01*
X599139Y383891D01*
X599285Y385000D01*
X599139Y386109D01*
X598711Y387142D01*
X598030Y388030D01*
X597142Y388711D01*
X596109Y389139D01*
X595000Y389285D01*
D02*
G37*
G36*
X555000D02*
X553891Y389139D01*
X552858Y388711D01*
X551970Y388030D01*
X551289Y387142D01*
X550861Y386109D01*
X550715Y385000D01*
X550861Y383891D01*
X551289Y382858D01*
X551970Y381970D01*
X552858Y381289D01*
X553891Y380861D01*
X555000Y380715D01*
X556109Y380861D01*
X557142Y381289D01*
X558030Y381970D01*
X558711Y382858D01*
X559139Y383891D01*
X559285Y385000D01*
X559139Y386109D01*
X558711Y387142D01*
X558030Y388030D01*
X557142Y388711D01*
X556109Y389139D01*
X555000Y389285D01*
D02*
G37*
G36*
X525000D02*
X523891Y389139D01*
X522858Y388711D01*
X521970Y388030D01*
X521289Y387142D01*
X520861Y386109D01*
X520715Y385000D01*
X520861Y383891D01*
X521289Y382858D01*
X521970Y381970D01*
X522858Y381289D01*
X523891Y380861D01*
X525000Y380715D01*
X526109Y380861D01*
X527142Y381289D01*
X528030Y381970D01*
X528711Y382858D01*
X529139Y383891D01*
X529285Y385000D01*
X529139Y386109D01*
X528711Y387142D01*
X528030Y388030D01*
X527142Y388711D01*
X526109Y389139D01*
X525000Y389285D01*
D02*
G37*
G36*
X485000D02*
X483891Y389139D01*
X482858Y388711D01*
X481970Y388030D01*
X481289Y387142D01*
X480861Y386109D01*
X480715Y385000D01*
X480861Y383891D01*
X481289Y382858D01*
X481970Y381970D01*
X482858Y381289D01*
X483891Y380861D01*
X485000Y380715D01*
X486109Y380861D01*
X487142Y381289D01*
X488030Y381970D01*
X488711Y382858D01*
X489139Y383891D01*
X489285Y385000D01*
X489139Y386109D01*
X488711Y387142D01*
X488030Y388030D01*
X487142Y388711D01*
X486109Y389139D01*
X485000Y389285D01*
D02*
G37*
G36*
X455000D02*
X453891Y389139D01*
X452858Y388711D01*
X451970Y388030D01*
X451289Y387142D01*
X450861Y386109D01*
X450715Y385000D01*
X450861Y383891D01*
X451289Y382858D01*
X451970Y381970D01*
X452858Y381289D01*
X453891Y380861D01*
X455000Y380715D01*
X456109Y380861D01*
X457142Y381289D01*
X458030Y381970D01*
X458711Y382858D01*
X459139Y383891D01*
X459285Y385000D01*
X459139Y386109D01*
X458711Y387142D01*
X458030Y388030D01*
X457142Y388711D01*
X456109Y389139D01*
X455000Y389285D01*
D02*
G37*
G36*
X415000D02*
X413891Y389139D01*
X412858Y388711D01*
X411970Y388030D01*
X411289Y387142D01*
X410861Y386109D01*
X410715Y385000D01*
X410861Y383891D01*
X411289Y382858D01*
X411970Y381970D01*
X412858Y381289D01*
X413891Y380861D01*
X415000Y380715D01*
X416109Y380861D01*
X417142Y381289D01*
X418030Y381970D01*
X418711Y382858D01*
X419139Y383891D01*
X419285Y385000D01*
X419139Y386109D01*
X418711Y387142D01*
X418030Y388030D01*
X417142Y388711D01*
X416109Y389139D01*
X415000Y389285D01*
D02*
G37*
G36*
X385000D02*
X383891Y389139D01*
X382858Y388711D01*
X381970Y388030D01*
X381289Y387142D01*
X380861Y386109D01*
X380715Y385000D01*
X380861Y383891D01*
X381289Y382858D01*
X381970Y381970D01*
X382858Y381289D01*
X383891Y380861D01*
X385000Y380715D01*
X386109Y380861D01*
X387142Y381289D01*
X388030Y381970D01*
X388711Y382858D01*
X389139Y383891D01*
X389285Y385000D01*
X389139Y386109D01*
X388711Y387142D01*
X388030Y388030D01*
X387142Y388711D01*
X386109Y389139D01*
X385000Y389285D01*
D02*
G37*
G36*
X345000D02*
X343891Y389139D01*
X342858Y388711D01*
X341970Y388030D01*
X341289Y387142D01*
X340861Y386109D01*
X340715Y385000D01*
X340861Y383891D01*
X341289Y382858D01*
X341970Y381970D01*
X342858Y381289D01*
X343891Y380861D01*
X345000Y380715D01*
X346109Y380861D01*
X347142Y381289D01*
X348030Y381970D01*
X348711Y382858D01*
X349139Y383891D01*
X349285Y385000D01*
X349139Y386109D01*
X348711Y387142D01*
X348030Y388030D01*
X347142Y388711D01*
X346109Y389139D01*
X345000Y389285D01*
D02*
G37*
G36*
X315000D02*
X313891Y389139D01*
X312858Y388711D01*
X311970Y388030D01*
X311289Y387142D01*
X310861Y386109D01*
X310715Y385000D01*
X310861Y383891D01*
X311289Y382858D01*
X311970Y381970D01*
X312858Y381289D01*
X313891Y380861D01*
X315000Y380715D01*
X316109Y380861D01*
X317142Y381289D01*
X318030Y381970D01*
X318711Y382858D01*
X319139Y383891D01*
X319285Y385000D01*
X319139Y386109D01*
X318711Y387142D01*
X318030Y388030D01*
X317142Y388711D01*
X316109Y389139D01*
X315000Y389285D01*
D02*
G37*
G36*
X275000D02*
X273891Y389139D01*
X272858Y388711D01*
X271970Y388030D01*
X271289Y387142D01*
X270861Y386109D01*
X270715Y385000D01*
X270861Y383891D01*
X271289Y382858D01*
X271970Y381970D01*
X272858Y381289D01*
X273891Y380861D01*
X275000Y380715D01*
X276109Y380861D01*
X277142Y381289D01*
X278030Y381970D01*
X278711Y382858D01*
X279139Y383891D01*
X279285Y385000D01*
X279139Y386109D01*
X278711Y387142D01*
X278030Y388030D01*
X277142Y388711D01*
X276109Y389139D01*
X275000Y389285D01*
D02*
G37*
G36*
X245000D02*
X243891Y389139D01*
X242858Y388711D01*
X241970Y388030D01*
X241289Y387142D01*
X240861Y386109D01*
X240715Y385000D01*
X240861Y383891D01*
X241289Y382858D01*
X241970Y381970D01*
X242858Y381289D01*
X243891Y380861D01*
X245000Y380715D01*
X246109Y380861D01*
X247142Y381289D01*
X248030Y381970D01*
X248711Y382858D01*
X249139Y383891D01*
X249285Y385000D01*
X249139Y386109D01*
X248711Y387142D01*
X248030Y388030D01*
X247142Y388711D01*
X246109Y389139D01*
X245000Y389285D01*
D02*
G37*
G36*
X205000D02*
X203891Y389139D01*
X202858Y388711D01*
X201970Y388030D01*
X201289Y387142D01*
X200861Y386109D01*
X200715Y385000D01*
X200861Y383891D01*
X201289Y382858D01*
X201970Y381970D01*
X202858Y381289D01*
X203891Y380861D01*
X205000Y380715D01*
X206109Y380861D01*
X207142Y381289D01*
X208030Y381970D01*
X208711Y382858D01*
X209139Y383891D01*
X209285Y385000D01*
X209139Y386109D01*
X208711Y387142D01*
X208030Y388030D01*
X207142Y388711D01*
X206109Y389139D01*
X205000Y389285D01*
D02*
G37*
G36*
X175000D02*
X173891Y389139D01*
X172858Y388711D01*
X171970Y388030D01*
X171289Y387142D01*
X170861Y386109D01*
X170715Y385000D01*
X170861Y383891D01*
X171289Y382858D01*
X171970Y381970D01*
X172858Y381289D01*
X173891Y380861D01*
X175000Y380715D01*
X176109Y380861D01*
X177142Y381289D01*
X178030Y381970D01*
X178711Y382858D01*
X179139Y383891D01*
X179285Y385000D01*
X179139Y386109D01*
X178711Y387142D01*
X178030Y388030D01*
X177142Y388711D01*
X176109Y389139D01*
X175000Y389285D01*
D02*
G37*
G36*
X135000D02*
X133891Y389139D01*
X132858Y388711D01*
X131970Y388030D01*
X131289Y387142D01*
X130861Y386109D01*
X130715Y385000D01*
X130861Y383891D01*
X131289Y382858D01*
X131970Y381970D01*
X132858Y381289D01*
X133891Y380861D01*
X135000Y380715D01*
X136109Y380861D01*
X137142Y381289D01*
X138030Y381970D01*
X138711Y382858D01*
X139139Y383891D01*
X139285Y385000D01*
X139139Y386109D01*
X138711Y387142D01*
X138030Y388030D01*
X137142Y388711D01*
X136109Y389139D01*
X135000Y389285D01*
D02*
G37*
G36*
X735000Y369285D02*
X733891Y369139D01*
X732858Y368711D01*
X731970Y368030D01*
X731289Y367142D01*
X730861Y366109D01*
X730715Y365000D01*
X730861Y363891D01*
X731289Y362858D01*
X731970Y361970D01*
X732858Y361289D01*
X733891Y360861D01*
X735000Y360715D01*
X736109Y360861D01*
X737142Y361289D01*
X738030Y361970D01*
X738711Y362858D01*
X739139Y363891D01*
X739285Y365000D01*
X739139Y366109D01*
X738711Y367142D01*
X738030Y368030D01*
X737142Y368711D01*
X736109Y369139D01*
X735000Y369285D01*
D02*
G37*
G36*
X695000D02*
X693891Y369139D01*
X692858Y368711D01*
X691970Y368030D01*
X691289Y367142D01*
X690861Y366109D01*
X690715Y365000D01*
X690861Y363891D01*
X691289Y362858D01*
X691970Y361970D01*
X692858Y361289D01*
X693891Y360861D01*
X695000Y360715D01*
X696109Y360861D01*
X697142Y361289D01*
X698030Y361970D01*
X698711Y362858D01*
X699139Y363891D01*
X699285Y365000D01*
X699139Y366109D01*
X698711Y367142D01*
X698030Y368030D01*
X697142Y368711D01*
X696109Y369139D01*
X695000Y369285D01*
D02*
G37*
G36*
X665000D02*
X663891Y369139D01*
X662858Y368711D01*
X661970Y368030D01*
X661289Y367142D01*
X660861Y366109D01*
X660715Y365000D01*
X660861Y363891D01*
X661289Y362858D01*
X661970Y361970D01*
X662858Y361289D01*
X663891Y360861D01*
X665000Y360715D01*
X666109Y360861D01*
X667142Y361289D01*
X668030Y361970D01*
X668711Y362858D01*
X669139Y363891D01*
X669285Y365000D01*
X669139Y366109D01*
X668711Y367142D01*
X668030Y368030D01*
X667142Y368711D01*
X666109Y369139D01*
X665000Y369285D01*
D02*
G37*
G36*
X625000D02*
X623891Y369139D01*
X622858Y368711D01*
X621970Y368030D01*
X621289Y367142D01*
X620861Y366109D01*
X620715Y365000D01*
X620861Y363891D01*
X621289Y362858D01*
X621970Y361970D01*
X622858Y361289D01*
X623891Y360861D01*
X625000Y360715D01*
X626109Y360861D01*
X627142Y361289D01*
X628030Y361970D01*
X628711Y362858D01*
X629139Y363891D01*
X629285Y365000D01*
X629139Y366109D01*
X628711Y367142D01*
X628030Y368030D01*
X627142Y368711D01*
X626109Y369139D01*
X625000Y369285D01*
D02*
G37*
G36*
X595000D02*
X593891Y369139D01*
X592858Y368711D01*
X591970Y368030D01*
X591289Y367142D01*
X590861Y366109D01*
X590715Y365000D01*
X590861Y363891D01*
X591289Y362858D01*
X591970Y361970D01*
X592858Y361289D01*
X593891Y360861D01*
X595000Y360715D01*
X596109Y360861D01*
X597142Y361289D01*
X598030Y361970D01*
X598711Y362858D01*
X599139Y363891D01*
X599285Y365000D01*
X599139Y366109D01*
X598711Y367142D01*
X598030Y368030D01*
X597142Y368711D01*
X596109Y369139D01*
X595000Y369285D01*
D02*
G37*
G36*
X555000D02*
X553891Y369139D01*
X552858Y368711D01*
X551970Y368030D01*
X551289Y367142D01*
X550861Y366109D01*
X550715Y365000D01*
X550861Y363891D01*
X551289Y362858D01*
X551970Y361970D01*
X552858Y361289D01*
X553891Y360861D01*
X555000Y360715D01*
X556109Y360861D01*
X557142Y361289D01*
X558030Y361970D01*
X558711Y362858D01*
X559139Y363891D01*
X559285Y365000D01*
X559139Y366109D01*
X558711Y367142D01*
X558030Y368030D01*
X557142Y368711D01*
X556109Y369139D01*
X555000Y369285D01*
D02*
G37*
G36*
X525000D02*
X523891Y369139D01*
X522858Y368711D01*
X521970Y368030D01*
X521289Y367142D01*
X520861Y366109D01*
X520715Y365000D01*
X520861Y363891D01*
X521289Y362858D01*
X521970Y361970D01*
X522858Y361289D01*
X523891Y360861D01*
X525000Y360715D01*
X526109Y360861D01*
X527142Y361289D01*
X528030Y361970D01*
X528711Y362858D01*
X529139Y363891D01*
X529285Y365000D01*
X529139Y366109D01*
X528711Y367142D01*
X528030Y368030D01*
X527142Y368711D01*
X526109Y369139D01*
X525000Y369285D01*
D02*
G37*
G36*
X485000D02*
X483891Y369139D01*
X482858Y368711D01*
X481970Y368030D01*
X481289Y367142D01*
X480861Y366109D01*
X480715Y365000D01*
X480861Y363891D01*
X481289Y362858D01*
X481970Y361970D01*
X482858Y361289D01*
X483891Y360861D01*
X485000Y360715D01*
X486109Y360861D01*
X487142Y361289D01*
X488030Y361970D01*
X488711Y362858D01*
X489139Y363891D01*
X489285Y365000D01*
X489139Y366109D01*
X488711Y367142D01*
X488030Y368030D01*
X487142Y368711D01*
X486109Y369139D01*
X485000Y369285D01*
D02*
G37*
G36*
X455000D02*
X453891Y369139D01*
X452858Y368711D01*
X451970Y368030D01*
X451289Y367142D01*
X450861Y366109D01*
X450715Y365000D01*
X450861Y363891D01*
X451289Y362858D01*
X451970Y361970D01*
X452858Y361289D01*
X453891Y360861D01*
X455000Y360715D01*
X456109Y360861D01*
X457142Y361289D01*
X458030Y361970D01*
X458711Y362858D01*
X459139Y363891D01*
X459285Y365000D01*
X459139Y366109D01*
X458711Y367142D01*
X458030Y368030D01*
X457142Y368711D01*
X456109Y369139D01*
X455000Y369285D01*
D02*
G37*
G36*
X415000D02*
X413891Y369139D01*
X412858Y368711D01*
X411970Y368030D01*
X411289Y367142D01*
X410861Y366109D01*
X410715Y365000D01*
X410861Y363891D01*
X411289Y362858D01*
X411970Y361970D01*
X412858Y361289D01*
X413891Y360861D01*
X415000Y360715D01*
X416109Y360861D01*
X417142Y361289D01*
X418030Y361970D01*
X418711Y362858D01*
X419139Y363891D01*
X419285Y365000D01*
X419139Y366109D01*
X418711Y367142D01*
X418030Y368030D01*
X417142Y368711D01*
X416109Y369139D01*
X415000Y369285D01*
D02*
G37*
G36*
X385000D02*
X383891Y369139D01*
X382858Y368711D01*
X381970Y368030D01*
X381289Y367142D01*
X380861Y366109D01*
X380715Y365000D01*
X380861Y363891D01*
X381289Y362858D01*
X381970Y361970D01*
X382858Y361289D01*
X383891Y360861D01*
X385000Y360715D01*
X386109Y360861D01*
X387142Y361289D01*
X388030Y361970D01*
X388711Y362858D01*
X389139Y363891D01*
X389285Y365000D01*
X389139Y366109D01*
X388711Y367142D01*
X388030Y368030D01*
X387142Y368711D01*
X386109Y369139D01*
X385000Y369285D01*
D02*
G37*
G36*
X345000D02*
X343891Y369139D01*
X342858Y368711D01*
X341970Y368030D01*
X341289Y367142D01*
X340861Y366109D01*
X340715Y365000D01*
X340861Y363891D01*
X341289Y362858D01*
X341970Y361970D01*
X342858Y361289D01*
X343891Y360861D01*
X345000Y360715D01*
X346109Y360861D01*
X347142Y361289D01*
X348030Y361970D01*
X348711Y362858D01*
X349139Y363891D01*
X349285Y365000D01*
X349139Y366109D01*
X348711Y367142D01*
X348030Y368030D01*
X347142Y368711D01*
X346109Y369139D01*
X345000Y369285D01*
D02*
G37*
G36*
X315000D02*
X313891Y369139D01*
X312858Y368711D01*
X311970Y368030D01*
X311289Y367142D01*
X310861Y366109D01*
X310715Y365000D01*
X310861Y363891D01*
X311289Y362858D01*
X311970Y361970D01*
X312858Y361289D01*
X313891Y360861D01*
X315000Y360715D01*
X316109Y360861D01*
X317142Y361289D01*
X318030Y361970D01*
X318711Y362858D01*
X319139Y363891D01*
X319285Y365000D01*
X319139Y366109D01*
X318711Y367142D01*
X318030Y368030D01*
X317142Y368711D01*
X316109Y369139D01*
X315000Y369285D01*
D02*
G37*
G36*
X275000D02*
X273891Y369139D01*
X272858Y368711D01*
X271970Y368030D01*
X271289Y367142D01*
X270861Y366109D01*
X270715Y365000D01*
X270861Y363891D01*
X271289Y362858D01*
X271970Y361970D01*
X272858Y361289D01*
X273891Y360861D01*
X275000Y360715D01*
X276109Y360861D01*
X277142Y361289D01*
X278030Y361970D01*
X278711Y362858D01*
X279139Y363891D01*
X279285Y365000D01*
X279139Y366109D01*
X278711Y367142D01*
X278030Y368030D01*
X277142Y368711D01*
X276109Y369139D01*
X275000Y369285D01*
D02*
G37*
G36*
X245000D02*
X243891Y369139D01*
X242858Y368711D01*
X241970Y368030D01*
X241289Y367142D01*
X240861Y366109D01*
X240715Y365000D01*
X240861Y363891D01*
X241289Y362858D01*
X241970Y361970D01*
X242858Y361289D01*
X243891Y360861D01*
X245000Y360715D01*
X246109Y360861D01*
X247142Y361289D01*
X248030Y361970D01*
X248711Y362858D01*
X249139Y363891D01*
X249285Y365000D01*
X249139Y366109D01*
X248711Y367142D01*
X248030Y368030D01*
X247142Y368711D01*
X246109Y369139D01*
X245000Y369285D01*
D02*
G37*
G36*
X205000D02*
X203891Y369139D01*
X202858Y368711D01*
X201970Y368030D01*
X201289Y367142D01*
X200861Y366109D01*
X200715Y365000D01*
X200861Y363891D01*
X201289Y362858D01*
X201970Y361970D01*
X202858Y361289D01*
X203891Y360861D01*
X205000Y360715D01*
X206109Y360861D01*
X207142Y361289D01*
X208030Y361970D01*
X208711Y362858D01*
X209139Y363891D01*
X209285Y365000D01*
X209139Y366109D01*
X208711Y367142D01*
X208030Y368030D01*
X207142Y368711D01*
X206109Y369139D01*
X205000Y369285D01*
D02*
G37*
G36*
X135000D02*
X133891Y369139D01*
X132858Y368711D01*
X131970Y368030D01*
X131289Y367142D01*
X130861Y366109D01*
X130715Y365000D01*
X130861Y363891D01*
X131289Y362858D01*
X131970Y361970D01*
X132858Y361289D01*
X133891Y360861D01*
X135000Y360715D01*
X136109Y360861D01*
X137142Y361289D01*
X138030Y361970D01*
X138711Y362858D01*
X139139Y363891D01*
X139285Y365000D01*
X139139Y366109D01*
X138711Y367142D01*
X138030Y368030D01*
X137142Y368711D01*
X136109Y369139D01*
X135000Y369285D01*
D02*
G37*
G36*
X190000Y419780D02*
X189086Y419660D01*
X188235Y419307D01*
X187504Y418746D01*
X186943Y418015D01*
X186590Y417164D01*
X186470Y416250D01*
X186590Y415336D01*
X186943Y414485D01*
X187504Y413754D01*
X187706Y413599D01*
Y407500D01*
Y356192D01*
X187244Y356000D01*
X179164Y364081D01*
X179285Y365000D01*
X179139Y366109D01*
X178711Y367142D01*
X178030Y368030D01*
X177142Y368711D01*
X176109Y369139D01*
X175000Y369285D01*
X173891Y369139D01*
X172858Y368711D01*
X171970Y368030D01*
X171289Y367142D01*
X170861Y366109D01*
X170715Y365000D01*
X170861Y363891D01*
X171289Y362858D01*
X171970Y361970D01*
X172858Y361289D01*
X173891Y360861D01*
X175000Y360715D01*
X175919Y360836D01*
X183956Y352800D01*
Y214700D01*
X160268Y191012D01*
X159770Y190268D01*
X159596Y189390D01*
Y139917D01*
X155722D01*
Y127583D01*
X168057D01*
Y139917D01*
X164184D01*
Y188440D01*
X178819Y203075D01*
X179281Y202883D01*
Y139499D01*
X179203Y139475D01*
X178132Y138903D01*
X177193Y138132D01*
X176422Y137193D01*
X175849Y136122D01*
X175497Y134959D01*
X175378Y133750D01*
X175497Y132541D01*
X175849Y131378D01*
X176422Y130307D01*
X177193Y129368D01*
X178132Y128597D01*
X179203Y128025D01*
X180366Y127672D01*
X181575Y127553D01*
X182784Y127672D01*
X183946Y128025D01*
X185018Y128597D01*
X185957Y129368D01*
X186727Y130307D01*
X187300Y131378D01*
X187653Y132541D01*
X187772Y133750D01*
X187653Y134959D01*
X187300Y136122D01*
X186727Y137193D01*
X185957Y138132D01*
X185018Y138903D01*
X183946Y139475D01*
X183869Y139499D01*
Y203125D01*
X191622Y210878D01*
X192120Y211622D01*
X192245Y212254D01*
X192755D01*
X192880Y211622D01*
X193378Y210878D01*
X198966Y205290D01*
Y139499D01*
X198888Y139475D01*
X197817Y138903D01*
X196878Y138132D01*
X196107Y137193D01*
X195534Y136122D01*
X195182Y134959D01*
X195063Y133750D01*
X195182Y132541D01*
X195534Y131378D01*
X196107Y130307D01*
X196878Y129368D01*
X197817Y128597D01*
X198888Y128025D01*
X200051Y127672D01*
X201260Y127553D01*
X202469Y127672D01*
X203631Y128025D01*
X204703Y128597D01*
X205642Y129368D01*
X206413Y130307D01*
X206985Y131378D01*
X207338Y132541D01*
X207457Y133750D01*
X207338Y134959D01*
X206985Y136122D01*
X206413Y137193D01*
X205642Y138132D01*
X204703Y138903D01*
X203631Y139475D01*
X203554Y139499D01*
Y206240D01*
X203379Y207118D01*
X202882Y207862D01*
X197294Y213450D01*
Y332349D01*
X197496Y332504D01*
X198057Y333235D01*
X198410Y334086D01*
X198530Y335000D01*
X198410Y335914D01*
X198057Y336765D01*
X197496Y337496D01*
X196765Y338057D01*
X195914Y338410D01*
X195000Y338530D01*
X194086Y338410D01*
X193235Y338057D01*
X192794Y337719D01*
X192294Y337966D01*
Y407500D01*
Y413599D01*
X192496Y413754D01*
X193057Y414485D01*
X193410Y415336D01*
X193530Y416250D01*
X193410Y417164D01*
X193057Y418015D01*
X192496Y418746D01*
X191765Y419307D01*
X190914Y419660D01*
X190000Y419780D01*
D02*
G37*
G36*
X715000Y353119D02*
X713360Y352990D01*
X711761Y352606D01*
X710242Y351976D01*
X708839Y351117D01*
X707589Y350049D01*
X706521Y348798D01*
X705661Y347396D01*
X705032Y345877D01*
X704648Y344277D01*
X704519Y342638D01*
X704648Y340998D01*
X705032Y339399D01*
X705661Y337879D01*
X706521Y336477D01*
X707589Y335226D01*
X708839Y334158D01*
X710242Y333299D01*
X711761Y332670D01*
X713360Y332286D01*
X715000Y332157D01*
X716640Y332286D01*
X718239Y332670D01*
X719758Y333299D01*
X721161Y334158D01*
X722411Y335226D01*
X723479Y336477D01*
X724339Y337879D01*
X724968Y339399D01*
X725352Y340998D01*
X725481Y342638D01*
X725352Y344277D01*
X724968Y345877D01*
X724339Y347396D01*
X723479Y348798D01*
X722411Y350049D01*
X721161Y351117D01*
X719758Y351976D01*
X718239Y352606D01*
X716640Y352990D01*
X715000Y353119D01*
D02*
G37*
G36*
X645000D02*
X643360Y352990D01*
X641761Y352606D01*
X640242Y351976D01*
X638839Y351117D01*
X637589Y350049D01*
X636521Y348798D01*
X635661Y347396D01*
X635032Y345877D01*
X634648Y344277D01*
X634519Y342638D01*
X634648Y340998D01*
X635032Y339399D01*
X635661Y337879D01*
X636521Y336477D01*
X637589Y335226D01*
X638839Y334158D01*
X640242Y333299D01*
X641761Y332670D01*
X643360Y332286D01*
X645000Y332157D01*
X646640Y332286D01*
X648239Y332670D01*
X649758Y333299D01*
X651161Y334158D01*
X652411Y335226D01*
X653479Y336477D01*
X654339Y337879D01*
X654968Y339399D01*
X655352Y340998D01*
X655481Y342638D01*
X655352Y344277D01*
X654968Y345877D01*
X654339Y347396D01*
X653479Y348798D01*
X652411Y350049D01*
X651161Y351117D01*
X649758Y351976D01*
X648239Y352606D01*
X646640Y352990D01*
X645000Y353119D01*
D02*
G37*
G36*
X575000D02*
X573360Y352990D01*
X571761Y352606D01*
X570242Y351976D01*
X568839Y351117D01*
X567589Y350049D01*
X566521Y348798D01*
X565661Y347396D01*
X565032Y345877D01*
X564648Y344277D01*
X564519Y342638D01*
X564648Y340998D01*
X565032Y339399D01*
X565661Y337879D01*
X566521Y336477D01*
X567589Y335226D01*
X568839Y334158D01*
X570242Y333299D01*
X571761Y332670D01*
X573360Y332286D01*
X575000Y332157D01*
X576640Y332286D01*
X578239Y332670D01*
X579758Y333299D01*
X581161Y334158D01*
X582411Y335226D01*
X583479Y336477D01*
X584339Y337879D01*
X584968Y339399D01*
X585352Y340998D01*
X585481Y342638D01*
X585352Y344277D01*
X584968Y345877D01*
X584339Y347396D01*
X583479Y348798D01*
X582411Y350049D01*
X581161Y351117D01*
X579758Y351976D01*
X578239Y352606D01*
X576640Y352990D01*
X575000Y353119D01*
D02*
G37*
G36*
X505000D02*
X503360Y352990D01*
X501761Y352606D01*
X500242Y351976D01*
X498839Y351117D01*
X497589Y350049D01*
X496521Y348798D01*
X495661Y347396D01*
X495032Y345877D01*
X494648Y344277D01*
X494519Y342638D01*
X494648Y340998D01*
X495032Y339399D01*
X495661Y337879D01*
X496521Y336477D01*
X497589Y335226D01*
X498839Y334158D01*
X500242Y333299D01*
X501761Y332670D01*
X503360Y332286D01*
X505000Y332157D01*
X506640Y332286D01*
X508239Y332670D01*
X509758Y333299D01*
X511161Y334158D01*
X512411Y335226D01*
X513479Y336477D01*
X514339Y337879D01*
X514968Y339399D01*
X515352Y340998D01*
X515481Y342638D01*
X515352Y344277D01*
X514968Y345877D01*
X514339Y347396D01*
X513479Y348798D01*
X512411Y350049D01*
X511161Y351117D01*
X509758Y351976D01*
X508239Y352606D01*
X506640Y352990D01*
X505000Y353119D01*
D02*
G37*
G36*
X435000D02*
X433360Y352990D01*
X431761Y352606D01*
X430242Y351976D01*
X428839Y351117D01*
X427589Y350049D01*
X426521Y348798D01*
X425661Y347396D01*
X425032Y345877D01*
X424648Y344277D01*
X424519Y342638D01*
X424648Y340998D01*
X425032Y339399D01*
X425661Y337879D01*
X426521Y336477D01*
X427589Y335226D01*
X428839Y334158D01*
X430242Y333299D01*
X431761Y332670D01*
X433360Y332286D01*
X435000Y332157D01*
X436640Y332286D01*
X438239Y332670D01*
X439758Y333299D01*
X441161Y334158D01*
X442411Y335226D01*
X443479Y336477D01*
X444339Y337879D01*
X444968Y339399D01*
X445352Y340998D01*
X445481Y342638D01*
X445352Y344277D01*
X444968Y345877D01*
X444339Y347396D01*
X443479Y348798D01*
X442411Y350049D01*
X441161Y351117D01*
X439758Y351976D01*
X438239Y352606D01*
X436640Y352990D01*
X435000Y353119D01*
D02*
G37*
G36*
X365000D02*
X363360Y352990D01*
X361761Y352606D01*
X360242Y351976D01*
X358839Y351117D01*
X357589Y350049D01*
X356521Y348798D01*
X355661Y347396D01*
X355032Y345877D01*
X354648Y344277D01*
X354519Y342638D01*
X354648Y340998D01*
X355032Y339399D01*
X355661Y337879D01*
X356521Y336477D01*
X357589Y335226D01*
X358839Y334158D01*
X360242Y333299D01*
X361761Y332670D01*
X363360Y332286D01*
X365000Y332157D01*
X366640Y332286D01*
X368239Y332670D01*
X369758Y333299D01*
X371161Y334158D01*
X372411Y335226D01*
X373479Y336477D01*
X374339Y337879D01*
X374968Y339399D01*
X375352Y340998D01*
X375481Y342638D01*
X375352Y344277D01*
X374968Y345877D01*
X374339Y347396D01*
X373479Y348798D01*
X372411Y350049D01*
X371161Y351117D01*
X369758Y351976D01*
X368239Y352606D01*
X366640Y352990D01*
X365000Y353119D01*
D02*
G37*
G36*
X295000D02*
X293360Y352990D01*
X291761Y352606D01*
X290242Y351976D01*
X288839Y351117D01*
X287589Y350049D01*
X286521Y348798D01*
X285661Y347396D01*
X285032Y345877D01*
X284648Y344277D01*
X284519Y342638D01*
X284648Y340998D01*
X285032Y339399D01*
X285661Y337879D01*
X286521Y336477D01*
X287589Y335226D01*
X288839Y334158D01*
X290242Y333299D01*
X291761Y332670D01*
X293360Y332286D01*
X295000Y332157D01*
X296640Y332286D01*
X298239Y332670D01*
X299758Y333299D01*
X301161Y334158D01*
X302411Y335226D01*
X303479Y336477D01*
X304339Y337879D01*
X304968Y339399D01*
X305352Y340998D01*
X305481Y342638D01*
X305352Y344277D01*
X304968Y345877D01*
X304339Y347396D01*
X303479Y348798D01*
X302411Y350049D01*
X301161Y351117D01*
X299758Y351976D01*
X298239Y352606D01*
X296640Y352990D01*
X295000Y353119D01*
D02*
G37*
G36*
X225000D02*
X223360Y352990D01*
X221761Y352606D01*
X220242Y351976D01*
X218839Y351117D01*
X217589Y350049D01*
X216521Y348798D01*
X215661Y347396D01*
X215032Y345877D01*
X214648Y344277D01*
X214519Y342638D01*
X214648Y340998D01*
X215032Y339399D01*
X215661Y337879D01*
X216521Y336477D01*
X217589Y335226D01*
X218839Y334158D01*
X220242Y333299D01*
X221761Y332670D01*
X223360Y332286D01*
X225000Y332157D01*
X226640Y332286D01*
X228239Y332670D01*
X229758Y333299D01*
X231161Y334158D01*
X232411Y335226D01*
X233479Y336477D01*
X234339Y337879D01*
X234968Y339399D01*
X235352Y340998D01*
X235481Y342638D01*
X235352Y344277D01*
X234968Y345877D01*
X234339Y347396D01*
X233479Y348798D01*
X232411Y350049D01*
X231161Y351117D01*
X229758Y351976D01*
X228239Y352606D01*
X226640Y352990D01*
X225000Y353119D01*
D02*
G37*
G36*
X155000D02*
X153360Y352990D01*
X151761Y352606D01*
X150242Y351976D01*
X148839Y351117D01*
X147589Y350049D01*
X146521Y348798D01*
X145661Y347396D01*
X145032Y345877D01*
X144648Y344277D01*
X144519Y342638D01*
X144648Y340998D01*
X145032Y339399D01*
X145661Y337879D01*
X146521Y336477D01*
X147589Y335226D01*
X148839Y334158D01*
X150242Y333299D01*
X151761Y332670D01*
X153360Y332286D01*
X155000Y332157D01*
X156640Y332286D01*
X158239Y332670D01*
X159758Y333299D01*
X161161Y334158D01*
X162411Y335226D01*
X163479Y336477D01*
X164339Y337879D01*
X164968Y339399D01*
X165352Y340998D01*
X165481Y342638D01*
X165352Y344277D01*
X164968Y345877D01*
X164339Y347396D01*
X163479Y348798D01*
X162411Y350049D01*
X161161Y351117D01*
X159758Y351976D01*
X158239Y352606D01*
X156640Y352990D01*
X155000Y353119D01*
D02*
G37*
G36*
X735000Y324285D02*
X733891Y324139D01*
X732858Y323711D01*
X731970Y323030D01*
X731289Y322142D01*
X730861Y321109D01*
X730715Y320000D01*
X730861Y318891D01*
X731289Y317858D01*
X731970Y316970D01*
X732858Y316289D01*
X733891Y315861D01*
X735000Y315715D01*
X736109Y315861D01*
X737142Y316289D01*
X738030Y316970D01*
X738711Y317858D01*
X739139Y318891D01*
X739285Y320000D01*
X739139Y321109D01*
X738711Y322142D01*
X738030Y323030D01*
X737142Y323711D01*
X736109Y324139D01*
X735000Y324285D01*
D02*
G37*
G36*
X665000D02*
X663891Y324139D01*
X662858Y323711D01*
X661970Y323030D01*
X661289Y322142D01*
X660861Y321109D01*
X660715Y320000D01*
X660861Y318891D01*
X661289Y317858D01*
X661970Y316970D01*
X662858Y316289D01*
X663891Y315861D01*
X665000Y315715D01*
X666109Y315861D01*
X667142Y316289D01*
X668030Y316970D01*
X668711Y317858D01*
X669139Y318891D01*
X669285Y320000D01*
X669139Y321109D01*
X668711Y322142D01*
X668030Y323030D01*
X667142Y323711D01*
X666109Y324139D01*
X665000Y324285D01*
D02*
G37*
G36*
X595000D02*
X593891Y324139D01*
X592858Y323711D01*
X591970Y323030D01*
X591289Y322142D01*
X590861Y321109D01*
X590715Y320000D01*
X590861Y318891D01*
X591289Y317858D01*
X591970Y316970D01*
X592858Y316289D01*
X593891Y315861D01*
X595000Y315715D01*
X596109Y315861D01*
X597142Y316289D01*
X598030Y316970D01*
X598711Y317858D01*
X599139Y318891D01*
X599285Y320000D01*
X599139Y321109D01*
X598711Y322142D01*
X598030Y323030D01*
X597142Y323711D01*
X596109Y324139D01*
X595000Y324285D01*
D02*
G37*
G36*
X525000D02*
X523891Y324139D01*
X522858Y323711D01*
X521970Y323030D01*
X521289Y322142D01*
X520861Y321109D01*
X520715Y320000D01*
X520861Y318891D01*
X521289Y317858D01*
X521970Y316970D01*
X522858Y316289D01*
X523891Y315861D01*
X525000Y315715D01*
X526109Y315861D01*
X527142Y316289D01*
X528030Y316970D01*
X528711Y317858D01*
X529139Y318891D01*
X529285Y320000D01*
X529139Y321109D01*
X528711Y322142D01*
X528030Y323030D01*
X527142Y323711D01*
X526109Y324139D01*
X525000Y324285D01*
D02*
G37*
G36*
X455000D02*
X453891Y324139D01*
X452858Y323711D01*
X451970Y323030D01*
X451289Y322142D01*
X450861Y321109D01*
X450715Y320000D01*
X450861Y318891D01*
X451289Y317858D01*
X451970Y316970D01*
X452858Y316289D01*
X453891Y315861D01*
X455000Y315715D01*
X456109Y315861D01*
X457142Y316289D01*
X458030Y316970D01*
X458711Y317858D01*
X459139Y318891D01*
X459285Y320000D01*
X459139Y321109D01*
X458711Y322142D01*
X458030Y323030D01*
X457142Y323711D01*
X456109Y324139D01*
X455000Y324285D01*
D02*
G37*
G36*
X385000D02*
X383891Y324139D01*
X382858Y323711D01*
X381970Y323030D01*
X381289Y322142D01*
X380861Y321109D01*
X380715Y320000D01*
X380861Y318891D01*
X381289Y317858D01*
X381970Y316970D01*
X382858Y316289D01*
X383891Y315861D01*
X385000Y315715D01*
X386109Y315861D01*
X387142Y316289D01*
X388030Y316970D01*
X388711Y317858D01*
X389139Y318891D01*
X389285Y320000D01*
X389139Y321109D01*
X388711Y322142D01*
X388030Y323030D01*
X387142Y323711D01*
X386109Y324139D01*
X385000Y324285D01*
D02*
G37*
G36*
X315000D02*
X313891Y324139D01*
X312858Y323711D01*
X311970Y323030D01*
X311289Y322142D01*
X310861Y321109D01*
X310715Y320000D01*
X310861Y318891D01*
X311289Y317858D01*
X311970Y316970D01*
X312858Y316289D01*
X313891Y315861D01*
X315000Y315715D01*
X316109Y315861D01*
X317142Y316289D01*
X318030Y316970D01*
X318711Y317858D01*
X319139Y318891D01*
X319285Y320000D01*
X319139Y321109D01*
X318711Y322142D01*
X318030Y323030D01*
X317142Y323711D01*
X316109Y324139D01*
X315000Y324285D01*
D02*
G37*
G36*
X245000D02*
X243891Y324139D01*
X242858Y323711D01*
X241970Y323030D01*
X241289Y322142D01*
X240861Y321109D01*
X240715Y320000D01*
X240861Y318891D01*
X241289Y317858D01*
X241970Y316970D01*
X242858Y316289D01*
X243891Y315861D01*
X245000Y315715D01*
X246109Y315861D01*
X247142Y316289D01*
X248030Y316970D01*
X248711Y317858D01*
X249139Y318891D01*
X249285Y320000D01*
X249139Y321109D01*
X248711Y322142D01*
X248030Y323030D01*
X247142Y323711D01*
X246109Y324139D01*
X245000Y324285D01*
D02*
G37*
G36*
X175000D02*
X173891Y324139D01*
X172858Y323711D01*
X171970Y323030D01*
X171289Y322142D01*
X170861Y321109D01*
X170715Y320000D01*
X170861Y318891D01*
X171289Y317858D01*
X171970Y316970D01*
X172858Y316289D01*
X173891Y315861D01*
X175000Y315715D01*
X176109Y315861D01*
X177142Y316289D01*
X178030Y316970D01*
X178711Y317858D01*
X179139Y318891D01*
X179285Y320000D01*
X179139Y321109D01*
X178711Y322142D01*
X178030Y323030D01*
X177142Y323711D01*
X176109Y324139D01*
X175000Y324285D01*
D02*
G37*
G36*
X735000Y304285D02*
X733891Y304139D01*
X732858Y303711D01*
X731970Y303030D01*
X731289Y302142D01*
X730861Y301109D01*
X730715Y300000D01*
X730861Y298891D01*
X731289Y297858D01*
X731970Y296970D01*
X732858Y296289D01*
X733891Y295861D01*
X735000Y295715D01*
X736109Y295861D01*
X737142Y296289D01*
X738030Y296970D01*
X738711Y297858D01*
X739139Y298891D01*
X739285Y300000D01*
X739139Y301109D01*
X738711Y302142D01*
X738030Y303030D01*
X737142Y303711D01*
X736109Y304139D01*
X735000Y304285D01*
D02*
G37*
G36*
X695000D02*
X693891Y304139D01*
X692858Y303711D01*
X691970Y303030D01*
X691289Y302142D01*
X690861Y301109D01*
X690715Y300000D01*
X690861Y298891D01*
X691289Y297858D01*
X691970Y296970D01*
X692858Y296289D01*
X693891Y295861D01*
X695000Y295715D01*
X696109Y295861D01*
X697142Y296289D01*
X698030Y296970D01*
X698711Y297858D01*
X699139Y298891D01*
X699285Y300000D01*
X699139Y301109D01*
X698711Y302142D01*
X698030Y303030D01*
X697142Y303711D01*
X696109Y304139D01*
X695000Y304285D01*
D02*
G37*
G36*
X665000D02*
X663891Y304139D01*
X662858Y303711D01*
X661970Y303030D01*
X661289Y302142D01*
X660861Y301109D01*
X660715Y300000D01*
X660861Y298891D01*
X661289Y297858D01*
X661970Y296970D01*
X662858Y296289D01*
X663891Y295861D01*
X665000Y295715D01*
X666109Y295861D01*
X667142Y296289D01*
X668030Y296970D01*
X668711Y297858D01*
X669139Y298891D01*
X669285Y300000D01*
X669139Y301109D01*
X668711Y302142D01*
X668030Y303030D01*
X667142Y303711D01*
X666109Y304139D01*
X665000Y304285D01*
D02*
G37*
G36*
X625000D02*
X623891Y304139D01*
X622858Y303711D01*
X621970Y303030D01*
X621289Y302142D01*
X620861Y301109D01*
X620715Y300000D01*
X620861Y298891D01*
X621289Y297858D01*
X621970Y296970D01*
X622858Y296289D01*
X623891Y295861D01*
X625000Y295715D01*
X626109Y295861D01*
X627142Y296289D01*
X628030Y296970D01*
X628711Y297858D01*
X629139Y298891D01*
X629285Y300000D01*
X629139Y301109D01*
X628711Y302142D01*
X628030Y303030D01*
X627142Y303711D01*
X626109Y304139D01*
X625000Y304285D01*
D02*
G37*
G36*
X595000D02*
X593891Y304139D01*
X592858Y303711D01*
X591970Y303030D01*
X591289Y302142D01*
X590861Y301109D01*
X590715Y300000D01*
X590861Y298891D01*
X591289Y297858D01*
X591970Y296970D01*
X592858Y296289D01*
X593891Y295861D01*
X595000Y295715D01*
X596109Y295861D01*
X597142Y296289D01*
X598030Y296970D01*
X598711Y297858D01*
X599139Y298891D01*
X599285Y300000D01*
X599139Y301109D01*
X598711Y302142D01*
X598030Y303030D01*
X597142Y303711D01*
X596109Y304139D01*
X595000Y304285D01*
D02*
G37*
G36*
X555000D02*
X553891Y304139D01*
X552858Y303711D01*
X551970Y303030D01*
X551289Y302142D01*
X550861Y301109D01*
X550715Y300000D01*
X550861Y298891D01*
X551289Y297858D01*
X551970Y296970D01*
X552858Y296289D01*
X553891Y295861D01*
X555000Y295715D01*
X556109Y295861D01*
X557142Y296289D01*
X558030Y296970D01*
X558711Y297858D01*
X559139Y298891D01*
X559285Y300000D01*
X559139Y301109D01*
X558711Y302142D01*
X558030Y303030D01*
X557142Y303711D01*
X556109Y304139D01*
X555000Y304285D01*
D02*
G37*
G36*
X525000D02*
X523891Y304139D01*
X522858Y303711D01*
X521970Y303030D01*
X521289Y302142D01*
X520861Y301109D01*
X520715Y300000D01*
X520861Y298891D01*
X521289Y297858D01*
X521970Y296970D01*
X522858Y296289D01*
X523891Y295861D01*
X525000Y295715D01*
X526109Y295861D01*
X527142Y296289D01*
X528030Y296970D01*
X528711Y297858D01*
X529139Y298891D01*
X529285Y300000D01*
X529139Y301109D01*
X528711Y302142D01*
X528030Y303030D01*
X527142Y303711D01*
X526109Y304139D01*
X525000Y304285D01*
D02*
G37*
G36*
X485000D02*
X483891Y304139D01*
X482858Y303711D01*
X481970Y303030D01*
X481289Y302142D01*
X480861Y301109D01*
X480715Y300000D01*
X480861Y298891D01*
X481289Y297858D01*
X481970Y296970D01*
X482858Y296289D01*
X483891Y295861D01*
X485000Y295715D01*
X486109Y295861D01*
X487142Y296289D01*
X488030Y296970D01*
X488711Y297858D01*
X489139Y298891D01*
X489285Y300000D01*
X489139Y301109D01*
X488711Y302142D01*
X488030Y303030D01*
X487142Y303711D01*
X486109Y304139D01*
X485000Y304285D01*
D02*
G37*
G36*
X455000D02*
X453891Y304139D01*
X452858Y303711D01*
X451970Y303030D01*
X451289Y302142D01*
X450861Y301109D01*
X450715Y300000D01*
X450861Y298891D01*
X451289Y297858D01*
X451970Y296970D01*
X452858Y296289D01*
X453891Y295861D01*
X455000Y295715D01*
X456109Y295861D01*
X457142Y296289D01*
X458030Y296970D01*
X458711Y297858D01*
X459139Y298891D01*
X459285Y300000D01*
X459139Y301109D01*
X458711Y302142D01*
X458030Y303030D01*
X457142Y303711D01*
X456109Y304139D01*
X455000Y304285D01*
D02*
G37*
G36*
X415000D02*
X413891Y304139D01*
X412858Y303711D01*
X411970Y303030D01*
X411289Y302142D01*
X410861Y301109D01*
X410715Y300000D01*
X410861Y298891D01*
X411289Y297858D01*
X411970Y296970D01*
X412858Y296289D01*
X413891Y295861D01*
X415000Y295715D01*
X416109Y295861D01*
X417142Y296289D01*
X418030Y296970D01*
X418711Y297858D01*
X419139Y298891D01*
X419285Y300000D01*
X419139Y301109D01*
X418711Y302142D01*
X418030Y303030D01*
X417142Y303711D01*
X416109Y304139D01*
X415000Y304285D01*
D02*
G37*
G36*
X385000D02*
X383891Y304139D01*
X382858Y303711D01*
X381970Y303030D01*
X381289Y302142D01*
X380861Y301109D01*
X380715Y300000D01*
X380861Y298891D01*
X381289Y297858D01*
X381970Y296970D01*
X382858Y296289D01*
X383891Y295861D01*
X385000Y295715D01*
X386109Y295861D01*
X387142Y296289D01*
X388030Y296970D01*
X388711Y297858D01*
X389139Y298891D01*
X389285Y300000D01*
X389139Y301109D01*
X388711Y302142D01*
X388030Y303030D01*
X387142Y303711D01*
X386109Y304139D01*
X385000Y304285D01*
D02*
G37*
G36*
X345000D02*
X343891Y304139D01*
X342858Y303711D01*
X341970Y303030D01*
X341289Y302142D01*
X340861Y301109D01*
X340715Y300000D01*
X340861Y298891D01*
X341289Y297858D01*
X341970Y296970D01*
X342858Y296289D01*
X343891Y295861D01*
X345000Y295715D01*
X346109Y295861D01*
X347142Y296289D01*
X348030Y296970D01*
X348711Y297858D01*
X349139Y298891D01*
X349285Y300000D01*
X349139Y301109D01*
X348711Y302142D01*
X348030Y303030D01*
X347142Y303711D01*
X346109Y304139D01*
X345000Y304285D01*
D02*
G37*
G36*
X315000D02*
X313891Y304139D01*
X312858Y303711D01*
X311970Y303030D01*
X311289Y302142D01*
X310861Y301109D01*
X310715Y300000D01*
X310861Y298891D01*
X311289Y297858D01*
X311970Y296970D01*
X312858Y296289D01*
X313891Y295861D01*
X315000Y295715D01*
X316109Y295861D01*
X317142Y296289D01*
X318030Y296970D01*
X318711Y297858D01*
X319139Y298891D01*
X319285Y300000D01*
X319139Y301109D01*
X318711Y302142D01*
X318030Y303030D01*
X317142Y303711D01*
X316109Y304139D01*
X315000Y304285D01*
D02*
G37*
G36*
X275000D02*
X273891Y304139D01*
X272858Y303711D01*
X271970Y303030D01*
X271289Y302142D01*
X270861Y301109D01*
X270715Y300000D01*
X270836Y299081D01*
X264628Y292872D01*
X264130Y292128D01*
X263956Y291250D01*
Y231250D01*
X264130Y230372D01*
X264628Y229628D01*
X293775Y200481D01*
X293712Y200000D01*
X293841Y199020D01*
X294219Y198106D01*
X294821Y197321D01*
X295606Y196719D01*
X296519Y196341D01*
X297500Y196212D01*
X298481Y196341D01*
X299394Y196719D01*
X300179Y197321D01*
X300781Y198106D01*
X301159Y199020D01*
X301288Y200000D01*
X301159Y200980D01*
X300781Y201894D01*
X300179Y202679D01*
X299394Y203281D01*
X298481Y203659D01*
X297500Y203788D01*
X297019Y203725D01*
X268544Y232200D01*
Y290300D01*
X274081Y295836D01*
X275000Y295715D01*
X276109Y295861D01*
X277142Y296289D01*
X278030Y296970D01*
X278711Y297858D01*
X279139Y298891D01*
X279285Y300000D01*
X279139Y301109D01*
X278711Y302142D01*
X278030Y303030D01*
X277142Y303711D01*
X276109Y304139D01*
X275000Y304285D01*
D02*
G37*
G36*
X245000D02*
X243891Y304139D01*
X242858Y303711D01*
X241970Y303030D01*
X241289Y302142D01*
X240861Y301109D01*
X240715Y300000D01*
X240861Y298891D01*
X241289Y297858D01*
X241970Y296970D01*
X242858Y296289D01*
X243891Y295861D01*
X245000Y295715D01*
X246109Y295861D01*
X247142Y296289D01*
X248030Y296970D01*
X248711Y297858D01*
X249139Y298891D01*
X249285Y300000D01*
X249139Y301109D01*
X248711Y302142D01*
X248030Y303030D01*
X247142Y303711D01*
X246109Y304139D01*
X245000Y304285D01*
D02*
G37*
G36*
X205000D02*
X203891Y304139D01*
X202858Y303711D01*
X201970Y303030D01*
X201289Y302142D01*
X200861Y301109D01*
X200715Y300000D01*
X200861Y298891D01*
X201289Y297858D01*
X201970Y296970D01*
X202858Y296289D01*
X203891Y295861D01*
X205000Y295715D01*
X206109Y295861D01*
X207142Y296289D01*
X208030Y296970D01*
X208711Y297858D01*
X209139Y298891D01*
X209285Y300000D01*
X209139Y301109D01*
X208711Y302142D01*
X208030Y303030D01*
X207142Y303711D01*
X206109Y304139D01*
X205000Y304285D01*
D02*
G37*
G36*
X175000D02*
X173891Y304139D01*
X172858Y303711D01*
X171970Y303030D01*
X171289Y302142D01*
X170861Y301109D01*
X170715Y300000D01*
X170861Y298891D01*
X171289Y297858D01*
X171970Y296970D01*
X172858Y296289D01*
X173891Y295861D01*
X175000Y295715D01*
X176109Y295861D01*
X177142Y296289D01*
X178030Y296970D01*
X178711Y297858D01*
X179139Y298891D01*
X179285Y300000D01*
X179139Y301109D01*
X178711Y302142D01*
X178030Y303030D01*
X177142Y303711D01*
X176109Y304139D01*
X175000Y304285D01*
D02*
G37*
G36*
X135000D02*
X133891Y304139D01*
X132858Y303711D01*
X131970Y303030D01*
X131289Y302142D01*
X130861Y301109D01*
X130715Y300000D01*
X130861Y298891D01*
X131289Y297858D01*
X131970Y296970D01*
X132858Y296289D01*
X133891Y295861D01*
X135000Y295715D01*
X136109Y295861D01*
X137142Y296289D01*
X138030Y296970D01*
X138711Y297858D01*
X139139Y298891D01*
X139285Y300000D01*
X139139Y301109D01*
X138711Y302142D01*
X138030Y303030D01*
X137142Y303711D01*
X136109Y304139D01*
X135000Y304285D01*
D02*
G37*
G36*
X205000Y324285D02*
X203891Y324139D01*
X202858Y323711D01*
X201970Y323030D01*
X201289Y322142D01*
X200861Y321109D01*
X200715Y320000D01*
X200861Y318891D01*
X201289Y317858D01*
X201970Y316970D01*
X202858Y316289D01*
X203891Y315861D01*
X205000Y315715D01*
X205919Y315836D01*
X221456Y300300D01*
Y293901D01*
X221254Y293746D01*
X220693Y293015D01*
X220340Y292164D01*
X220220Y291250D01*
X220340Y290336D01*
X220693Y289485D01*
X221254Y288754D01*
X221985Y288193D01*
X222836Y287840D01*
X223750Y287720D01*
X224664Y287840D01*
X225515Y288193D01*
X226246Y288754D01*
X226807Y289485D01*
X227160Y290336D01*
X227280Y291250D01*
X227160Y292164D01*
X226807Y293015D01*
X226246Y293746D01*
X226044Y293901D01*
Y301250D01*
X225869Y302128D01*
X225372Y302872D01*
X209164Y319081D01*
X209285Y320000D01*
X209139Y321109D01*
X208711Y322142D01*
X208030Y323030D01*
X207142Y323711D01*
X206109Y324139D01*
X205000Y324285D01*
D02*
G37*
G36*
X695000D02*
X693891Y324139D01*
X692858Y323711D01*
X691970Y323030D01*
X691289Y322142D01*
X690861Y321109D01*
X690715Y320000D01*
X690836Y319081D01*
X679628Y307872D01*
X679131Y307128D01*
X678956Y306250D01*
Y270597D01*
X678456Y270564D01*
X678410Y270914D01*
X678057Y271765D01*
X677496Y272496D01*
X676765Y273057D01*
X675914Y273410D01*
X675000Y273530D01*
X674747Y273497D01*
X629164Y319081D01*
X629285Y320000D01*
X629139Y321109D01*
X628711Y322142D01*
X628030Y323030D01*
X627142Y323711D01*
X626109Y324139D01*
X625000Y324285D01*
X623891Y324139D01*
X622858Y323711D01*
X621970Y323030D01*
X621289Y322142D01*
X620861Y321109D01*
X620715Y320000D01*
X620861Y318891D01*
X621289Y317858D01*
X621970Y316970D01*
X622858Y316289D01*
X623891Y315861D01*
X625000Y315715D01*
X625919Y315836D01*
X671503Y270253D01*
X671470Y270000D01*
X671590Y269086D01*
X671943Y268235D01*
X672504Y267504D01*
X673235Y266943D01*
X674086Y266590D01*
X675000Y266470D01*
X675914Y266590D01*
X676765Y266943D01*
X677496Y267504D01*
X678057Y268235D01*
X678410Y269086D01*
X678456Y269436D01*
X678956Y269403D01*
Y223901D01*
X678754Y223746D01*
X678193Y223015D01*
X677840Y222164D01*
X677720Y221250D01*
X677840Y220336D01*
X678193Y219485D01*
X678754Y218754D01*
X679485Y218193D01*
X680336Y217840D01*
X681250Y217720D01*
X682164Y217840D01*
X683015Y218193D01*
X683746Y218754D01*
X684307Y219485D01*
X684660Y220336D01*
X684780Y221250D01*
X684660Y222164D01*
X684307Y223015D01*
X683746Y223746D01*
X683544Y223901D01*
Y305300D01*
X694081Y315836D01*
X695000Y315715D01*
X696109Y315861D01*
X697142Y316289D01*
X698030Y316970D01*
X698711Y317858D01*
X699139Y318891D01*
X699285Y320000D01*
X699139Y321109D01*
X698711Y322142D01*
X698030Y323030D01*
X697142Y323711D01*
X696109Y324139D01*
X695000Y324285D01*
D02*
G37*
G36*
X275000D02*
X273891Y324139D01*
X272858Y323711D01*
X271970Y323030D01*
X271289Y322142D01*
X270861Y321109D01*
X270715Y320000D01*
X270861Y318891D01*
X271289Y317858D01*
X271970Y316970D01*
X272858Y316289D01*
X273891Y315861D01*
X275000Y315715D01*
X275919Y315836D01*
X303378Y288378D01*
X304122Y287880D01*
X305000Y287706D01*
X322087D01*
X336535Y273259D01*
X336590Y272836D01*
X336943Y271985D01*
X337504Y271254D01*
X338235Y270693D01*
X339086Y270340D01*
X340000Y270220D01*
X340914Y270340D01*
X341765Y270693D01*
X342496Y271254D01*
X343057Y271985D01*
X343410Y272836D01*
X343530Y273750D01*
X343410Y274664D01*
X343057Y275515D01*
X342496Y276246D01*
X341765Y276807D01*
X340914Y277160D01*
X340000Y277280D01*
X339118Y277164D01*
X324660Y291622D01*
X323915Y292120D01*
X323038Y292294D01*
X305950D01*
X279164Y319081D01*
X279285Y320000D01*
X279139Y321109D01*
X278711Y322142D01*
X278030Y323030D01*
X277142Y323711D01*
X276109Y324139D01*
X275000Y324285D01*
D02*
G37*
G36*
X415000D02*
X413891Y324139D01*
X412858Y323711D01*
X411970Y323030D01*
X411289Y322142D01*
X410861Y321109D01*
X410715Y320000D01*
X410861Y318891D01*
X411289Y317858D01*
X411970Y316970D01*
X412858Y316289D01*
X413891Y315861D01*
X415000Y315715D01*
X415919Y315836D01*
X463378Y268378D01*
X464122Y267881D01*
X464557Y267794D01*
X464507Y267294D01*
X400950D01*
X349164Y319081D01*
X349285Y320000D01*
X349139Y321109D01*
X348711Y322142D01*
X348030Y323030D01*
X347142Y323711D01*
X346109Y324139D01*
X345000Y324285D01*
X343891Y324139D01*
X342858Y323711D01*
X341970Y323030D01*
X341289Y322142D01*
X340861Y321109D01*
X340715Y320000D01*
X340861Y318891D01*
X341289Y317858D01*
X341970Y316970D01*
X342858Y316289D01*
X343891Y315861D01*
X345000Y315715D01*
X345919Y315836D01*
X398378Y263378D01*
X399122Y262880D01*
X400000Y262706D01*
X515300D01*
X556456Y221550D01*
Y215151D01*
X556254Y214996D01*
X555693Y214265D01*
X555340Y213414D01*
X555220Y212500D01*
X555340Y211586D01*
X555693Y210735D01*
X556254Y210004D01*
X556985Y209443D01*
X557836Y209090D01*
X558750Y208970D01*
X559664Y209090D01*
X560515Y209443D01*
X561246Y210004D01*
X561807Y210735D01*
X562160Y211586D01*
X562280Y212500D01*
X562160Y213414D01*
X561807Y214265D01*
X561246Y214996D01*
X561044Y215151D01*
Y222500D01*
X560870Y223378D01*
X560372Y224122D01*
X552955Y231540D01*
X553235Y231943D01*
X554086Y231590D01*
X555000Y231470D01*
X555914Y231590D01*
X556765Y231943D01*
X557496Y232504D01*
X558057Y233235D01*
X558410Y234086D01*
X558530Y235000D01*
X558410Y235914D01*
X558057Y236765D01*
X557496Y237496D01*
X556765Y238057D01*
X555914Y238410D01*
X555000Y238530D01*
X554747Y238497D01*
X551687Y241558D01*
X552017Y241934D01*
X552301Y241716D01*
X552858Y241289D01*
X553891Y240861D01*
X555000Y240715D01*
X556109Y240861D01*
X557142Y241289D01*
X558030Y241970D01*
X558711Y242858D01*
X559139Y243891D01*
X559285Y245000D01*
X559139Y246109D01*
X558711Y247142D01*
X558030Y248030D01*
X557142Y248711D01*
X556109Y249139D01*
X555000Y249285D01*
X553891Y249139D01*
X552858Y248711D01*
X551970Y248030D01*
X551289Y247142D01*
X550861Y246109D01*
X550715Y245000D01*
X550861Y243891D01*
X551289Y242858D01*
X551716Y242301D01*
X551934Y242017D01*
X551558Y241687D01*
X521622Y271622D01*
X520878Y272119D01*
X520000Y272294D01*
X465950D01*
X419164Y319081D01*
X419285Y320000D01*
X419139Y321109D01*
X418711Y322142D01*
X418030Y323030D01*
X417142Y323711D01*
X416109Y324139D01*
X415000Y324285D01*
D02*
G37*
G36*
X135000D02*
X133891Y324139D01*
X132858Y323711D01*
X131970Y323030D01*
X131289Y322142D01*
X130861Y321109D01*
X130715Y320000D01*
X130861Y318891D01*
X131289Y317858D01*
X131970Y316970D01*
X132858Y316289D01*
X133891Y315861D01*
X135000Y315715D01*
X135919Y315836D01*
X147706Y304050D01*
Y280000D01*
X147880Y279122D01*
X148378Y278378D01*
X161503Y265253D01*
X161470Y265000D01*
X161590Y264086D01*
X161943Y263235D01*
X162504Y262504D01*
X163235Y261943D01*
X164086Y261590D01*
X165000Y261470D01*
X165914Y261590D01*
X166765Y261943D01*
X167496Y262504D01*
X168057Y263235D01*
X168410Y264086D01*
X168530Y265000D01*
X168410Y265914D01*
X168057Y266765D01*
X167496Y267496D01*
X166765Y268057D01*
X165914Y268410D01*
X165000Y268530D01*
X164747Y268497D01*
X152294Y280950D01*
Y305000D01*
X152120Y305878D01*
X151622Y306622D01*
X139164Y319081D01*
X139285Y320000D01*
X139139Y321109D01*
X138711Y322142D01*
X138030Y323030D01*
X137142Y323711D01*
X136109Y324139D01*
X135000Y324285D01*
D02*
G37*
G36*
X485000D02*
X483891Y324139D01*
X482858Y323711D01*
X481970Y323030D01*
X481289Y322142D01*
X480861Y321109D01*
X480715Y320000D01*
X480861Y318891D01*
X481289Y317858D01*
X481970Y316970D01*
X482858Y316289D01*
X483891Y315861D01*
X485000Y315715D01*
X485919Y315836D01*
X544628Y257128D01*
X545372Y256630D01*
X546250Y256456D01*
X554849D01*
X555004Y256254D01*
X555735Y255693D01*
X556586Y255340D01*
X557500Y255220D01*
X558414Y255340D01*
X559265Y255693D01*
X559996Y256254D01*
X560557Y256985D01*
X560910Y257836D01*
X561030Y258750D01*
X560910Y259664D01*
X560557Y260515D01*
X559996Y261246D01*
X559265Y261807D01*
X558414Y262160D01*
X557500Y262280D01*
X556586Y262160D01*
X555735Y261807D01*
X555004Y261246D01*
X554849Y261044D01*
X547200D01*
X489164Y319081D01*
X489285Y320000D01*
X489139Y321109D01*
X488711Y322142D01*
X488030Y323030D01*
X487142Y323711D01*
X486109Y324139D01*
X485000Y324285D01*
D02*
G37*
G36*
X695000Y249285D02*
X693891Y249139D01*
X692858Y248711D01*
X691970Y248030D01*
X691289Y247142D01*
X690861Y246109D01*
X690715Y245000D01*
X690861Y243891D01*
X691289Y242858D01*
X691970Y241970D01*
X692858Y241289D01*
X693891Y240861D01*
X695000Y240715D01*
X696109Y240861D01*
X697142Y241289D01*
X698030Y241970D01*
X698711Y242858D01*
X699139Y243891D01*
X699285Y245000D01*
X699139Y246109D01*
X698711Y247142D01*
X698030Y248030D01*
X697142Y248711D01*
X696109Y249139D01*
X695000Y249285D01*
D02*
G37*
G36*
X625000D02*
X623891Y249139D01*
X622858Y248711D01*
X621970Y248030D01*
X621289Y247142D01*
X620861Y246109D01*
X620715Y245000D01*
X620861Y243891D01*
X621289Y242858D01*
X621970Y241970D01*
X622858Y241289D01*
X623891Y240861D01*
X625000Y240715D01*
X626109Y240861D01*
X627142Y241289D01*
X628030Y241970D01*
X628711Y242858D01*
X629139Y243891D01*
X629285Y245000D01*
X629139Y246109D01*
X628711Y247142D01*
X628030Y248030D01*
X627142Y248711D01*
X626109Y249139D01*
X625000Y249285D01*
D02*
G37*
G36*
X485000D02*
X483891Y249139D01*
X482858Y248711D01*
X481970Y248030D01*
X481289Y247142D01*
X480861Y246109D01*
X480715Y245000D01*
X480861Y243891D01*
X481289Y242858D01*
X481970Y241970D01*
X482858Y241289D01*
X483891Y240861D01*
X485000Y240715D01*
X486109Y240861D01*
X487142Y241289D01*
X488030Y241970D01*
X488711Y242858D01*
X489139Y243891D01*
X489285Y245000D01*
X489139Y246109D01*
X488711Y247142D01*
X488030Y248030D01*
X487142Y248711D01*
X486109Y249139D01*
X485000Y249285D01*
D02*
G37*
G36*
X415000D02*
X413891Y249139D01*
X412858Y248711D01*
X411970Y248030D01*
X411289Y247142D01*
X410861Y246109D01*
X410715Y245000D01*
X410861Y243891D01*
X411289Y242858D01*
X411970Y241970D01*
X412858Y241289D01*
X413891Y240861D01*
X415000Y240715D01*
X416109Y240861D01*
X417142Y241289D01*
X418030Y241970D01*
X418711Y242858D01*
X419139Y243891D01*
X419285Y245000D01*
X419139Y246109D01*
X418711Y247142D01*
X418030Y248030D01*
X417142Y248711D01*
X416109Y249139D01*
X415000Y249285D01*
D02*
G37*
G36*
X345000D02*
X343891Y249139D01*
X342858Y248711D01*
X341970Y248030D01*
X341289Y247142D01*
X340861Y246109D01*
X340715Y245000D01*
X340861Y243891D01*
X341289Y242858D01*
X341970Y241970D01*
X342858Y241289D01*
X343891Y240861D01*
X345000Y240715D01*
X346109Y240861D01*
X347142Y241289D01*
X348030Y241970D01*
X348711Y242858D01*
X349139Y243891D01*
X349285Y245000D01*
X349139Y246109D01*
X348711Y247142D01*
X348030Y248030D01*
X347142Y248711D01*
X346109Y249139D01*
X345000Y249285D01*
D02*
G37*
G36*
X275000D02*
X273891Y249139D01*
X272858Y248711D01*
X271970Y248030D01*
X271289Y247142D01*
X270861Y246109D01*
X270715Y245000D01*
X270861Y243891D01*
X271289Y242858D01*
X271970Y241970D01*
X272858Y241289D01*
X273891Y240861D01*
X275000Y240715D01*
X276109Y240861D01*
X277142Y241289D01*
X278030Y241970D01*
X278711Y242858D01*
X279139Y243891D01*
X279285Y245000D01*
X279139Y246109D01*
X278711Y247142D01*
X278030Y248030D01*
X277142Y248711D01*
X276109Y249139D01*
X275000Y249285D01*
D02*
G37*
G36*
X245000D02*
X243891Y249139D01*
X242858Y248711D01*
X241970Y248030D01*
X241289Y247142D01*
X240861Y246109D01*
X240715Y245000D01*
X240861Y243891D01*
X241289Y242858D01*
X241970Y241970D01*
X242858Y241289D01*
X243891Y240861D01*
X245000Y240715D01*
X246109Y240861D01*
X247142Y241289D01*
X248030Y241970D01*
X248711Y242858D01*
X249139Y243891D01*
X249285Y245000D01*
X249139Y246109D01*
X248711Y247142D01*
X248030Y248030D01*
X247142Y248711D01*
X246109Y249139D01*
X245000Y249285D01*
D02*
G37*
G36*
X205000D02*
X203891Y249139D01*
X202858Y248711D01*
X201970Y248030D01*
X201289Y247142D01*
X200861Y246109D01*
X200715Y245000D01*
X200861Y243891D01*
X201289Y242858D01*
X201970Y241970D01*
X202858Y241289D01*
X203891Y240861D01*
X205000Y240715D01*
X206109Y240861D01*
X207142Y241289D01*
X208030Y241970D01*
X208711Y242858D01*
X209139Y243891D01*
X209285Y245000D01*
X209139Y246109D01*
X208711Y247142D01*
X208030Y248030D01*
X207142Y248711D01*
X206109Y249139D01*
X205000Y249285D01*
D02*
G37*
G36*
X175000D02*
X173891Y249139D01*
X172858Y248711D01*
X171970Y248030D01*
X171289Y247142D01*
X170861Y246109D01*
X170715Y245000D01*
X170861Y243891D01*
X171289Y242858D01*
X171970Y241970D01*
X172858Y241289D01*
X173891Y240861D01*
X175000Y240715D01*
X176109Y240861D01*
X177142Y241289D01*
X178030Y241970D01*
X178711Y242858D01*
X179139Y243891D01*
X179285Y245000D01*
X179139Y246109D01*
X178711Y247142D01*
X178030Y248030D01*
X177142Y248711D01*
X176109Y249139D01*
X175000Y249285D01*
D02*
G37*
G36*
X135000D02*
X133891Y249139D01*
X132858Y248711D01*
X131970Y248030D01*
X131289Y247142D01*
X130861Y246109D01*
X130715Y245000D01*
X130861Y243891D01*
X131289Y242858D01*
X131970Y241970D01*
X132858Y241289D01*
X133891Y240861D01*
X135000Y240715D01*
X136109Y240861D01*
X137142Y241289D01*
X138030Y241970D01*
X138711Y242858D01*
X139139Y243891D01*
X139285Y245000D01*
X139139Y246109D01*
X138711Y247142D01*
X138030Y248030D01*
X137142Y248711D01*
X136109Y249139D01*
X135000Y249285D01*
D02*
G37*
G36*
X595000D02*
X593891Y249139D01*
X592858Y248711D01*
X591970Y248030D01*
X591289Y247142D01*
X590861Y246109D01*
X590715Y245000D01*
X590861Y243891D01*
X591289Y242858D01*
X591970Y241970D01*
X592706Y241406D01*
Y233264D01*
X585615Y226173D01*
X585162Y226427D01*
X585352Y227219D01*
X585481Y228858D01*
X585352Y230498D01*
X584968Y232097D01*
X584339Y233617D01*
X583479Y235019D01*
X582411Y236269D01*
X581161Y237338D01*
X579758Y238197D01*
X578239Y238826D01*
X576640Y239210D01*
X575000Y239339D01*
X573360Y239210D01*
X571761Y238826D01*
X570242Y238197D01*
X568839Y237338D01*
X567589Y236269D01*
X566521Y235019D01*
X565661Y233617D01*
X565032Y232097D01*
X564648Y230498D01*
X564519Y228858D01*
X564648Y227219D01*
X565032Y225619D01*
X565661Y224100D01*
X566521Y222698D01*
X567589Y221447D01*
X568839Y220379D01*
X570242Y219519D01*
X571761Y218890D01*
X573360Y218506D01*
X575000Y218377D01*
X576640Y218506D01*
X577431Y218696D01*
X577685Y218243D01*
X551794Y192352D01*
X498188D01*
X497310Y192177D01*
X496566Y191680D01*
X460868Y155982D01*
X460371Y155238D01*
X460196Y154360D01*
Y138676D01*
X459752Y138492D01*
X458618Y137622D01*
X457748Y136488D01*
X457201Y135167D01*
X457014Y133750D01*
X457201Y132333D01*
X457748Y131012D01*
X458618Y129878D01*
X459752Y129008D01*
X461073Y128461D01*
X462490Y128274D01*
X463907Y128461D01*
X465228Y129008D01*
X466362Y129878D01*
X467233Y131012D01*
X467780Y132333D01*
X467966Y133750D01*
X467780Y135167D01*
X467233Y136488D01*
X466362Y137622D01*
X465228Y138492D01*
X464784Y138676D01*
Y153410D01*
X499138Y187764D01*
X552744D01*
X553622Y187939D01*
X554367Y188436D01*
X596622Y230692D01*
X597120Y231436D01*
X597294Y232314D01*
Y241406D01*
X598030Y241970D01*
X598711Y242858D01*
X599139Y243891D01*
X599285Y245000D01*
X599139Y246109D01*
X598711Y247142D01*
X598030Y248030D01*
X597142Y248711D01*
X596109Y249139D01*
X595000Y249285D01*
D02*
G37*
G36*
X735000D02*
X733891Y249139D01*
X732858Y248711D01*
X731970Y248030D01*
X731289Y247142D01*
X730861Y246109D01*
X730715Y245000D01*
X730861Y243891D01*
X731289Y242858D01*
X731970Y241970D01*
X732706Y241406D01*
Y233264D01*
X725615Y226173D01*
X725162Y226427D01*
X725352Y227219D01*
X725481Y228858D01*
X725352Y230498D01*
X724968Y232097D01*
X724339Y233617D01*
X723479Y235019D01*
X722411Y236269D01*
X721161Y237338D01*
X719758Y238197D01*
X718239Y238826D01*
X716640Y239210D01*
X715000Y239339D01*
X713360Y239210D01*
X711761Y238826D01*
X710242Y238197D01*
X708839Y237338D01*
X707589Y236269D01*
X706521Y235019D01*
X705661Y233617D01*
X705032Y232097D01*
X704648Y230498D01*
X704519Y228858D01*
X704648Y227219D01*
X705032Y225619D01*
X705661Y224100D01*
X706521Y222698D01*
X707589Y221447D01*
X708839Y220379D01*
X710242Y219519D01*
X711761Y218890D01*
X713360Y218506D01*
X715000Y218377D01*
X716640Y218506D01*
X717431Y218696D01*
X717685Y218243D01*
X681288Y181846D01*
X640743D01*
X640552Y182308D01*
X666622Y208378D01*
X667120Y209122D01*
X667294Y210000D01*
Y241406D01*
X668030Y241970D01*
X668711Y242858D01*
X669139Y243891D01*
X669285Y245000D01*
X669139Y246109D01*
X668711Y247142D01*
X668030Y248030D01*
X667142Y248711D01*
X666109Y249139D01*
X665000Y249285D01*
X663891Y249139D01*
X662858Y248711D01*
X661970Y248030D01*
X661289Y247142D01*
X660861Y246109D01*
X660715Y245000D01*
X660861Y243891D01*
X661289Y242858D01*
X661970Y241970D01*
X662706Y241406D01*
Y210950D01*
X637102Y185346D01*
X521524D01*
X520646Y185171D01*
X519902Y184674D01*
X480553Y145326D01*
X480056Y144581D01*
X479881Y143703D01*
Y138676D01*
X479437Y138492D01*
X478303Y137622D01*
X477433Y136488D01*
X476886Y135167D01*
X476699Y133750D01*
X476886Y132333D01*
X477433Y131012D01*
X478303Y129878D01*
X479437Y129008D01*
X480758Y128461D01*
X482175Y128274D01*
X483593Y128461D01*
X484913Y129008D01*
X486047Y129878D01*
X486917Y131012D01*
X487465Y132333D01*
X487651Y133750D01*
X487465Y135167D01*
X486917Y136488D01*
X486047Y137622D01*
X484913Y138492D01*
X484469Y138676D01*
Y142753D01*
X522474Y180758D01*
X560410D01*
X560602Y180296D01*
X537600Y157294D01*
X523110D01*
X522232Y157120D01*
X521488Y156622D01*
X503721Y138856D01*
X503277Y139039D01*
X501860Y139226D01*
X500443Y139039D01*
X499122Y138492D01*
X497988Y137622D01*
X497118Y136488D01*
X496571Y135167D01*
X496384Y133750D01*
X496571Y132333D01*
X497118Y131012D01*
X497988Y129878D01*
X499122Y129008D01*
X500443Y128461D01*
X501860Y128274D01*
X503277Y128461D01*
X504598Y129008D01*
X505732Y129878D01*
X506603Y131012D01*
X507150Y132333D01*
X507336Y133750D01*
X507150Y135167D01*
X506966Y135611D01*
X524060Y152706D01*
X538550D01*
X539428Y152881D01*
X540172Y153378D01*
X564052Y177258D01*
X682238D01*
X683116Y177432D01*
X683860Y177930D01*
X736622Y230692D01*
X737119Y231436D01*
X737294Y232314D01*
Y241406D01*
X738030Y241970D01*
X738711Y242858D01*
X739139Y243891D01*
X739285Y245000D01*
X739139Y246109D01*
X738711Y247142D01*
X738030Y248030D01*
X737142Y248711D01*
X736109Y249139D01*
X735000Y249285D01*
D02*
G37*
G36*
X555000Y324285D02*
X553891Y324139D01*
X552858Y323711D01*
X551970Y323030D01*
X551289Y322142D01*
X550861Y321109D01*
X550715Y320000D01*
X550861Y318891D01*
X551289Y317858D01*
X551970Y316970D01*
X552858Y316289D01*
X553891Y315861D01*
X555000Y315715D01*
X555919Y315836D01*
X607706Y264050D01*
Y231401D01*
X607504Y231246D01*
X606943Y230515D01*
X606590Y229664D01*
X606470Y228750D01*
X606590Y227836D01*
X606943Y226985D01*
X607504Y226254D01*
X608235Y225693D01*
X609086Y225340D01*
X610000Y225220D01*
X610914Y225340D01*
X611765Y225693D01*
X612496Y226254D01*
X613057Y226985D01*
X613410Y227836D01*
X613530Y228750D01*
X613410Y229664D01*
X613057Y230515D01*
X612496Y231246D01*
X612294Y231401D01*
Y265000D01*
X612119Y265878D01*
X611622Y266622D01*
X559164Y319081D01*
X559285Y320000D01*
X559139Y321109D01*
X558711Y322142D01*
X558030Y323030D01*
X557142Y323711D01*
X556109Y324139D01*
X555000Y324285D01*
D02*
G37*
G36*
X645000Y239339D02*
X643360Y239210D01*
X641761Y238826D01*
X640242Y238197D01*
X638839Y237338D01*
X637589Y236269D01*
X636521Y235019D01*
X635661Y233617D01*
X635032Y232097D01*
X634648Y230498D01*
X634519Y228858D01*
X634648Y227219D01*
X635032Y225619D01*
X635661Y224100D01*
X636521Y222698D01*
X637589Y221447D01*
X638839Y220379D01*
X640242Y219519D01*
X641761Y218890D01*
X643360Y218506D01*
X645000Y218377D01*
X646640Y218506D01*
X648239Y218890D01*
X649758Y219519D01*
X651161Y220379D01*
X652411Y221447D01*
X653479Y222698D01*
X654339Y224100D01*
X654968Y225619D01*
X655352Y227219D01*
X655481Y228858D01*
X655352Y230498D01*
X654968Y232097D01*
X654339Y233617D01*
X653479Y235019D01*
X652411Y236269D01*
X651161Y237338D01*
X649758Y238197D01*
X648239Y238826D01*
X646640Y239210D01*
X645000Y239339D01*
D02*
G37*
G36*
X505000D02*
X503360Y239210D01*
X501761Y238826D01*
X500242Y238197D01*
X498839Y237338D01*
X497589Y236269D01*
X496521Y235019D01*
X495661Y233617D01*
X495032Y232097D01*
X494648Y230498D01*
X494519Y228858D01*
X494648Y227219D01*
X495032Y225619D01*
X495661Y224100D01*
X496521Y222698D01*
X497589Y221447D01*
X498839Y220379D01*
X500242Y219519D01*
X501761Y218890D01*
X503360Y218506D01*
X505000Y218377D01*
X506640Y218506D01*
X508239Y218890D01*
X509758Y219519D01*
X511161Y220379D01*
X512411Y221447D01*
X513479Y222698D01*
X514339Y224100D01*
X514968Y225619D01*
X515352Y227219D01*
X515481Y228858D01*
X515352Y230498D01*
X514968Y232097D01*
X514339Y233617D01*
X513479Y235019D01*
X512411Y236269D01*
X511161Y237338D01*
X509758Y238197D01*
X508239Y238826D01*
X506640Y239210D01*
X505000Y239339D01*
D02*
G37*
G36*
X435000D02*
X433360Y239210D01*
X431761Y238826D01*
X430242Y238197D01*
X428839Y237338D01*
X427589Y236269D01*
X426521Y235019D01*
X425661Y233617D01*
X425032Y232097D01*
X424648Y230498D01*
X424519Y228858D01*
X424648Y227219D01*
X425032Y225619D01*
X425661Y224100D01*
X426521Y222698D01*
X427589Y221447D01*
X428839Y220379D01*
X430242Y219519D01*
X431761Y218890D01*
X433360Y218506D01*
X435000Y218377D01*
X436640Y218506D01*
X438239Y218890D01*
X439758Y219519D01*
X441161Y220379D01*
X442411Y221447D01*
X443479Y222698D01*
X444339Y224100D01*
X444968Y225619D01*
X445352Y227219D01*
X445481Y228858D01*
X445352Y230498D01*
X444968Y232097D01*
X444339Y233617D01*
X443479Y235019D01*
X442411Y236269D01*
X441161Y237338D01*
X439758Y238197D01*
X438239Y238826D01*
X436640Y239210D01*
X435000Y239339D01*
D02*
G37*
G36*
X365000D02*
X363360Y239210D01*
X361761Y238826D01*
X360242Y238197D01*
X358839Y237338D01*
X357589Y236269D01*
X356521Y235019D01*
X355661Y233617D01*
X355032Y232097D01*
X354648Y230498D01*
X354519Y228858D01*
X354648Y227219D01*
X355032Y225619D01*
X355661Y224100D01*
X356521Y222698D01*
X357589Y221447D01*
X358839Y220379D01*
X360242Y219519D01*
X361761Y218890D01*
X363360Y218506D01*
X365000Y218377D01*
X366640Y218506D01*
X368239Y218890D01*
X369758Y219519D01*
X371161Y220379D01*
X372411Y221447D01*
X373479Y222698D01*
X374339Y224100D01*
X374968Y225619D01*
X375352Y227219D01*
X375481Y228858D01*
X375352Y230498D01*
X374968Y232097D01*
X374339Y233617D01*
X373479Y235019D01*
X372411Y236269D01*
X371161Y237338D01*
X369758Y238197D01*
X368239Y238826D01*
X366640Y239210D01*
X365000Y239339D01*
D02*
G37*
G36*
X295000D02*
X293360Y239210D01*
X291761Y238826D01*
X290242Y238197D01*
X288839Y237338D01*
X287589Y236269D01*
X286521Y235019D01*
X285661Y233617D01*
X285032Y232097D01*
X284648Y230498D01*
X284519Y228858D01*
X284648Y227219D01*
X285032Y225619D01*
X285661Y224100D01*
X286521Y222698D01*
X287589Y221447D01*
X288839Y220379D01*
X290242Y219519D01*
X291761Y218890D01*
X293360Y218506D01*
X295000Y218377D01*
X296640Y218506D01*
X298239Y218890D01*
X299758Y219519D01*
X301161Y220379D01*
X302411Y221447D01*
X303479Y222698D01*
X304339Y224100D01*
X304968Y225619D01*
X305352Y227219D01*
X305481Y228858D01*
X305352Y230498D01*
X304968Y232097D01*
X304339Y233617D01*
X303479Y235019D01*
X302411Y236269D01*
X301161Y237338D01*
X299758Y238197D01*
X298239Y238826D01*
X296640Y239210D01*
X295000Y239339D01*
D02*
G37*
G36*
X225000D02*
X223360Y239210D01*
X221761Y238826D01*
X220242Y238197D01*
X218839Y237338D01*
X217589Y236269D01*
X216521Y235019D01*
X215661Y233617D01*
X215032Y232097D01*
X214648Y230498D01*
X214519Y228858D01*
X214648Y227219D01*
X215032Y225619D01*
X215661Y224100D01*
X216521Y222698D01*
X217589Y221447D01*
X218839Y220379D01*
X220242Y219519D01*
X221761Y218890D01*
X223360Y218506D01*
X225000Y218377D01*
X226640Y218506D01*
X228239Y218890D01*
X229758Y219519D01*
X231161Y220379D01*
X232411Y221447D01*
X233479Y222698D01*
X234339Y224100D01*
X234968Y225619D01*
X235352Y227219D01*
X235481Y228858D01*
X235352Y230498D01*
X234968Y232097D01*
X234339Y233617D01*
X233479Y235019D01*
X232411Y236269D01*
X231161Y237338D01*
X229758Y238197D01*
X228239Y238826D01*
X226640Y239210D01*
X225000Y239339D01*
D02*
G37*
G36*
X155000D02*
X153360Y239210D01*
X151761Y238826D01*
X150242Y238197D01*
X148839Y237338D01*
X147589Y236269D01*
X146521Y235019D01*
X145661Y233617D01*
X145032Y232097D01*
X144648Y230498D01*
X144519Y228858D01*
X144648Y227219D01*
X145032Y225619D01*
X145661Y224100D01*
X146521Y222698D01*
X147589Y221447D01*
X148839Y220379D01*
X150242Y219519D01*
X151761Y218890D01*
X153360Y218506D01*
X155000Y218377D01*
X156640Y218506D01*
X158239Y218890D01*
X159758Y219519D01*
X161161Y220379D01*
X162411Y221447D01*
X163479Y222698D01*
X164339Y224100D01*
X164968Y225619D01*
X165352Y227219D01*
X165481Y228858D01*
X165352Y230498D01*
X164968Y232097D01*
X164339Y233617D01*
X163479Y235019D01*
X162411Y236269D01*
X161161Y237338D01*
X159758Y238197D01*
X158239Y238826D01*
X156640Y239210D01*
X155000Y239339D01*
D02*
G37*
G36*
X307500Y203788D02*
X306520Y203659D01*
X305606Y203281D01*
X304821Y202679D01*
X304219Y201894D01*
X303841Y200980D01*
X303712Y200000D01*
X303841Y199020D01*
X304219Y198106D01*
X304821Y197321D01*
X305606Y196719D01*
X306520Y196341D01*
X307500Y196212D01*
X308481Y196341D01*
X309394Y196719D01*
X310179Y197321D01*
X310781Y198106D01*
X311159Y199020D01*
X311288Y200000D01*
X311159Y200980D01*
X310781Y201894D01*
X310179Y202679D01*
X309394Y203281D01*
X308481Y203659D01*
X307500Y203788D01*
D02*
G37*
G36*
X287500D02*
X286520Y203659D01*
X285606Y203281D01*
X284821Y202679D01*
X284219Y201894D01*
X283841Y200980D01*
X283712Y200000D01*
X283775Y199519D01*
X258693Y174437D01*
X258195Y173693D01*
X258021Y172815D01*
Y139499D01*
X257943Y139475D01*
X256872Y138903D01*
X255933Y138132D01*
X255162Y137193D01*
X254590Y136122D01*
X254237Y134959D01*
X254118Y133750D01*
X254237Y132541D01*
X254590Y131378D01*
X255162Y130307D01*
X255933Y129368D01*
X256872Y128597D01*
X257943Y128025D01*
X259106Y127672D01*
X260315Y127553D01*
X261524Y127672D01*
X262686Y128025D01*
X263758Y128597D01*
X264697Y129368D01*
X265468Y130307D01*
X266040Y131378D01*
X266393Y132541D01*
X266512Y133750D01*
X266393Y134959D01*
X266040Y136122D01*
X265468Y137193D01*
X264697Y138132D01*
X263758Y138903D01*
X262686Y139475D01*
X262609Y139499D01*
Y171865D01*
X287019Y196275D01*
X287500Y196212D01*
X288480Y196341D01*
X289394Y196719D01*
X290179Y197321D01*
X290781Y198106D01*
X291159Y199020D01*
X291288Y200000D01*
X291159Y200980D01*
X290781Y201894D01*
X290179Y202679D01*
X289394Y203281D01*
X288480Y203659D01*
X287500Y203788D01*
D02*
G37*
G36*
X555754Y139179D02*
X544896D01*
Y128321D01*
X555754D01*
Y139179D01*
D02*
G37*
G36*
X349809D02*
X338951D01*
Y128321D01*
X349809D01*
Y139179D01*
D02*
G37*
G36*
X707805Y139226D02*
X706388Y139039D01*
X705067Y138492D01*
X703933Y137622D01*
X703063Y136488D01*
X702516Y135167D01*
X702329Y133750D01*
X702516Y132333D01*
X703063Y131012D01*
X703933Y129878D01*
X705067Y129008D01*
X706388Y128461D01*
X707805Y128274D01*
X709222Y128461D01*
X710543Y129008D01*
X711677Y129878D01*
X712547Y131012D01*
X713095Y132333D01*
X713281Y133750D01*
X713095Y135167D01*
X712547Y136488D01*
X711677Y137622D01*
X710543Y138492D01*
X709222Y139039D01*
X707805Y139226D01*
D02*
G37*
G36*
X688120D02*
X686703Y139039D01*
X685382Y138492D01*
X684248Y137622D01*
X683378Y136488D01*
X682831Y135167D01*
X682644Y133750D01*
X682831Y132333D01*
X683378Y131012D01*
X684248Y129878D01*
X685382Y129008D01*
X686703Y128461D01*
X688120Y128274D01*
X689537Y128461D01*
X690858Y129008D01*
X691992Y129878D01*
X692862Y131012D01*
X693409Y132333D01*
X693596Y133750D01*
X693409Y135167D01*
X692862Y136488D01*
X691992Y137622D01*
X690858Y138492D01*
X689537Y139039D01*
X688120Y139226D01*
D02*
G37*
G36*
X668435D02*
X667018Y139039D01*
X665697Y138492D01*
X664563Y137622D01*
X663693Y136488D01*
X663146Y135167D01*
X662959Y133750D01*
X663146Y132333D01*
X663693Y131012D01*
X664563Y129878D01*
X665697Y129008D01*
X667018Y128461D01*
X668435Y128274D01*
X669852Y128461D01*
X671173Y129008D01*
X672307Y129878D01*
X673177Y131012D01*
X673724Y132333D01*
X673911Y133750D01*
X673724Y135167D01*
X673177Y136488D01*
X672307Y137622D01*
X671173Y138492D01*
X669852Y139039D01*
X668435Y139226D01*
D02*
G37*
G36*
X648750D02*
X647333Y139039D01*
X646012Y138492D01*
X644878Y137622D01*
X644008Y136488D01*
X643461Y135167D01*
X643274Y133750D01*
X643461Y132333D01*
X644008Y131012D01*
X644878Y129878D01*
X646012Y129008D01*
X647333Y128461D01*
X648750Y128274D01*
X650167Y128461D01*
X651488Y129008D01*
X652622Y129878D01*
X653492Y131012D01*
X654039Y132333D01*
X654226Y133750D01*
X654039Y135167D01*
X653492Y136488D01*
X652622Y137622D01*
X651488Y138492D01*
X650167Y139039D01*
X648750Y139226D01*
D02*
G37*
G36*
X629065D02*
X627648Y139039D01*
X626327Y138492D01*
X625193Y137622D01*
X624323Y136488D01*
X623776Y135167D01*
X623589Y133750D01*
X623776Y132333D01*
X624323Y131012D01*
X625193Y129878D01*
X626327Y129008D01*
X627648Y128461D01*
X629065Y128274D01*
X630482Y128461D01*
X631803Y129008D01*
X632937Y129878D01*
X633807Y131012D01*
X634354Y132333D01*
X634541Y133750D01*
X634354Y135167D01*
X633807Y136488D01*
X632937Y137622D01*
X631803Y138492D01*
X630482Y139039D01*
X629065Y139226D01*
D02*
G37*
G36*
X609380D02*
X607963Y139039D01*
X606642Y138492D01*
X605508Y137622D01*
X604638Y136488D01*
X604090Y135167D01*
X603904Y133750D01*
X604090Y132333D01*
X604638Y131012D01*
X605508Y129878D01*
X606642Y129008D01*
X607963Y128461D01*
X609380Y128274D01*
X610797Y128461D01*
X612118Y129008D01*
X613252Y129878D01*
X614122Y131012D01*
X614669Y132333D01*
X614856Y133750D01*
X614669Y135167D01*
X614122Y136488D01*
X613252Y137622D01*
X612118Y138492D01*
X610797Y139039D01*
X609380Y139226D01*
D02*
G37*
G36*
X589695D02*
X588278Y139039D01*
X586957Y138492D01*
X585823Y137622D01*
X584952Y136488D01*
X584406Y135167D01*
X584219Y133750D01*
X584406Y132333D01*
X584952Y131012D01*
X585823Y129878D01*
X586957Y129008D01*
X588278Y128461D01*
X589695Y128274D01*
X591112Y128461D01*
X592433Y129008D01*
X593567Y129878D01*
X594437Y131012D01*
X594984Y132333D01*
X595171Y133750D01*
X594984Y135167D01*
X594437Y136488D01*
X593567Y137622D01*
X592433Y138492D01*
X591112Y139039D01*
X589695Y139226D01*
D02*
G37*
G36*
X570010D02*
X568593Y139039D01*
X567272Y138492D01*
X566138Y137622D01*
X565268Y136488D01*
X564720Y135167D01*
X564534Y133750D01*
X564720Y132333D01*
X565268Y131012D01*
X566138Y129878D01*
X567272Y129008D01*
X568593Y128461D01*
X570010Y128274D01*
X571427Y128461D01*
X572748Y129008D01*
X573882Y129878D01*
X574752Y131012D01*
X575299Y132333D01*
X575486Y133750D01*
X575299Y135167D01*
X574752Y136488D01*
X573882Y137622D01*
X572748Y138492D01*
X571427Y139039D01*
X570010Y139226D01*
D02*
G37*
G36*
X525000Y249285D02*
X523891Y249139D01*
X522858Y248711D01*
X521970Y248030D01*
X521289Y247142D01*
X520861Y246109D01*
X520715Y245000D01*
X520861Y243891D01*
X521289Y242858D01*
X521970Y241970D01*
X522706Y241406D01*
Y227200D01*
X441183Y145677D01*
X440686Y144933D01*
X440511Y144055D01*
Y138676D01*
X440067Y138492D01*
X438933Y137622D01*
X438063Y136488D01*
X437516Y135167D01*
X437329Y133750D01*
X437516Y132333D01*
X438063Y131012D01*
X438933Y129878D01*
X440067Y129008D01*
X441388Y128461D01*
X442805Y128274D01*
X444222Y128461D01*
X445543Y129008D01*
X446677Y129878D01*
X447547Y131012D01*
X448095Y132333D01*
X448281Y133750D01*
X448095Y135167D01*
X447547Y136488D01*
X446677Y137622D01*
X445543Y138492D01*
X445099Y138676D01*
Y143105D01*
X526622Y224628D01*
X527119Y225372D01*
X527294Y226250D01*
Y241406D01*
X528030Y241970D01*
X528711Y242858D01*
X529139Y243891D01*
X529285Y245000D01*
X529139Y246109D01*
X528711Y247142D01*
X528030Y248030D01*
X527142Y248711D01*
X526109Y249139D01*
X525000Y249285D01*
D02*
G37*
G36*
X455000D02*
X453891Y249139D01*
X452858Y248711D01*
X451970Y248030D01*
X451289Y247142D01*
X450861Y246109D01*
X450715Y245000D01*
X450861Y243891D01*
X451289Y242858D01*
X451970Y241970D01*
X452706Y241406D01*
Y216810D01*
X422138Y186242D01*
X421640Y185497D01*
X421466Y184620D01*
Y138941D01*
X420382Y138492D01*
X419248Y137622D01*
X418378Y136488D01*
X417831Y135167D01*
X417644Y133750D01*
X417831Y132333D01*
X418378Y131012D01*
X419248Y129878D01*
X420382Y129008D01*
X421703Y128461D01*
X423120Y128274D01*
X424537Y128461D01*
X425858Y129008D01*
X426992Y129878D01*
X427862Y131012D01*
X428409Y132333D01*
X428596Y133750D01*
X428409Y135167D01*
X427862Y136488D01*
X426992Y137622D01*
X426054Y138342D01*
Y183669D01*
X456622Y214238D01*
X457119Y214982D01*
X457294Y215860D01*
Y241406D01*
X458030Y241970D01*
X458711Y242858D01*
X459139Y243891D01*
X459285Y245000D01*
X459139Y246109D01*
X458711Y247142D01*
X458030Y248030D01*
X457142Y248711D01*
X456109Y249139D01*
X455000Y249285D01*
D02*
G37*
G36*
X385000D02*
X383891Y249139D01*
X382858Y248711D01*
X381970Y248030D01*
X381289Y247142D01*
X380861Y246109D01*
X380715Y245000D01*
X380861Y243891D01*
X381289Y242858D01*
X381970Y241970D01*
X382858Y241289D01*
X383891Y240861D01*
X385000Y240715D01*
X385919Y240836D01*
X401781Y224975D01*
Y138941D01*
X400697Y138492D01*
X399563Y137622D01*
X398693Y136488D01*
X398146Y135167D01*
X397959Y133750D01*
X398146Y132333D01*
X398693Y131012D01*
X399563Y129878D01*
X400697Y129008D01*
X402018Y128461D01*
X403435Y128274D01*
X404852Y128461D01*
X406173Y129008D01*
X407307Y129878D01*
X408177Y131012D01*
X408724Y132333D01*
X408911Y133750D01*
X408724Y135167D01*
X408177Y136488D01*
X407307Y137622D01*
X406369Y138342D01*
Y225925D01*
X406194Y226803D01*
X405697Y227547D01*
X389164Y244081D01*
X389285Y245000D01*
X389139Y246109D01*
X388711Y247142D01*
X388030Y248030D01*
X387142Y248711D01*
X386109Y249139D01*
X385000Y249285D01*
D02*
G37*
G36*
X315000D02*
X313891Y249139D01*
X312858Y248711D01*
X311970Y248030D01*
X311289Y247142D01*
X310861Y246109D01*
X310715Y245000D01*
X310861Y243891D01*
X311289Y242858D01*
X311970Y241970D01*
X312706Y241406D01*
Y224390D01*
X312880Y223512D01*
X313378Y222768D01*
X381456Y154690D01*
Y138676D01*
X381012Y138492D01*
X379878Y137622D01*
X379008Y136488D01*
X378461Y135167D01*
X378274Y133750D01*
X378461Y132333D01*
X379008Y131012D01*
X379878Y129878D01*
X381012Y129008D01*
X382333Y128461D01*
X383750Y128274D01*
X385167Y128461D01*
X386488Y129008D01*
X387622Y129878D01*
X388492Y131012D01*
X389039Y132333D01*
X389226Y133750D01*
X389039Y135167D01*
X388492Y136488D01*
X387622Y137622D01*
X386488Y138492D01*
X386044Y138676D01*
Y155640D01*
X385870Y156518D01*
X385372Y157262D01*
X317294Y225340D01*
Y241406D01*
X318030Y241970D01*
X318711Y242858D01*
X319139Y243891D01*
X319285Y245000D01*
X319139Y246109D01*
X318711Y247142D01*
X318030Y248030D01*
X317142Y248711D01*
X316109Y249139D01*
X315000Y249285D01*
D02*
G37*
G36*
X364065Y139226D02*
X362648Y139039D01*
X361327Y138492D01*
X360193Y137622D01*
X359323Y136488D01*
X358776Y135167D01*
X358589Y133750D01*
X358776Y132333D01*
X359323Y131012D01*
X360193Y129878D01*
X361327Y129008D01*
X362648Y128461D01*
X364065Y128274D01*
X365482Y128461D01*
X366803Y129008D01*
X367937Y129878D01*
X368807Y131012D01*
X369354Y132333D01*
X369541Y133750D01*
X369354Y135167D01*
X368807Y136488D01*
X367937Y137622D01*
X366803Y138492D01*
X365482Y139039D01*
X364065Y139226D01*
D02*
G37*
G36*
X299685Y139947D02*
X298476Y139828D01*
X297313Y139475D01*
X296242Y138903D01*
X295303Y138132D01*
X294532Y137193D01*
X293960Y136122D01*
X293607Y134959D01*
X293488Y133750D01*
X293607Y132541D01*
X293960Y131378D01*
X294532Y130307D01*
X295303Y129368D01*
X296242Y128597D01*
X297313Y128025D01*
X298476Y127672D01*
X299685Y127553D01*
X300894Y127672D01*
X302057Y128025D01*
X303128Y128597D01*
X304067Y129368D01*
X304838Y130307D01*
X305411Y131378D01*
X305763Y132541D01*
X305882Y133750D01*
X305763Y134959D01*
X305411Y136122D01*
X304838Y137193D01*
X304067Y138132D01*
X303128Y138903D01*
X302057Y139475D01*
X300894Y139828D01*
X299685Y139947D01*
D02*
G37*
G36*
X280000D02*
X278791Y139828D01*
X277628Y139475D01*
X276557Y138903D01*
X275618Y138132D01*
X274847Y137193D01*
X274275Y136122D01*
X273922Y134959D01*
X273803Y133750D01*
X273922Y132541D01*
X274275Y131378D01*
X274847Y130307D01*
X275618Y129368D01*
X276557Y128597D01*
X277628Y128025D01*
X278791Y127672D01*
X280000Y127553D01*
X281209Y127672D01*
X282371Y128025D01*
X283443Y128597D01*
X284382Y129368D01*
X285153Y130307D01*
X285725Y131378D01*
X286078Y132541D01*
X286197Y133750D01*
X286078Y134959D01*
X285725Y136122D01*
X285153Y137193D01*
X284382Y138132D01*
X283443Y138903D01*
X282371Y139475D01*
X281209Y139828D01*
X280000Y139947D01*
D02*
G37*
G36*
X240630D02*
X239421Y139828D01*
X238258Y139475D01*
X237187Y138903D01*
X236248Y138132D01*
X235477Y137193D01*
X234905Y136122D01*
X234552Y134959D01*
X234433Y133750D01*
X234552Y132541D01*
X234905Y131378D01*
X235477Y130307D01*
X236248Y129368D01*
X237187Y128597D01*
X238258Y128025D01*
X239421Y127672D01*
X240630Y127553D01*
X241839Y127672D01*
X243002Y128025D01*
X244073Y128597D01*
X245012Y129368D01*
X245783Y130307D01*
X246355Y131378D01*
X246708Y132541D01*
X246827Y133750D01*
X246708Y134959D01*
X246355Y136122D01*
X245783Y137193D01*
X245012Y138132D01*
X244073Y138903D01*
X243002Y139475D01*
X241839Y139828D01*
X240630Y139947D01*
D02*
G37*
G36*
X260000Y408530D02*
X259086Y408410D01*
X258235Y408057D01*
X257504Y407496D01*
X256943Y406765D01*
X256590Y405914D01*
X256470Y405000D01*
X256590Y404086D01*
X256943Y403235D01*
X257504Y402504D01*
X257706Y402349D01*
Y218743D01*
X219323Y180360D01*
X218825Y179616D01*
X218651Y178738D01*
Y139499D01*
X218573Y139475D01*
X217502Y138903D01*
X216563Y138132D01*
X215792Y137193D01*
X215219Y136122D01*
X214867Y134959D01*
X214748Y133750D01*
X214867Y132541D01*
X215219Y131378D01*
X215792Y130307D01*
X216563Y129368D01*
X217502Y128597D01*
X218573Y128025D01*
X219736Y127672D01*
X220945Y127553D01*
X222154Y127672D01*
X223316Y128025D01*
X224388Y128597D01*
X225327Y129368D01*
X226098Y130307D01*
X226670Y131378D01*
X227023Y132541D01*
X227142Y133750D01*
X227023Y134959D01*
X226670Y136122D01*
X226098Y137193D01*
X225327Y138132D01*
X224388Y138903D01*
X223316Y139475D01*
X223239Y139499D01*
Y177787D01*
X261622Y216171D01*
X262120Y216915D01*
X262294Y217793D01*
Y402349D01*
X262496Y402504D01*
X263057Y403235D01*
X263410Y404086D01*
X263530Y405000D01*
X263410Y405914D01*
X263057Y406765D01*
X262496Y407496D01*
X261765Y408057D01*
X260914Y408410D01*
X260000Y408530D01*
D02*
G37*
%LPD*%
G36*
X551503Y235253D02*
X551470Y235000D01*
X551590Y234086D01*
X551943Y233235D01*
X551540Y232955D01*
X517872Y266622D01*
X517128Y267120D01*
X516693Y267206D01*
X516743Y267706D01*
X519050D01*
X551503Y235253D01*
D02*
G37*
D23*
X501860Y133750D02*
X523110Y155000D01*
X462490Y133750D02*
Y154360D01*
X482175Y133750D02*
Y143703D01*
X442805Y133750D02*
Y144055D01*
X423760Y133750D02*
Y184620D01*
X404075Y133750D02*
Y225925D01*
X383750Y133750D02*
Y155640D01*
X681250Y306250D02*
X695000Y320000D01*
X681250Y221250D02*
Y306250D01*
X625000Y320000D02*
X675000Y270000D01*
X610000Y228750D02*
Y265000D01*
X485000Y320000D02*
X546250Y258750D01*
X557500D01*
X520000Y270000D02*
X555000Y235000D01*
X465000Y270000D02*
X520000D01*
X558750Y212500D02*
Y222500D01*
X516250Y265000D02*
X558750Y222500D01*
X400000Y265000D02*
X516250D01*
X415000Y320000D02*
X465000Y270000D01*
X498188Y190058D02*
X552744D01*
X735000Y232314D02*
Y245000D01*
X682238Y179552D02*
X735000Y232314D01*
X563102Y179552D02*
X682238D01*
X538550Y155000D02*
X563102Y179552D01*
X523110Y155000D02*
X538550D01*
X665000Y210000D02*
Y245000D01*
X638052Y183052D02*
X665000Y210000D01*
X521524Y183052D02*
X638052D01*
X482175Y143703D02*
X521524Y183052D01*
X595000Y232314D02*
Y245000D01*
X552744Y190058D02*
X595000Y232314D01*
X462490Y154360D02*
X498188Y190058D01*
X525000Y226250D02*
Y245000D01*
X442805Y144055D02*
X525000Y226250D01*
X455000Y215860D02*
Y245000D01*
X423760Y184620D02*
X455000Y215860D01*
X385000Y245000D02*
X404075Y225925D01*
X315000Y224390D02*
Y245000D01*
Y224390D02*
X383750Y155640D01*
X266250Y291250D02*
X275000Y300000D01*
X266250Y231250D02*
Y291250D01*
Y231250D02*
X297500Y200000D01*
X260315Y172815D02*
X287500Y200000D01*
X260315Y133750D02*
Y172815D01*
X195000Y212500D02*
Y335000D01*
Y212500D02*
X201260Y206240D01*
Y133750D02*
Y206240D01*
X220945Y178738D02*
X260000Y217793D01*
X186250Y213750D02*
Y353750D01*
X175000Y365000D02*
X186250Y353750D01*
X181575Y204075D02*
X190000Y212500D01*
X161890Y189390D02*
X186250Y213750D01*
X181575Y133750D02*
Y204075D01*
X161890Y133750D02*
Y189390D01*
X260000Y217793D02*
Y405000D01*
X223750Y291250D02*
Y301250D01*
X205000Y320000D02*
X223750Y301250D01*
X190000Y416250D02*
X190000Y416250D01*
X190000Y407500D02*
Y416250D01*
Y407500D02*
X190000Y212500D01*
X220945Y133750D02*
Y178738D01*
X555000Y320000D02*
X610000Y265000D01*
X345000Y320000D02*
X400000Y265000D01*
X323038Y290000D02*
X339502Y273535D01*
X305000Y290000D02*
X323038D01*
X275000Y320000D02*
X305000Y290000D01*
X135000Y320000D02*
X150000Y305000D01*
Y280000D02*
Y305000D01*
Y280000D02*
X165000Y265000D01*
D24*
X707805Y133750D02*
D03*
X688120D02*
D03*
X668435D02*
D03*
X648750D02*
D03*
X629065D02*
D03*
X609380D02*
D03*
X589695D02*
D03*
X570010D02*
D03*
X501860D02*
D03*
X482175D02*
D03*
X462490D02*
D03*
X442805D02*
D03*
X423120D02*
D03*
X403435D02*
D03*
X383750D02*
D03*
X364065D02*
D03*
D25*
X550325D02*
D03*
X344380D02*
D03*
D26*
X645000Y402087D02*
D03*
Y342638D02*
D03*
Y228858D02*
D03*
X715000D02*
D03*
Y342638D02*
D03*
Y402087D02*
D03*
X575000Y228858D02*
D03*
Y342638D02*
D03*
Y402087D02*
D03*
X155000D02*
D03*
Y342638D02*
D03*
Y228858D02*
D03*
X225000D02*
D03*
Y342638D02*
D03*
Y402087D02*
D03*
X295000D02*
D03*
Y342638D02*
D03*
Y228858D02*
D03*
X365000D02*
D03*
Y342638D02*
D03*
Y402087D02*
D03*
X435000D02*
D03*
Y342638D02*
D03*
Y228858D02*
D03*
X505000D02*
D03*
Y342638D02*
D03*
Y402087D02*
D03*
D27*
X625000Y245000D02*
D03*
Y300000D02*
D03*
Y320000D02*
D03*
Y365000D02*
D03*
Y385000D02*
D03*
X665000D02*
D03*
Y365000D02*
D03*
Y320000D02*
D03*
Y300000D02*
D03*
Y245000D02*
D03*
X735000D02*
D03*
Y300000D02*
D03*
Y320000D02*
D03*
Y365000D02*
D03*
Y385000D02*
D03*
X695000D02*
D03*
Y365000D02*
D03*
Y320000D02*
D03*
Y300000D02*
D03*
Y245000D02*
D03*
X595000D02*
D03*
Y300000D02*
D03*
Y320000D02*
D03*
Y365000D02*
D03*
Y385000D02*
D03*
X555000D02*
D03*
Y365000D02*
D03*
Y320000D02*
D03*
Y300000D02*
D03*
Y245000D02*
D03*
X135000D02*
D03*
Y300000D02*
D03*
Y320000D02*
D03*
Y365000D02*
D03*
Y385000D02*
D03*
X175000D02*
D03*
Y365000D02*
D03*
Y320000D02*
D03*
Y300000D02*
D03*
Y245000D02*
D03*
X245000D02*
D03*
Y300000D02*
D03*
Y320000D02*
D03*
Y365000D02*
D03*
Y385000D02*
D03*
X205000D02*
D03*
Y365000D02*
D03*
Y320000D02*
D03*
Y300000D02*
D03*
Y245000D02*
D03*
X275000D02*
D03*
Y300000D02*
D03*
Y320000D02*
D03*
Y365000D02*
D03*
Y385000D02*
D03*
X315000D02*
D03*
Y365000D02*
D03*
Y320000D02*
D03*
Y300000D02*
D03*
Y245000D02*
D03*
X385000D02*
D03*
Y300000D02*
D03*
Y320000D02*
D03*
Y365000D02*
D03*
Y385000D02*
D03*
X345000D02*
D03*
Y365000D02*
D03*
Y320000D02*
D03*
Y300000D02*
D03*
Y245000D02*
D03*
X415000D02*
D03*
Y300000D02*
D03*
Y320000D02*
D03*
Y365000D02*
D03*
Y385000D02*
D03*
X455000D02*
D03*
Y365000D02*
D03*
Y320000D02*
D03*
Y300000D02*
D03*
Y245000D02*
D03*
X525000D02*
D03*
Y300000D02*
D03*
Y320000D02*
D03*
Y365000D02*
D03*
Y385000D02*
D03*
X485000D02*
D03*
Y365000D02*
D03*
Y320000D02*
D03*
Y300000D02*
D03*
Y245000D02*
D03*
D28*
X307500Y200000D02*
D03*
X287500D02*
D03*
X297500D02*
D03*
D29*
X299685Y133750D02*
D03*
X280000D02*
D03*
X260315D02*
D03*
X240630D02*
D03*
X220945D02*
D03*
X201260D02*
D03*
X181575D02*
D03*
D30*
X161890D02*
D03*
D31*
X733750Y195000D02*
D03*
X135000D02*
D03*
X135016Y442500D02*
D03*
X733766D02*
D03*
D32*
X681250Y221250D02*
D03*
X675000Y270000D02*
D03*
X610000Y228750D02*
D03*
X557500Y258750D02*
D03*
X555000Y235000D02*
D03*
X558750Y212500D02*
D03*
X340000Y273750D02*
D03*
X260000Y405000D02*
D03*
X190000Y416250D02*
D03*
X223750Y291250D02*
D03*
X165000Y265000D02*
D03*
X195000Y335000D02*
D03*
M02*
