G04*
G04 #@! TF.GenerationSoftware,Altium Limited,Altium Designer,19.1.8 (144)*
G04*
G04 Layer_Color=255*
%FSLAX25Y25*%
%MOIN*%
G70*
G01*
G75*
%ADD24C,0.08858*%
%ADD25R,0.08858X0.08858*%
%ADD26C,0.18898*%
%ADD27C,0.06496*%
%ADD28C,0.05512*%
%ADD29C,0.10335*%
%ADD30R,0.10335X0.10335*%
D24*
X707805Y133750D02*
D03*
X688120D02*
D03*
X668435D02*
D03*
X648750D02*
D03*
X629065D02*
D03*
X609380D02*
D03*
X589695D02*
D03*
X570010D02*
D03*
X501860D02*
D03*
X482175D02*
D03*
X462490D02*
D03*
X442805D02*
D03*
X423120D02*
D03*
X403435D02*
D03*
X383750D02*
D03*
X364065D02*
D03*
D25*
X550325D02*
D03*
X344380D02*
D03*
D26*
X645000Y402087D02*
D03*
Y342638D02*
D03*
Y228858D02*
D03*
X715000D02*
D03*
Y342638D02*
D03*
Y402087D02*
D03*
X575000Y228858D02*
D03*
Y342638D02*
D03*
Y402087D02*
D03*
X155000D02*
D03*
Y342638D02*
D03*
Y228858D02*
D03*
X225000D02*
D03*
Y342638D02*
D03*
Y402087D02*
D03*
X295000D02*
D03*
Y342638D02*
D03*
Y228858D02*
D03*
X365000D02*
D03*
Y342638D02*
D03*
Y402087D02*
D03*
X435000D02*
D03*
Y342638D02*
D03*
Y228858D02*
D03*
X505000D02*
D03*
Y342638D02*
D03*
Y402087D02*
D03*
D27*
X625000Y245000D02*
D03*
Y300000D02*
D03*
Y320000D02*
D03*
Y365000D02*
D03*
Y385000D02*
D03*
X665000D02*
D03*
Y365000D02*
D03*
Y320000D02*
D03*
Y300000D02*
D03*
Y245000D02*
D03*
X735000D02*
D03*
Y300000D02*
D03*
Y320000D02*
D03*
Y365000D02*
D03*
Y385000D02*
D03*
X695000D02*
D03*
Y365000D02*
D03*
Y320000D02*
D03*
Y300000D02*
D03*
Y245000D02*
D03*
X595000D02*
D03*
Y300000D02*
D03*
Y320000D02*
D03*
Y365000D02*
D03*
Y385000D02*
D03*
X555000D02*
D03*
Y365000D02*
D03*
Y320000D02*
D03*
Y300000D02*
D03*
Y245000D02*
D03*
X135000D02*
D03*
Y300000D02*
D03*
Y320000D02*
D03*
Y365000D02*
D03*
Y385000D02*
D03*
X175000D02*
D03*
Y365000D02*
D03*
Y320000D02*
D03*
Y300000D02*
D03*
Y245000D02*
D03*
X245000D02*
D03*
Y300000D02*
D03*
Y320000D02*
D03*
Y365000D02*
D03*
Y385000D02*
D03*
X205000D02*
D03*
Y365000D02*
D03*
Y320000D02*
D03*
Y300000D02*
D03*
Y245000D02*
D03*
X275000D02*
D03*
Y300000D02*
D03*
Y320000D02*
D03*
Y365000D02*
D03*
Y385000D02*
D03*
X315000D02*
D03*
Y365000D02*
D03*
Y320000D02*
D03*
Y300000D02*
D03*
Y245000D02*
D03*
X385000D02*
D03*
Y300000D02*
D03*
Y320000D02*
D03*
Y365000D02*
D03*
Y385000D02*
D03*
X345000D02*
D03*
Y365000D02*
D03*
Y320000D02*
D03*
Y300000D02*
D03*
Y245000D02*
D03*
X415000D02*
D03*
Y300000D02*
D03*
Y320000D02*
D03*
Y365000D02*
D03*
Y385000D02*
D03*
X455000D02*
D03*
Y365000D02*
D03*
Y320000D02*
D03*
Y300000D02*
D03*
Y245000D02*
D03*
X525000D02*
D03*
Y300000D02*
D03*
Y320000D02*
D03*
Y365000D02*
D03*
Y385000D02*
D03*
X485000D02*
D03*
Y365000D02*
D03*
Y320000D02*
D03*
Y300000D02*
D03*
Y245000D02*
D03*
D28*
X307500Y200000D02*
D03*
X287500D02*
D03*
X297500D02*
D03*
D29*
X299685Y133750D02*
D03*
X280000D02*
D03*
X260315D02*
D03*
X240630D02*
D03*
X220945D02*
D03*
X201260D02*
D03*
X181575D02*
D03*
D30*
X161890D02*
D03*
M02*
