G04*
G04 #@! TF.GenerationSoftware,Altium Limited,Altium Designer,19.1.8 (144)*
G04*
G04 Layer_Color=32768*
%FSLAX25Y25*%
%MOIN*%
G70*
G01*
G75*
%ADD11C,0.00394*%
%ADD34C,0.00197*%
D11*
X611535Y213110D02*
X678465D01*
Y417835D01*
X611535D02*
X678465D01*
X611535Y213110D02*
Y417835D01*
X681535Y213110D02*
Y417835D01*
X748465D01*
Y213110D02*
Y417835D01*
X681535Y213110D02*
X748465D01*
X541535D02*
Y417835D01*
X608465D01*
Y213110D02*
Y417835D01*
X541535Y213110D02*
X608465D01*
X121535D02*
X188465D01*
Y417835D01*
X121535D02*
X188465D01*
X121535Y213110D02*
Y417835D01*
X191535Y213110D02*
Y417835D01*
X258465D01*
Y213110D02*
Y417835D01*
X191535Y213110D02*
X258465D01*
X261535D02*
X328465D01*
Y417835D01*
X261535D02*
X328465D01*
X261535Y213110D02*
Y417835D01*
X331535Y213110D02*
Y417835D01*
X398465D01*
Y213110D02*
Y417835D01*
X331535Y213110D02*
X398465D01*
X401535D02*
X468465D01*
Y417835D01*
X401535D02*
X468465D01*
X401535Y213110D02*
Y417835D01*
X471535Y213110D02*
Y417835D01*
X538465D01*
Y213110D02*
Y417835D01*
X471535Y213110D02*
X538465D01*
D34*
X539498Y115837D02*
X719419D01*
Y150679D01*
X539498D02*
X719419D01*
X539498Y115837D02*
Y150679D01*
X333553Y115837D02*
X513474D01*
Y150679D01*
X333553D02*
X513474D01*
X333553Y115837D02*
Y150679D01*
X151063Y115049D02*
X310512D01*
Y152451D01*
X151063D02*
X310512D01*
X151063Y115049D02*
Y152451D01*
M02*
