G04*
G04 #@! TF.GenerationSoftware,Altium Limited,Altium Designer,19.1.8 (144)*
G04*
G04 Layer_Color=16711935*
%FSLAX25Y25*%
%MOIN*%
G70*
G01*
G75*
%ADD10C,0.00787*%
%ADD11C,0.00394*%
D10*
X615472Y217047D02*
X674528D01*
Y413898D01*
X615472D02*
X674528D01*
X615472Y217047D02*
Y413898D01*
X685472Y217047D02*
Y413898D01*
X744528D01*
Y217047D02*
Y413898D01*
X685472Y217047D02*
X744528D01*
X545472D02*
Y413898D01*
X604528D01*
Y217047D02*
Y413898D01*
X545472Y217047D02*
X604528D01*
X125472D02*
X184528D01*
Y413898D01*
X125472D02*
X184528D01*
X125472Y217047D02*
Y413898D01*
X195472Y217047D02*
Y413898D01*
X254528D01*
Y217047D02*
Y413898D01*
X195472Y217047D02*
X254528D01*
X265472D02*
X324528D01*
Y413898D01*
X265472D02*
X324528D01*
X265472Y217047D02*
Y413898D01*
X335472Y217047D02*
Y413898D01*
X394528D01*
Y217047D02*
Y413898D01*
X335472Y217047D02*
X394528D01*
X405472D02*
X464528D01*
Y413898D01*
X405472D02*
X464528D01*
X405472Y217047D02*
Y413898D01*
X475472Y217047D02*
Y413898D01*
X534528D01*
Y217047D02*
Y413898D01*
X475472Y217047D02*
X534528D01*
D11*
X540482Y116821D02*
X718435D01*
Y149695D01*
X540482D02*
X718435D01*
X540482Y116821D02*
Y149695D01*
X334537Y116821D02*
X512490D01*
Y149695D01*
X334537D02*
X512490D01*
X334537Y116821D02*
Y149695D01*
X152047Y116033D02*
X309528D01*
Y151467D01*
X152047D02*
X309528D01*
X152047Y116033D02*
Y151467D01*
M02*
